<svg width="12" height="12" viewBox="0 0 12 12" fill="none" xmlns="http://www.w3.org/2000/svg">
<path d="M11 6.7C11.3866 6.7 11.7 6.3866 11.7 6C11.7 5.6134 11.3866 5.3 11 5.3V6.7ZM1 6L0.505025 5.50503C0.231658 5.77839 0.231658 6.22161 0.505025 6.49498L1 6ZM5.50503 11.495C5.77839 11.7683 6.22161 11.7683 6.49498 11.495C6.76834 11.2216 6.76834 10.7784 6.49498 10.505L5.50503 11.495ZM6.49498 1.49497C6.76834 1.22161 6.76834 0.778392 6.49498 0.505025C6.22161 0.231658 5.77839 0.231658 5.50503 0.505025L6.49498 1.49497ZM11 5.3H1V6.7H11V5.3ZM6.49498 10.505L1.49497 5.50503L0.505025 6.49498L5.50503 11.495L6.49498 10.505ZM1.49497 6.49498L6.49498 1.49497L5.50503 0.505025L0.505025 5.50503L1.49497 6.49498Z" fill="#7D8385"/>
</svg>
