<svg width="14" height="14" viewBox="0 0 14 14" fill="none" xmlns="http://www.w3.org/2000/svg">
<path d="M13.4811 6.84433C13.7619 6.57864 13.7742 6.13559 13.5085 5.85476C13.2428 5.57392 12.7998 5.56164 12.5189 5.82733L13.4811 6.84433ZM6.98221 12.029L6.50114 11.5205L6.98221 12.029ZM2.02639 7.3405L2.50745 7.849L2.02639 7.3405ZM8.04417 1.64734L7.5631 1.13884L8.04417 1.64734ZM9.46921 4.38846C9.75005 4.12277 9.76233 3.67972 9.49664 3.39889C9.23095 3.11805 8.78791 3.10577 8.50707 3.37145L9.46921 4.38846ZM12.5189 5.82733L6.50114 11.5205L7.46328 12.5375L13.4811 6.84433L12.5189 5.82733ZM2.50745 7.849L8.52524 2.15584L7.5631 1.13884L1.54532 6.832L2.50745 7.849ZM10.867 4.2645L5.08519 9.7344L6.04733 10.7514L11.8291 5.2815L10.867 4.2645ZM4.39539 9.18857L9.46921 4.38846L8.50707 3.37145L3.43325 8.17157L4.39539 9.18857ZM4.39539 9.7344C4.23112 9.57899 4.23112 9.34397 4.39539 9.18857L3.43325 8.17157C2.68517 8.87929 2.68517 10.0437 3.43325 10.7514L4.39539 9.7344ZM5.08519 9.7344C4.89891 9.91062 4.58167 9.91062 4.39539 9.7344L3.43325 10.7514C4.15931 11.4383 5.32127 11.4383 6.04733 10.7514L5.08519 9.7344ZM10.867 2.15584C11.4874 2.74281 11.4874 3.67753 10.867 4.2645L11.8291 5.2815C13.0334 4.14221 13.0334 2.27813 11.8291 1.13884L10.867 2.15584ZM8.52524 2.15584C9.16769 1.54805 10.2245 1.54805 10.867 2.15584L11.8291 1.13884C10.6469 0.0203853 8.74534 0.0203854 7.5631 1.13884L8.52524 2.15584ZM2.50745 11.5205C1.43085 10.502 1.43085 8.86753 2.50745 7.849L1.54532 6.832C-0.115105 8.40285 -0.115106 10.9666 1.54532 12.5375L2.50745 11.5205ZM6.50114 11.5205C5.40252 12.5598 3.60608 12.5598 2.50745 11.5205L1.54532 12.5375C3.18372 14.0875 5.82487 14.0875 7.46328 12.5375L6.50114 11.5205Z" fill="#E6652E"/>
</svg>
