<svg width="10" height="6" viewBox="0 0 10 6" fill="none" xmlns="http://www.w3.org/2000/svg">
<path d="M1.49497 0.505025C1.22161 0.231658 0.778392 0.231658 0.505025 0.505025C0.231658 0.778392 0.231658 1.22161 0.505025 1.49497L1.49497 0.505025ZM5 5L4.50503 5.49498C4.77839 5.76834 5.22161 5.76834 5.49498 5.49498L5 5ZM9.49498 1.49497C9.76834 1.22161 9.76834 0.778392 9.49498 0.505025C9.22161 0.231658 8.77839 0.231658 8.50503 0.505025L9.49498 1.49497ZM0.505025 1.49497L4.50503 5.49498L5.49498 4.50503L1.49497 0.505025L0.505025 1.49497ZM5.49498 5.49498L9.49498 1.49497L8.50503 0.505025L4.50503 4.50503L5.49498 5.49498Z" fill="#7D8385"/>
</svg>
