<svg width="233" height="244" viewBox="0 0 233 244" fill="none" xmlns="http://www.w3.org/2000/svg">
<g clip-path="url(#clip0_475_3083)">
<path d="M85.6432 230.378C84.9235 230.738 84.9235 231.46 85.6432 231.82C86.3629 232.181 87.4424 232.181 88.1621 231.82C88.8818 231.46 88.8818 230.738 88.1621 230.378C87.4424 230.017 86.3629 230.017 85.6432 230.378Z" fill="#1B1F20"/>
<path d="M92.3002 234.345C91.5805 234.705 91.5805 235.427 92.3002 235.787C93.0199 236.148 94.0994 236.148 94.8191 235.787C95.5388 235.427 95.5388 234.705 94.8191 234.345C94.0994 233.804 93.0199 233.804 92.3002 234.345Z" fill="#1B1F20"/>
<path d="M98.7775 238.131C98.0578 238.492 98.0578 239.213 98.7775 239.574C99.4972 239.935 100.577 239.935 101.296 239.574C102.016 239.213 102.016 238.492 101.296 238.131C100.757 237.771 99.4972 237.771 98.7775 238.131Z" fill="#1B1F20"/>
<path d="M105.435 241.197C104.715 241.557 104.715 242.279 105.435 242.639C106.154 243 107.234 243 107.954 242.639C108.673 242.279 108.673 241.557 107.954 241.197C107.234 240.836 106.154 240.836 105.435 241.197Z" fill="#1B1F20"/>
<path d="M107.954 235.787C108.673 235.427 108.673 234.705 107.954 234.345C107.234 233.984 106.154 233.984 105.435 234.345C104.715 234.705 104.715 235.427 105.435 235.787C105.974 236.148 107.234 236.148 107.954 235.787Z" fill="#1B1F20"/>
<path d="M98.7775 230.378C98.0578 230.738 98.0578 231.46 98.7775 231.82C99.4972 232.181 100.577 232.181 101.296 231.82C102.016 231.46 102.016 230.738 101.296 230.378C100.577 230.017 99.4972 230.017 98.7775 230.378Z" fill="#1B1F20"/>
<path d="M93.5597 228.394C92.566 228.394 91.7604 227.91 91.7604 227.312C91.7604 226.715 92.566 226.23 93.5597 226.23C94.5533 226.23 95.3589 226.715 95.3589 227.312C95.3589 227.91 94.5533 228.394 93.5597 228.394Z" fill="#1B1F20"/>
<path d="M120.908 235.787C121.628 235.427 121.628 234.705 120.908 234.345C120.188 233.984 119.109 233.984 118.389 234.345C117.669 234.705 117.669 235.427 118.389 235.787C119.109 236.148 120.368 236.148 120.908 235.787Z" fill="#1B1F20"/>
<path d="M114.431 239.574C115.151 239.213 115.151 238.492 114.431 238.131C113.711 237.771 112.632 237.771 111.912 238.131C111.192 238.492 111.192 239.213 111.912 239.574C112.632 239.935 113.711 239.935 114.431 239.574Z" fill="#1B1F20"/>
<path d="M111.912 230.378C111.192 230.738 111.192 231.46 111.912 231.82C112.632 232.181 113.711 232.181 114.431 231.82C115.151 231.46 115.151 230.738 114.431 230.378C113.711 230.017 112.632 230.017 111.912 230.378Z" fill="#1B1F20"/>
<path d="M106.694 228.394C105.7 228.394 104.895 227.91 104.895 227.312C104.895 226.715 105.7 226.23 106.694 226.23C107.688 226.23 108.493 226.715 108.493 227.312C108.493 227.91 107.688 228.394 106.694 228.394Z" fill="#1B1F20"/>
<path d="M100.037 224.608C99.0433 224.608 98.2377 224.123 98.2377 223.526C98.2377 222.928 99.0433 222.444 100.037 222.444C101.031 222.444 101.836 222.928 101.836 223.526C101.836 224.123 101.031 224.608 100.037 224.608Z" fill="#1B1F20"/>
<path d="M125.046 230.378C124.327 230.738 124.327 231.46 125.046 231.82C125.766 232.181 126.846 232.181 127.565 231.82C128.285 231.46 128.285 230.738 127.565 230.378C126.846 230.017 125.766 230.017 125.046 230.378Z" fill="#1B1F20"/>
<path d="M118.569 226.591C117.849 226.952 117.849 227.673 118.569 228.034C119.289 228.394 120.368 228.394 121.088 228.034C121.808 227.673 121.808 226.952 121.088 226.591C120.368 226.231 119.289 226.231 118.569 226.591Z" fill="#1B1F20"/>
<path d="M113.171 224.608C112.178 224.608 111.372 224.123 111.372 223.526C111.372 222.928 112.178 222.444 113.171 222.444C114.165 222.444 114.971 222.928 114.971 223.526C114.971 224.123 114.165 224.608 113.171 224.608Z" fill="#1B1F20"/>
<path d="M105.435 219.018C104.715 219.379 104.715 220.1 105.435 220.46C106.154 220.821 107.234 220.821 107.954 220.46C108.673 220.1 108.673 219.379 107.954 219.018C107.234 218.657 106.154 218.657 105.435 219.018Z" fill="#1B1F20"/>
<path d="M134.222 226.591C133.503 226.231 132.423 226.231 131.703 226.591C130.984 226.952 130.984 227.673 131.703 228.034C132.423 228.394 133.503 228.394 134.222 228.034C134.762 227.673 134.762 226.952 134.222 226.591Z" fill="#1B1F20"/>
<path d="M125.046 222.805C124.327 223.165 124.327 223.887 125.046 224.247C125.766 224.608 126.846 224.608 127.565 224.247C128.285 223.887 128.285 223.165 127.565 222.805C126.846 222.444 125.766 222.444 125.046 222.805Z" fill="#1B1F20"/>
<path d="M118.569 219.018C117.849 219.379 117.849 220.1 118.569 220.46C119.289 220.821 120.368 220.821 121.088 220.46C121.808 220.1 121.808 219.379 121.088 219.018C120.368 218.657 119.289 218.657 118.569 219.018Z" fill="#1B1F20"/>
<path d="M111.912 215.231C111.192 215.592 111.192 216.313 111.912 216.674C112.632 217.034 113.711 217.034 114.431 216.674C115.151 216.313 115.151 215.592 114.431 215.231C113.711 214.871 112.632 214.871 111.912 215.231Z" fill="#1B1F20"/>
<path d="M138.181 222.805C137.461 223.165 137.461 223.887 138.181 224.247C138.9 224.608 139.98 224.608 140.699 224.247C141.419 223.887 141.419 223.165 140.699 222.805C139.98 222.444 138.9 222.444 138.181 222.805Z" fill="#1B1F20"/>
<path d="M131.704 219.018C130.984 219.379 130.984 220.1 131.704 220.46C132.423 220.821 133.503 220.821 134.222 220.46C134.942 220.1 134.942 219.379 134.222 219.018C133.503 218.657 132.243 218.657 131.704 219.018Z" fill="#1B1F20"/>
<path d="M125.046 215.231C124.327 215.592 124.327 216.313 125.046 216.674C125.766 217.034 126.846 217.034 127.565 216.674C128.285 216.313 128.285 215.592 127.565 215.231C126.846 214.871 125.766 214.871 125.046 215.231Z" fill="#1B1F20"/>
<path d="M118.569 211.445C117.849 211.805 117.849 212.527 118.569 212.887C119.289 213.248 120.368 213.248 121.088 212.887C121.808 212.527 121.808 211.805 121.088 211.445C120.368 211.084 119.289 211.084 118.569 211.445Z" fill="#1B1F20"/>
<path d="M144.658 219.018C143.938 219.379 143.938 220.1 144.658 220.46C145.378 220.821 146.457 220.821 147.177 220.46C147.896 220.1 147.896 219.379 147.177 219.018C146.637 218.657 145.378 218.657 144.658 219.018Z" fill="#1B1F20"/>
<path d="M138.181 215.231C137.461 215.592 137.461 216.313 138.181 216.674C138.9 217.034 139.98 217.034 140.699 216.674C141.419 216.313 141.419 215.592 140.699 215.231C139.98 214.871 138.9 214.871 138.181 215.231Z" fill="#1B1F20"/>
<path d="M131.704 211.445C130.984 211.805 130.984 212.527 131.704 212.887C132.423 213.248 133.503 213.248 134.222 212.887C134.942 212.527 134.942 211.805 134.222 211.445C133.503 211.084 132.243 211.084 131.704 211.445Z" fill="#1B1F20"/>
<path d="M125.046 207.658C124.327 208.019 124.327 208.74 125.046 209.101C125.766 209.461 126.846 209.461 127.565 209.101C128.285 208.74 128.285 208.019 127.565 207.658C126.846 207.297 125.766 207.297 125.046 207.658Z" fill="#1B1F20"/>
<path d="M151.315 215.231C150.595 215.592 150.595 216.313 151.315 216.674C152.035 217.034 153.114 217.034 153.834 216.674C154.554 216.313 154.554 215.592 153.834 215.231C153.114 214.871 152.035 214.871 151.315 215.231Z" fill="#1B1F20"/>
<path d="M144.658 211.445C143.938 211.805 143.938 212.527 144.658 212.887C145.378 213.248 146.457 213.248 147.177 212.887C147.896 212.527 147.896 211.805 147.177 211.445C146.637 211.084 145.378 211.084 144.658 211.445Z" fill="#1B1F20"/>
<path d="M138.181 207.658C137.461 208.019 137.461 208.74 138.181 209.101C138.9 209.461 139.98 209.461 140.699 209.101C141.419 208.74 141.419 208.019 140.699 207.658C139.98 207.297 138.9 207.297 138.181 207.658Z" fill="#1B1F20"/>
<path d="M131.704 203.871C130.984 204.232 130.984 204.953 131.704 205.314C132.423 205.675 133.503 205.675 134.222 205.314C134.942 204.953 134.942 204.232 134.222 203.871C133.503 203.511 132.243 203.511 131.704 203.871Z" fill="#1B1F20"/>
<path d="M157.792 211.445C157.072 211.805 157.072 212.527 157.792 212.887C158.512 213.248 159.591 213.248 160.311 212.887C161.031 212.527 161.031 211.805 160.311 211.445C159.591 211.084 158.512 211.084 157.792 211.445Z" fill="#1B1F20"/>
<path d="M151.315 207.658C150.595 208.019 150.595 208.74 151.315 209.101C152.035 209.461 153.114 209.461 153.834 209.101C154.554 208.74 154.554 208.019 153.834 207.658C153.114 207.297 152.035 207.297 151.315 207.658Z" fill="#1B1F20"/>
<path d="M144.658 203.871C143.938 204.232 143.938 204.953 144.658 205.314C145.378 205.675 146.457 205.675 147.177 205.314C147.896 204.953 147.896 204.232 147.177 203.871C146.637 203.511 145.378 203.511 144.658 203.871Z" fill="#1B1F20"/>
<path d="M138.181 200.085C137.461 200.445 137.461 201.167 138.181 201.527C138.9 201.888 139.98 201.888 140.699 201.527C141.419 201.167 141.419 200.445 140.699 200.085C139.98 199.724 138.9 199.724 138.181 200.085Z" fill="#1B1F20"/>
<path d="M164.449 207.658C163.73 208.019 163.73 208.74 164.449 209.101C165.169 209.461 166.249 209.461 166.968 209.101C167.688 208.74 167.688 208.019 166.968 207.658C166.249 207.297 165.169 207.297 164.449 207.658Z" fill="#1B1F20"/>
<path d="M157.792 203.871C157.072 204.232 157.072 204.953 157.792 205.314C158.512 205.675 159.591 205.675 160.311 205.314C161.031 204.953 161.031 204.232 160.311 203.871C159.591 203.511 158.512 203.511 157.792 203.871Z" fill="#1B1F20"/>
<path d="M151.315 200.085C150.595 200.445 150.595 201.167 151.315 201.527C152.035 201.888 153.114 201.888 153.834 201.527C154.554 201.167 154.554 200.445 153.834 200.085C153.114 199.724 152.035 199.724 151.315 200.085Z" fill="#1B1F20"/>
<path d="M144.658 196.298C143.938 196.659 143.938 197.38 144.658 197.741C145.378 198.101 146.457 198.101 147.177 197.741C147.896 197.38 147.896 196.659 147.177 196.298C146.637 195.937 145.378 195.937 144.658 196.298Z" fill="#1B1F20"/>
<path d="M170.926 203.871C170.207 204.232 170.207 204.953 170.926 205.314C171.646 205.675 172.726 205.675 173.445 205.314C174.165 204.953 174.165 204.232 173.445 203.871C172.726 203.511 171.646 203.511 170.926 203.871Z" fill="#1B1F20"/>
<path d="M164.449 200.085C163.73 200.445 163.73 201.167 164.449 201.527C165.169 201.888 166.249 201.888 166.968 201.527C167.688 201.167 167.688 200.445 166.968 200.085C166.249 199.724 165.169 199.724 164.449 200.085Z" fill="#1B1F20"/>
<path d="M157.792 196.298C157.072 196.659 157.072 197.38 157.792 197.741C158.512 198.101 159.591 198.101 160.311 197.741C161.031 197.38 161.031 196.659 160.311 196.298C159.591 195.937 158.512 195.937 157.792 196.298Z" fill="#1B1F20"/>
<path d="M151.315 192.512C150.595 192.872 150.595 193.593 151.315 193.954C152.035 194.315 153.114 194.315 153.834 193.954C154.554 193.593 154.554 192.872 153.834 192.512C153.114 192.151 152.035 192.151 151.315 192.512Z" fill="#1B1F20"/>
<path d="M177.584 200.085C176.864 200.445 176.864 201.167 177.584 201.527C178.303 201.888 179.383 201.888 180.103 201.527C180.822 201.167 180.822 200.445 180.103 200.085C179.383 199.724 178.303 199.724 177.584 200.085Z" fill="#1B1F20"/>
<path d="M170.926 196.298C170.207 196.659 170.207 197.38 170.926 197.741C171.646 198.101 172.726 198.101 173.445 197.741C174.165 197.38 174.165 196.659 173.445 196.298C172.726 195.937 171.646 195.937 170.926 196.298Z" fill="#1B1F20"/>
<path d="M164.449 192.512C163.73 192.872 163.73 193.593 164.449 193.954C165.169 194.315 166.249 194.315 166.968 193.954C167.688 193.593 167.688 192.872 166.968 192.512C166.249 192.151 165.169 192.151 164.449 192.512Z" fill="#1B1F20"/>
<path d="M157.972 188.725C157.252 189.086 157.252 189.807 157.972 190.167C158.692 190.528 159.771 190.528 160.491 190.167C161.211 189.807 161.211 189.086 160.491 188.725C159.771 188.364 158.512 188.364 157.972 188.725Z" fill="#1B1F20"/>
<path d="M184.061 196.298C183.341 196.659 183.341 197.38 184.061 197.741C184.781 198.101 185.86 198.101 186.58 197.741C187.3 197.38 187.3 196.659 186.58 196.298C185.86 195.937 184.781 195.937 184.061 196.298Z" fill="#1B1F20"/>
<path d="M177.584 192.512C176.864 192.872 176.864 193.593 177.584 193.954C178.303 194.315 179.383 194.315 180.103 193.954C180.822 193.593 180.822 192.872 180.103 192.512C179.383 192.151 178.303 192.151 177.584 192.512Z" fill="#1B1F20"/>
<path d="M170.926 188.725C170.207 189.086 170.207 189.807 170.926 190.167C171.646 190.528 172.726 190.528 173.445 190.167C174.165 189.807 174.165 189.086 173.445 188.725C172.726 188.364 171.646 188.364 170.926 188.725Z" fill="#1B1F20"/>
<path d="M185.32 190.528C184.327 190.528 183.521 190.044 183.521 189.446C183.521 188.849 184.327 188.364 185.32 188.364C186.314 188.364 187.12 188.849 187.12 189.446C187.12 190.044 186.314 190.528 185.32 190.528Z" fill="#1B1F20"/>
<path d="M177.584 184.938C176.864 185.299 176.864 186.02 177.584 186.381C178.303 186.742 179.383 186.742 180.103 186.381C180.822 186.02 180.822 185.299 180.103 184.938C179.383 184.578 178.303 184.578 177.584 184.938Z" fill="#1B1F20"/>
<path d="M184.061 181.152C183.341 181.512 183.341 182.234 184.061 182.594C184.781 182.955 185.86 182.955 186.58 182.594C187.3 182.234 187.3 181.512 186.58 181.152C185.86 180.791 184.781 180.791 184.061 181.152Z" fill="#1B1F20"/>
<path d="M75.0276 230.558C74.3079 230.197 73.2284 230.197 72.5087 230.558C71.789 230.919 71.789 231.64 72.5087 232.001C73.2284 232.361 74.3079 232.361 75.0276 232.001C75.7473 231.64 75.7473 230.919 75.0276 230.558Z" fill="#1B1F20"/>
<path d="M82.8443 235.23C82.1246 234.869 81.045 234.869 80.3253 235.23C79.6057 235.591 79.6057 236.312 80.3253 236.673C81.045 237.033 82.1246 237.033 82.8443 236.673C83.564 236.312 83.564 235.591 82.8443 235.23Z" fill="#1B1F20"/>
<path d="M91.0425 238.967C90.3228 238.607 89.2432 238.607 88.5235 238.967C87.8038 239.328 87.8038 240.049 88.5235 240.41C89.2432 240.771 90.3228 240.771 91.0425 240.41C91.7621 240.049 91.7621 239.328 91.0425 238.967Z" fill="#1B1F20"/>
<path d="M97.0132 242.137C96.2935 241.776 95.214 241.776 94.4943 242.137C93.7746 242.497 93.7746 243.218 94.4943 243.579C95.214 243.94 96.2935 243.94 97.0132 243.579C97.7329 243.218 97.7329 242.497 97.0132 242.137Z" fill="#1B1F20"/>
<path d="M66.0316 226.772C65.3119 227.132 65.3119 227.853 66.0316 228.214C66.7513 228.575 67.8309 228.575 68.5506 228.214C69.2703 227.853 69.2703 227.132 68.5506 226.772C67.8309 226.411 66.7513 226.411 66.0316 226.772Z" fill="#1B1F20"/>
<path d="M59.5544 222.985C58.8347 223.346 58.8347 224.067 59.5544 224.427C60.274 224.788 61.3536 224.788 62.0733 224.427C62.793 224.067 62.793 223.346 62.0733 222.985C61.3536 222.444 60.0941 222.444 59.5544 222.985Z" fill="#1B1F20"/>
<path d="M52.8973 219.198C52.1777 219.559 52.1777 220.28 52.8973 220.641C53.617 221.001 54.6966 221.001 55.4163 220.641C56.136 220.28 56.136 219.559 55.4163 219.198C54.6966 218.657 53.617 218.657 52.8973 219.198Z" fill="#1B1F20"/>
<path d="M46.4201 215.412C45.7004 215.772 45.7004 216.494 46.4201 216.854C47.1398 217.215 48.2193 217.215 48.939 216.854C49.6587 216.494 49.6587 215.772 48.939 215.412C48.2193 214.871 47.1398 214.871 46.4201 215.412Z" fill="#1B1F20"/>
<path d="M39.7628 211.625C39.0431 211.986 39.0431 212.707 39.7628 213.068C40.4825 213.428 41.5621 213.428 42.2818 213.068C43.0015 212.707 43.0015 211.986 42.2818 211.625C41.5621 211.084 40.4825 211.084 39.7628 211.625Z" fill="#1B1F20"/>
<path d="M33.2856 207.838C32.5659 208.199 32.5659 208.92 33.2856 209.281C34.0052 209.642 35.0848 209.642 35.8045 209.281C36.5242 208.92 36.5242 208.199 35.8045 207.838C35.0848 207.298 34.0052 207.298 33.2856 207.838Z" fill="#1B1F20"/>
<path d="M27.888 205.855C26.8943 205.855 26.0888 205.37 26.0888 204.773C26.0888 204.175 26.8943 203.691 27.888 203.691C28.8817 203.691 29.6873 204.175 29.6873 204.773C29.6873 205.37 28.8817 205.855 27.888 205.855Z" fill="#1B1F20"/>
<path d="M20.1513 200.265C19.4316 200.626 19.4316 201.347 20.1513 201.708C20.8709 202.068 21.9505 202.068 22.6702 201.708C23.3899 201.347 23.3899 200.626 22.6702 200.265C21.9505 199.724 20.8709 199.724 20.1513 200.265Z" fill="#1B1F20"/>
<path d="M13.6742 196.479C12.9545 196.839 12.9545 197.56 13.6742 197.921C14.3939 198.282 15.4735 198.282 16.1931 197.921C16.9128 197.56 16.9128 196.839 16.1931 196.479C15.4735 195.938 14.3939 195.938 13.6742 196.479Z" fill="#1B1F20"/>
<path d="M7.017 192.692C6.29731 193.052 6.29731 193.774 7.017 194.134C7.73669 194.495 8.81623 194.495 9.53592 194.134C10.2556 193.774 10.2556 193.052 9.53592 192.692C8.81623 192.151 7.73669 192.151 7.017 192.692Z" fill="#1B1F20"/>
<path d="M0.539734 188.725C-0.179952 189.086 -0.179952 189.807 0.539734 190.167C1.25942 190.528 2.33894 190.528 3.05862 190.167C3.77831 189.807 3.77831 189.086 3.05862 188.725C2.33894 188.364 1.25942 188.364 0.539734 188.725Z" fill="#1B1F20"/>
<path d="M81.6848 226.772C80.9651 226.411 79.8856 226.411 79.1659 226.772C78.4462 227.132 78.4462 227.853 79.1659 228.214C79.8856 228.575 80.9651 228.575 81.6848 228.214C82.4045 227.853 82.4045 227.132 81.6848 226.772Z" fill="#1B1F20"/>
<path d="M72.5087 222.985C71.789 223.346 71.789 224.067 72.5087 224.427C73.2284 224.788 74.3079 224.788 75.0276 224.427C75.7473 224.067 75.7473 223.346 75.0276 222.985C74.4878 222.444 73.2284 222.444 72.5087 222.985Z" fill="#1B1F20"/>
<path d="M67.2911 221.001C66.2974 221.001 65.4919 220.517 65.4919 219.92C65.4919 219.322 66.2974 218.838 67.2911 218.838C68.2848 218.838 69.0903 219.322 69.0903 219.92C69.0903 220.517 68.2848 221.001 67.2911 221.001Z" fill="#1B1F20"/>
<path d="M59.5544 215.412C58.8347 215.772 58.8347 216.494 59.5544 216.854C60.274 217.215 61.3536 217.215 62.0733 216.854C62.793 216.494 62.793 215.772 62.0733 215.412C61.3536 214.871 60.0941 214.871 59.5544 215.412Z" fill="#1B1F20"/>
<path d="M52.8973 211.625C52.1777 211.986 52.1777 212.707 52.8973 213.068C53.617 213.428 54.6966 213.428 55.4163 213.068C56.136 212.707 56.136 211.986 55.4163 211.625C54.6966 211.084 53.617 211.084 52.8973 211.625Z" fill="#1B1F20"/>
<path d="M46.4201 207.838C45.7004 208.199 45.7004 208.92 46.4201 209.281C47.1398 209.642 48.2193 209.642 48.939 209.281C49.6587 208.92 49.6587 208.199 48.939 207.838C48.2193 207.298 47.1398 207.298 46.4201 207.838Z" fill="#1B1F20"/>
<path d="M39.7628 204.052C39.0431 204.412 39.0431 205.134 39.7628 205.494C40.4825 205.855 41.5621 205.855 42.2818 205.494C43.0015 205.134 43.0015 204.412 42.2818 204.052C41.5621 203.511 40.4825 203.511 39.7628 204.052Z" fill="#1B1F20"/>
<path d="M33.2856 200.265C32.5659 200.626 32.5659 201.347 33.2856 201.708C34.0052 202.068 35.0848 202.068 35.8045 201.708C36.5242 201.347 36.5242 200.626 35.8045 200.265C35.0848 199.724 34.0052 199.724 33.2856 200.265Z" fill="#1B1F20"/>
<path d="M26.8085 196.479C26.0888 196.839 26.0888 197.56 26.8085 197.921C27.5282 198.282 28.6077 198.282 29.3274 197.921C30.0471 197.56 30.0471 196.839 29.3274 196.479C28.6077 195.938 27.3483 195.938 26.8085 196.479Z" fill="#1B1F20"/>
<path d="M20.1513 192.692C19.4316 193.052 19.4316 193.774 20.1513 194.134C20.8709 194.495 21.9505 194.495 22.6702 194.134C23.3899 193.774 23.3899 193.052 22.6702 192.692C21.9505 192.151 20.8709 192.151 20.1513 192.692Z" fill="#1B1F20"/>
<path d="M13.6742 188.725C12.9545 189.086 12.9545 189.807 13.6742 190.167C14.3939 190.528 15.4735 190.528 16.1931 190.167C16.9128 189.807 16.9128 189.086 16.1931 188.725C15.4735 188.364 14.3939 188.364 13.6742 188.725Z" fill="#1B1F20"/>
<path d="M7.017 184.938C6.29731 185.299 6.29731 186.02 7.017 186.381C7.73669 186.742 8.81623 186.742 9.53592 186.381C10.2556 186.02 10.2556 185.299 9.53592 184.938C8.81623 184.578 7.73669 184.578 7.017 184.938Z" fill="#1B1F20"/>
<path d="M1.79918 182.955C0.805503 182.955 -3.05176e-05 182.47 -3.05176e-05 181.873C-3.05176e-05 181.275 0.805503 180.791 1.79918 180.791C2.79286 180.791 3.59839 181.275 3.59839 181.873C3.59839 182.47 2.79286 182.955 1.79918 182.955Z" fill="#1B1F20"/>
<path d="M88.1621 222.985C87.4424 222.624 86.3629 222.624 85.6432 222.985C84.9235 223.345 84.9235 224.067 85.6432 224.427C86.3629 224.788 87.4424 224.788 88.1621 224.427C88.8818 224.067 88.8818 223.345 88.1621 222.985Z" fill="#1B1F20"/>
<path d="M79.1659 219.198C78.4462 219.559 78.4462 220.28 79.1659 220.641C79.8856 221.001 80.9651 221.001 81.6848 220.641C82.4045 220.28 82.4045 219.559 81.6848 219.198C80.9651 218.657 79.8856 218.657 79.1659 219.198Z" fill="#1B1F20"/>
<path d="M72.5087 215.412C71.789 215.772 71.789 216.494 72.5087 216.854C73.2284 217.215 74.3079 217.215 75.0276 216.854C75.7473 216.494 75.7473 215.772 75.0276 215.412C74.4878 214.871 73.2284 214.871 72.5087 215.412Z" fill="#1B1F20"/>
<path d="M66.0316 211.625C65.3119 211.986 65.3119 212.707 66.0316 213.068C66.7513 213.428 67.8309 213.428 68.5506 213.068C69.2703 212.707 69.2703 211.986 68.5506 211.625C67.8309 211.084 66.7513 211.084 66.0316 211.625Z" fill="#1B1F20"/>
<path d="M59.5544 207.838C58.8347 208.199 58.8347 208.92 59.5544 209.281C60.274 209.642 61.3536 209.642 62.0733 209.281C62.793 208.92 62.793 208.199 62.0733 207.838C61.3536 207.298 60.0941 207.298 59.5544 207.838Z" fill="#1B1F20"/>
<path d="M52.8973 204.052C52.1777 204.412 52.1777 205.134 52.8973 205.494C53.617 205.855 54.6966 205.855 55.4163 205.494C56.136 205.134 56.136 204.412 55.4163 204.052C54.6966 203.511 53.617 203.511 52.8973 204.052Z" fill="#1B1F20"/>
<path d="M46.4201 200.265C45.7004 200.626 45.7004 201.347 46.4201 201.708C47.1398 202.068 48.2193 202.068 48.939 201.708C49.6587 201.347 49.6587 200.626 48.939 200.265C48.2193 199.724 47.1398 199.724 46.4201 200.265Z" fill="#1B1F20"/>
<path d="M39.7628 196.479C39.0431 196.839 39.0431 197.56 39.7628 197.921C40.4825 198.282 41.5621 198.282 42.2818 197.921C43.0015 197.56 43.0015 196.839 42.2818 196.479C41.5621 195.938 40.4825 195.938 39.7628 196.479Z" fill="#1B1F20"/>
<path d="M33.2856 192.692C32.5659 193.052 32.5659 193.774 33.2856 194.134C34.0052 194.495 35.0848 194.495 35.8045 194.134C36.5242 193.774 36.5242 193.052 35.8045 192.692C35.0848 192.151 34.0052 192.151 33.2856 192.692Z" fill="#1B1F20"/>
<path d="M26.8085 188.725C26.0888 189.086 26.0888 189.807 26.8085 190.167C27.5282 190.528 28.6077 190.528 29.3274 190.167C30.0471 189.807 30.0471 189.086 29.3274 188.725C28.6077 188.364 27.3483 188.364 26.8085 188.725Z" fill="#1B1F20"/>
<path d="M20.1513 184.938C19.4316 185.299 19.4316 186.02 20.1513 186.381C20.8709 186.742 21.9505 186.742 22.6702 186.381C23.3899 186.02 23.3899 185.299 22.6702 184.938C21.9505 184.578 20.8709 184.578 20.1513 184.938Z" fill="#1B1F20"/>
<path d="M13.6742 181.152C12.9545 181.512 12.9545 182.234 13.6742 182.594C14.3939 182.955 15.4735 182.955 16.1931 182.594C16.9128 182.234 16.9128 181.512 16.1931 181.152C15.4735 180.791 14.3939 180.791 13.6742 181.152Z" fill="#1B1F20"/>
<path d="M7.017 177.365C6.29731 177.726 6.29731 178.447 7.017 178.807C7.73669 179.168 8.81623 179.168 9.53592 178.807C10.2556 178.447 10.2556 177.726 9.53592 177.365C8.81623 177.004 7.73669 177.004 7.017 177.365Z" fill="#1B1F20"/>
<path d="M94.8193 219.198C94.0996 218.838 93.0201 218.838 92.3004 219.198C91.5807 219.559 91.5807 220.28 92.3004 220.641C93.0201 221.001 94.0996 221.001 94.8193 220.641C95.3591 220.28 95.3591 219.559 94.8193 219.198Z" fill="#1B1F20"/>
<path d="M85.6432 215.412C84.9235 215.772 84.9235 216.494 85.6432 216.854C86.3629 217.215 87.4424 217.215 88.1621 216.854C88.8818 216.494 88.8818 215.772 88.1621 215.412C87.4424 214.871 86.3629 214.871 85.6432 215.412Z" fill="#1B1F20"/>
<path d="M79.1659 211.625C78.4462 211.986 78.4462 212.707 79.1659 213.068C79.8856 213.428 80.9651 213.428 81.6848 213.068C82.4045 212.707 82.4045 211.986 81.6848 211.625C80.9651 211.084 79.8856 211.084 79.1659 211.625Z" fill="#1B1F20"/>
<path d="M72.5087 207.838C71.789 208.199 71.789 208.92 72.5087 209.281C73.2284 209.642 74.3079 209.642 75.0276 209.281C75.7473 208.92 75.7473 208.199 75.0276 207.838C74.4878 207.298 73.2284 207.298 72.5087 207.838Z" fill="#1B1F20"/>
<path d="M66.0316 204.052C65.3119 204.412 65.3119 205.134 66.0316 205.494C66.7513 205.855 67.8309 205.855 68.5506 205.494C69.2703 205.134 69.2703 204.412 68.5506 204.052C67.8309 203.511 66.7513 203.511 66.0316 204.052Z" fill="#1B1F20"/>
<path d="M59.5544 200.265C58.8347 200.626 58.8347 201.347 59.5544 201.708C60.274 202.068 61.3536 202.068 62.0733 201.708C62.793 201.347 62.793 200.626 62.0733 200.265C61.3536 199.724 60.0941 199.724 59.5544 200.265Z" fill="#1B1F20"/>
<path d="M52.8973 196.479C52.1777 196.839 52.1777 197.56 52.8973 197.921C53.617 198.282 54.6966 198.282 55.4163 197.921C56.136 197.56 56.136 196.839 55.4163 196.479C54.6966 195.938 53.617 195.938 52.8973 196.479Z" fill="#1B1F20"/>
<path d="M46.4201 192.692C45.7004 193.052 45.7004 193.774 46.4201 194.134C47.1398 194.495 48.2193 194.495 48.939 194.134C49.6587 193.774 49.6587 193.052 48.939 192.692C48.2193 192.151 47.1398 192.151 46.4201 192.692Z" fill="#1B1F20"/>
<path d="M39.7628 188.725C39.0431 189.086 39.0431 189.807 39.7628 190.167C40.4825 190.528 41.5621 190.528 42.2818 190.167C43.0015 189.807 43.0015 189.086 42.2818 188.725C41.5621 188.364 40.4825 188.364 39.7628 188.725Z" fill="#1B1F20"/>
<path d="M33.2856 184.938C32.5659 185.299 32.5659 186.02 33.2856 186.381C34.0052 186.742 35.0848 186.742 35.8045 186.381C36.5242 186.02 36.5242 185.299 35.8045 184.938C35.0848 184.578 34.0052 184.578 33.2856 184.938Z" fill="#1B1F20"/>
<path d="M26.8085 181.152C26.0888 181.512 26.0888 182.234 26.8085 182.594C27.5282 182.955 28.6077 182.955 29.3274 182.594C30.0471 182.234 30.0471 181.512 29.3274 181.152C28.6077 180.791 27.3483 180.791 26.8085 181.152Z" fill="#1B1F20"/>
<path d="M20.1513 177.365C19.4316 177.726 19.4316 178.447 20.1513 178.807C20.8709 179.168 21.9505 179.168 22.6702 178.807C23.3899 178.447 23.3899 177.726 22.6702 177.365C21.9505 177.004 20.8709 177.004 20.1513 177.365Z" fill="#1B1F20"/>
<path d="M20.1513 170.27C19.4316 170.631 19.4316 171.352 20.1513 171.713C20.8709 172.074 21.9505 172.074 22.6702 171.713C23.3899 171.352 23.3899 170.631 22.6702 170.27C21.9505 169.91 20.8709 169.91 20.1513 170.27Z" fill="#1B1F20"/>
<path d="M26.5399 167.27C25.8202 167.631 25.8202 168.352 26.5399 168.713C27.2596 169.074 28.3392 169.074 29.0589 168.713C29.7786 168.352 29.7786 167.631 29.0589 167.27C28.3392 166.91 27.2596 166.91 26.5399 167.27Z" fill="#1B1F20"/>
<path d="M14.9337 175.382C13.94 175.382 13.1345 174.897 13.1345 174.3C13.1345 173.702 13.94 173.218 14.9337 173.218C15.9274 173.218 16.7329 173.702 16.7329 174.3C16.7329 174.897 15.9274 175.382 14.9337 175.382Z" fill="#1B1F20"/>
<path d="M101.296 215.231C100.577 214.871 99.4972 214.871 98.7775 215.231C98.0578 215.592 98.0578 216.313 98.7775 216.674C99.4972 217.034 100.577 217.034 101.296 216.674C102.016 216.313 102.016 215.772 101.296 215.231Z" fill="#1B1F20"/>
<path d="M92.3002 211.445C91.5805 211.805 91.5805 212.527 92.3002 212.887C93.0199 213.248 94.0994 213.248 94.8191 212.887C95.5388 212.527 95.5388 211.805 94.8191 211.445C94.0994 211.084 93.0199 211.084 92.3002 211.445Z" fill="#1B1F20"/>
<path d="M87.0826 209.461C86.0889 209.461 85.2834 208.977 85.2834 208.379C85.2834 207.782 86.0889 207.297 87.0826 207.297C88.0763 207.297 88.8818 207.782 88.8818 208.379C88.8818 208.977 88.0763 209.461 87.0826 209.461Z" fill="#1B1F20"/>
<path d="M79.1659 203.871C78.4462 204.232 78.4462 204.953 79.1659 205.314C79.8856 205.675 80.9651 205.675 81.6848 205.314C82.4045 204.953 82.4045 204.232 81.6848 203.871C80.9651 203.511 79.8856 203.511 79.1659 203.871Z" fill="#1B1F20"/>
<path d="M72.6886 200.085C71.9689 200.445 71.9689 201.167 72.6886 201.527C73.4083 201.888 74.4879 201.888 75.2075 201.527C75.9272 201.167 75.9272 200.445 75.2075 200.085C74.4879 199.724 73.4083 199.724 72.6886 200.085Z" fill="#1B1F20"/>
<path d="M66.0316 196.298C65.3119 196.659 65.3119 197.38 66.0316 197.741C66.7513 198.101 67.8309 198.101 68.5506 197.741C69.2703 197.38 69.2703 196.659 68.5506 196.298C67.8309 195.937 66.7513 195.937 66.0316 196.298Z" fill="#1B1F20"/>
<path d="M59.5544 192.512C58.8347 192.872 58.8347 193.593 59.5544 193.954C60.274 194.315 61.3536 194.315 62.0733 193.954C62.793 193.593 62.793 192.872 62.0733 192.512C61.3536 192.151 60.274 192.151 59.5544 192.512Z" fill="#1B1F20"/>
<path d="M53.077 188.725C52.3573 189.086 52.3573 189.807 53.077 190.167C53.7967 190.528 54.8763 190.528 55.596 190.167C56.3157 189.807 56.3157 189.086 55.596 188.725C54.8763 188.364 53.6168 188.364 53.077 188.725Z" fill="#1B1F20"/>
<path d="M46.4201 184.938C45.7004 185.299 45.7004 186.02 46.4201 186.381C47.1398 186.742 48.2193 186.742 48.939 186.381C49.6587 186.02 49.6587 185.299 48.939 184.938C48.2193 184.578 47.1398 184.578 46.4201 184.938Z" fill="#1B1F20"/>
<path d="M41.2022 182.955C40.2086 182.955 39.403 182.47 39.403 181.873C39.403 181.275 40.2086 180.791 41.2022 180.791C42.1959 180.791 43.0015 181.275 43.0015 181.873C43.0015 182.47 42.1959 182.955 41.2022 182.955Z" fill="#1B1F20"/>
<path d="M35.8045 177.365C35.0848 177.004 34.0052 177.004 33.2856 177.365C32.5659 177.726 32.5659 178.447 33.2856 178.807C34.0052 179.168 35.0848 179.168 35.8045 178.807C36.5242 178.447 36.5242 177.726 35.8045 177.365C35.0848 177.004 36.5242 177.726 35.8045 177.365Z" fill="#1B1F20"/>
<path d="M29.0586 173.27C28.3389 172.91 27.2594 172.91 26.5397 173.27C25.82 173.631 25.82 174.352 26.5397 174.713C27.2594 175.074 28.3389 175.074 29.0586 174.713C29.7783 174.352 29.7783 173.631 29.0586 173.27C28.3389 172.91 29.7783 173.631 29.0586 173.27Z" fill="#1B1F20"/>
<path d="M107.954 211.445C107.234 211.084 106.154 211.084 105.435 211.445C104.715 211.805 104.715 212.527 105.435 212.887C106.154 213.248 107.234 213.248 107.954 212.887C108.673 212.527 108.673 211.986 107.954 211.445Z" fill="#1B1F20"/>
<path d="M98.7775 207.658C98.0578 208.019 98.0578 208.74 98.7775 209.101C99.4972 209.461 100.577 209.461 101.296 209.101C102.016 208.74 102.016 208.019 101.296 207.658C100.577 207.297 99.4972 207.297 98.7775 207.658Z" fill="#1B1F20"/>
<path d="M92.3002 203.871C91.5805 204.232 91.5805 204.953 92.3002 205.314C93.0199 205.675 94.0994 205.675 94.8191 205.314C95.5388 204.953 95.5388 204.232 94.8191 203.871C94.0994 203.511 93.0199 203.511 92.3002 203.871Z" fill="#1B1F20"/>
<path d="M85.8231 200.085C85.1034 200.445 85.1034 201.167 85.8231 201.527C86.5428 201.888 87.6224 201.888 88.3421 201.527C89.0618 201.167 89.0618 200.445 88.3421 200.085C87.6224 199.724 86.3629 199.724 85.8231 200.085Z" fill="#1B1F20"/>
<path d="M79.1659 196.298C78.4462 196.659 78.4462 197.38 79.1659 197.741C79.8856 198.101 80.9651 198.101 81.6848 197.741C82.4045 197.38 82.4045 196.659 81.6848 196.298C80.9651 195.937 79.8856 195.937 79.1659 196.298Z" fill="#1B1F20"/>
<path d="M72.6886 192.512C71.9689 192.872 71.9689 193.593 72.6886 193.954C73.4083 194.315 74.4879 194.315 75.2075 193.954C75.9272 193.593 75.9272 192.872 75.2075 192.512C74.4879 192.151 73.4083 192.151 72.6886 192.512Z" fill="#1B1F20"/>
<path d="M66.0316 188.725C65.3119 189.085 65.3119 189.807 66.0316 190.167C66.7513 190.528 67.8308 190.528 68.5505 190.167C69.2702 189.807 66.7513 188.364 66.0316 188.725Z" fill="#1B1F20"/>
<path d="M59.5545 184.938C58.8348 185.299 58.8348 186.02 59.5545 186.381C60.2742 186.742 61.3538 186.742 62.0735 186.381C62.7932 186.02 60.2742 184.578 59.5545 184.938Z" fill="#1B1F20"/>
<path d="M114.431 207.658C113.711 207.297 112.632 207.297 111.912 207.658C111.192 208.019 111.192 208.74 111.912 209.101C112.632 209.461 113.711 209.461 114.431 209.101C115.151 208.74 115.151 208.199 114.431 207.658Z" fill="#1B1F20"/>
<path d="M105.435 203.871C104.715 204.232 104.715 204.953 105.435 205.314C106.154 205.675 107.234 205.675 107.954 205.314C108.673 204.953 108.673 204.232 107.954 203.871C107.234 203.511 106.154 203.511 105.435 203.871Z" fill="#1B1F20"/>
<path d="M98.7775 200.085C98.0578 200.445 98.0578 201.167 98.7775 201.527C99.4972 201.888 100.577 201.888 101.296 201.527C102.016 201.167 102.016 200.445 101.296 200.085C100.577 199.724 99.4972 199.724 98.7775 200.085Z" fill="#1B1F20"/>
<path d="M92.3002 196.298C91.5805 196.659 91.5805 197.38 92.3002 197.741C93.0199 198.101 94.0994 198.101 94.8191 197.741C95.5388 197.38 95.5388 196.659 94.8191 196.298C94.0994 195.937 93.0199 195.937 92.3002 196.298Z" fill="#1B1F20"/>
<path d="M121.088 203.871C120.368 203.511 119.289 203.511 118.569 203.871C117.849 204.232 117.849 204.953 118.569 205.314C119.289 205.675 120.368 205.675 121.088 205.314C121.628 204.953 121.628 204.412 121.088 203.871Z" fill="#1B1F20"/>
<path d="M111.912 200.085C111.192 200.445 111.192 201.167 111.912 201.527C112.632 201.888 113.711 201.888 114.431 201.527C115.151 201.167 115.151 200.445 114.431 200.085C113.711 199.724 112.632 199.724 111.912 200.085Z" fill="#1B1F20"/>
<path d="M105.435 196.298C104.715 196.659 104.715 197.38 105.435 197.741C106.154 198.101 107.234 198.101 107.954 197.741C108.673 197.38 108.673 196.659 107.954 196.298C107.234 195.937 106.154 195.937 105.435 196.298Z" fill="#1B1F20"/>
<path d="M127.565 200.085C126.846 199.724 125.766 199.724 125.046 200.085C124.327 200.445 124.327 201.167 125.046 201.527C125.766 201.888 126.846 201.888 127.565 201.527C128.285 201.167 128.285 200.626 127.565 200.085Z" fill="#1B1F20"/>
<path d="M118.569 196.298C117.849 196.659 117.849 197.38 118.569 197.741C119.289 198.101 120.368 198.101 121.088 197.741C121.808 197.38 121.808 196.659 121.088 196.298C120.368 195.937 119.109 195.937 118.569 196.298Z" fill="#1B1F20"/>
<path d="M134.043 196.298C133.323 195.937 132.243 195.937 131.524 196.298C130.804 196.659 130.804 197.38 131.524 197.741C132.243 198.101 133.323 198.101 134.043 197.741C134.762 197.38 134.762 196.839 134.043 196.298Z" fill="#1B1F20"/>
<path d="M106.154 128.565L231.92 55.7176L137.641 1.082L11.8748 73.9295L106.154 128.565Z" fill="#00B6DA"/>
<path d="M231.92 55.7174V152.907L106.154 225.575V128.565L231.92 55.7174Z" fill="#00B6DA"/>
<path d="M106.154 140.466L231.92 67.7987L137.641 13.1631L11.8748 86.0106L106.154 140.466Z" fill="#CCF7FF"/>
<path d="M137.281 0.360631L137.641 0L233 55.1766V153.449L106.154 226.837L11.3351 172.021L10.7953 171.66V73.3884L137.281 0.360631ZM107.234 223.952L231.021 152.367V57.5207L170.207 92.6822L107.234 129.106V223.952ZM229.941 55.7175L137.641 2.3441L14.034 73.9294L106.154 127.303L229.941 55.7175Z" fill="#1B1F20"/>
<path d="M204.213 161.743L216.447 154.53C218.966 153.088 221.125 149.121 221.125 145.695V133.073C221.125 129.647 219.146 128.204 216.447 129.647L204.213 136.859C201.694 138.302 199.535 142.269 199.535 145.695V158.317C199.714 161.563 201.694 163.185 204.213 161.743Z" fill="#CCF7FF"/>
<path d="M206.731 158.678L218.426 152.006C221.485 150.203 224.004 145.875 224.004 142.269V128.745C224.004 125.139 221.485 123.696 218.426 125.5L206.731 132.171C203.673 133.974 201.154 138.302 201.154 141.908V155.432C201.154 159.038 203.673 160.481 206.731 158.678ZM218.426 127.122C220.765 125.68 222.744 126.942 222.744 129.647V143.171C222.744 145.875 220.765 149.301 218.426 150.563L206.731 157.235C204.392 158.678 202.413 157.415 202.413 154.711V141.187C202.413 138.482 204.392 135.056 206.731 133.794L218.426 127.122Z" fill="#1B1F20"/>
<path d="M206.371 145.154C206.012 145.334 205.652 145.154 205.832 144.613C206.551 141.367 208.89 137.941 211.589 136.318C214.288 134.696 216.627 135.597 217.347 137.941C217.527 138.302 217.167 138.843 216.807 139.023L206.371 145.154Z" fill="#00B6DA"/>
<path d="M207.451 143.892L217.886 137.941C218.246 137.761 218.606 137.22 218.786 136.859C218.966 136.318 219.146 135.958 218.966 135.597C218.066 132.892 215.547 132.171 212.669 133.794C209.79 135.417 207.091 139.203 206.371 142.99C206.191 143.531 206.371 143.892 206.551 144.072C206.731 144.072 207.091 144.072 207.451 143.892ZM217.707 136.499L207.451 142.449C208.171 139.564 210.33 136.499 212.669 135.237C215.008 133.794 216.987 134.335 217.707 136.499Z" fill="#1B1F20"/>
<path d="M213.928 149.842C215.008 149.121 215.907 147.678 215.907 146.236V145.334L214.648 146.056V146.957C214.648 147.498 214.288 148.039 213.928 148.219C213.568 148.4 213.209 148.219 213.209 147.859V139.745L211.949 140.466V148.58C211.949 150.023 212.849 150.563 213.928 149.842Z" fill="#1B1F20"/>
<path d="M177.044 177.43L189.279 170.218C191.798 168.775 193.957 164.808 193.957 161.382V148.76C193.957 145.334 191.978 143.892 189.279 145.334L177.044 152.547C174.525 153.989 172.366 157.956 172.366 161.382V174.004C172.366 177.43 174.525 178.873 177.044 177.43Z" fill="#CCF7FF"/>
<path d="M179.563 174.545L191.258 167.693C194.317 165.89 196.835 161.563 196.835 157.956V144.433C196.835 140.826 194.317 139.384 191.258 141.187L179.563 147.859C176.504 149.662 173.985 153.989 173.985 157.596V171.3C173.985 174.726 176.504 176.348 179.563 174.545ZM191.258 142.81C193.597 141.367 195.576 142.63 195.576 145.334V158.858C195.576 161.563 193.597 164.989 191.258 166.251L179.563 172.923C177.224 174.365 175.245 173.103 175.245 170.398V156.874C175.245 154.17 177.224 150.744 179.563 149.481L191.258 142.81Z" fill="#1B1F20"/>
<path d="M178.123 162.284L183.521 152.367C183.881 151.645 184.421 151.285 184.781 151.645L190.178 155.252C190.358 155.432 190.178 155.973 189.818 156.153L187.299 157.596C186.94 157.776 186.76 158.317 186.76 158.678V166.251C186.76 166.612 186.4 167.152 186.22 167.333L181.902 169.857C181.542 170.038 181.362 169.857 181.362 169.497V161.923C181.362 161.563 181.002 161.382 180.822 161.563L178.303 163.005C177.943 163.005 177.764 162.645 178.123 162.284Z" fill="#00B6DA"/>
<path d="M183.341 168.415L187.479 165.89C188.199 165.53 188.739 164.448 188.739 163.727V156.153L191.258 154.711C191.618 154.53 191.977 153.99 192.157 153.449C192.337 152.908 192.157 152.547 191.977 152.367L186.58 148.76C186.22 148.58 185.86 148.58 185.5 148.76C185.14 148.941 184.601 149.482 184.421 150.023L179.023 159.94C178.663 160.481 178.663 161.022 178.843 161.382C179.023 161.743 179.383 161.743 179.743 161.563L182.262 160.12V167.693C182.082 168.415 182.621 168.775 183.341 168.415ZM190.538 153.629L188.739 154.711C188.019 155.071 187.479 156.153 187.479 156.875V164.448L183.341 166.792V159.219C183.341 158.497 182.801 158.137 182.082 158.497L180.282 159.579L185.32 150.383C185.32 150.203 185.5 150.203 185.5 150.203H185.68L190.538 153.629Z" fill="#1B1F20"/>
<path d="M44.2607 130.729V117.205C44.2607 113.599 41.7418 109.271 38.6831 107.468L26.9882 100.796C23.9295 98.9932 21.4106 100.436 21.4106 104.042V117.566C21.4106 121.172 23.9295 125.5 26.9882 127.303L38.6831 133.974C41.7418 135.597 44.2607 134.155 44.2607 130.729ZM38.6831 109.091C41.0221 110.533 43.0013 113.779 43.0013 116.484V130.007C43.0013 132.712 41.0221 133.794 38.6831 132.532L26.9882 125.86C24.6492 124.418 22.67 121.172 22.67 118.467V104.944C22.67 102.239 24.6492 101.157 26.9882 102.419L38.6831 109.091Z" fill="#CCF7FF"/>
<path d="M36.1644 127.122V119.549L38.6833 120.811C39.0432 120.992 39.403 120.992 39.5829 120.631C39.7629 120.27 39.5829 119.729 39.403 119.188L34.0053 109.271C33.6455 108.73 33.2856 108.37 32.9258 108.009C32.566 107.829 32.0262 107.648 31.8462 108.009L26.4486 111.615C26.0887 111.796 26.0887 112.336 26.2686 112.697C26.4486 113.238 26.8084 113.779 27.1683 113.959L29.6872 115.402V122.975C29.6872 123.696 30.2269 124.778 30.9466 125.139L35.2648 127.663C35.6246 128.204 36.1644 127.844 36.1644 127.122ZM32.5659 109.632H32.7459C32.7459 109.632 32.9258 109.632 32.9258 109.812L37.9636 119.008L36.1644 117.926C35.4447 117.566 34.9049 117.926 34.9049 118.648V126.221L30.7667 123.877V116.303C30.7667 115.582 30.2269 114.5 29.5073 114.14L27.708 113.058L32.5659 109.632Z" fill="#CCF7FF"/>
<path d="M146.817 34.8009L165.709 45.6199L143.399 58.6026L124.507 47.7837L146.817 34.8009ZM143.578 53.0128L156.173 45.8002L146.637 40.2104L134.043 47.423L143.578 53.0128Z" fill="#00B6DA"/>
<path d="M143.579 54.2749L158.152 45.8001L146.637 39.1284L132.064 47.6033L143.579 54.2749ZM154.194 45.8001L143.579 51.9308L136.022 47.6033L146.637 41.2922L154.194 45.8001Z" fill="#00B6DA"/>
<path d="M143.219 59.6845L167.508 45.6199L146.637 33.5388L122.348 47.6034L143.219 59.6845ZM163.73 45.6199L143.399 57.3404L126.486 47.6034L146.817 35.8829L163.73 45.6199Z" fill="#1B1F20"/>
<path d="M177.584 60.0453C182.262 60.0453 186.94 58.9634 190.358 56.9799C193.957 54.8161 195.936 52.1114 195.936 49.046C195.936 45.9806 193.957 43.0956 190.358 41.1121C183.341 36.9649 171.826 36.9649 164.629 41.1121C161.031 43.2759 159.052 45.9806 159.052 49.046C159.052 52.1114 161.031 54.9964 164.629 56.9799C168.228 59.1437 172.906 60.0453 177.584 60.0453ZM177.584 39.8499C181.902 39.8499 186.22 40.7515 189.459 42.735C192.518 44.5381 194.137 46.7019 194.137 49.046C194.137 51.3901 192.518 53.5539 189.459 55.3571C182.982 59.1437 172.366 59.1437 165.709 55.3571C162.65 53.5539 161.031 51.3901 161.031 49.046C161.031 46.7019 162.65 44.5381 165.709 42.735C168.948 40.7515 173.266 39.8499 177.584 39.8499Z" fill="#1B1F20"/>
<path d="M177.584 56.98C180.823 56.98 184.241 56.2587 186.76 54.8162C189.459 53.3737 190.898 51.2099 190.898 49.0461C190.898 46.8823 189.459 44.7185 186.76 43.276C181.722 40.391 173.626 40.391 168.588 43.276C165.889 44.7185 164.45 46.8823 164.45 49.0461C164.45 51.2099 165.889 53.3737 168.588 54.8162C170.927 56.2587 174.345 56.98 177.584 56.98ZM177.584 42.9154C180.463 42.9154 183.521 43.6366 185.68 44.8988C187.66 45.9807 188.739 47.4233 188.739 49.0461C188.739 50.4886 187.66 52.1115 185.68 53.1934C181.182 55.7178 173.985 55.7178 169.487 53.1934C167.508 52.1115 166.429 50.6689 166.429 49.0461C166.429 47.6036 167.508 45.9807 169.487 44.8988C171.646 43.6366 174.705 42.9154 177.584 42.9154Z" fill="#1B1F20"/>
<path d="M52.8972 51.5704L145.198 104.583L171.286 89.4367L78.986 36.4239L52.8972 51.5704Z" fill="#00B6DA"/>
<path d="M152.574 102.6L180.822 86.1909L84.5636 30.834L56.3157 47.2428L152.574 102.6ZM176.864 86.1909L152.754 100.256L60.4539 47.2428L84.5636 33.1781L176.864 86.1909Z" fill="#1B1F20"/>
<path d="M172.906 91.2396V129.827L146.637 145.515V106.386L172.906 91.2396Z" fill="#00B6DA"/>
<path d="M151.675 142.449L179.923 125.5V84.5679L151.675 100.977V142.449ZM177.764 124.237L153.654 138.843V102.059L177.764 87.9939V124.237Z" fill="#1B1F20"/>
<path d="M132.783 182.66L158.692 167.513V127.663L132.783 142.63V182.66Z" fill="#00B6DA"/>
<path d="M132.063 183.922L159.592 168.054V126.221L132.063 142.089V183.922ZM157.972 167.153L133.683 181.217V143.171L157.972 129.106V167.153Z" fill="#1B1F20"/>
<path d="M135.482 177.43L152.575 167.513V138.843L135.482 148.76V177.43Z" fill="#CCF7FF"/>
<path d="M136.561 175.808L155.273 164.989V134.516L136.561 145.334V175.808ZM153.474 164.087L138.001 173.103V146.236L153.474 137.22V164.087Z" fill="#1B1F20"/>
<path d="M131.524 190.053C138.361 186.086 143.938 176.349 143.938 168.415C143.938 160.481 138.361 157.235 131.524 161.202C124.686 165.169 119.109 174.906 119.109 182.84C119.109 190.774 124.686 194.019 131.524 190.053ZM131.524 163.005C137.641 159.399 142.499 162.284 142.499 169.316C142.499 176.349 137.461 185.004 131.524 188.43C125.406 192.036 120.548 189.151 120.548 182.119C120.548 175.086 125.586 166.431 131.524 163.005Z" fill="#1B1F20"/>
<path d="M131.524 186.446C136.561 183.561 140.7 176.349 140.7 170.579C140.7 164.808 136.561 162.284 131.524 165.349C126.486 168.234 122.348 175.447 122.348 181.217C122.348 186.987 126.486 189.331 131.524 186.446ZM131.524 166.792C135.842 164.268 139.44 166.431 139.44 171.3C139.44 176.349 136.022 182.299 131.704 184.823C127.385 187.348 123.967 185.364 123.967 180.316C123.787 175.447 127.385 169.316 131.524 166.792Z" fill="#1B1F20"/>
<path d="M58.295 100.255L183.701 27.2277L182.082 25.7852L56.3159 98.9933L58.295 100.255Z" fill="#1B1F20"/>
<path d="M56.4957 197.265L58.6548 198.347V100.075L56.4957 98.813V197.265Z" fill="#CCF7FF"/>
</g>
<defs>
<clipPath id="clip0_475_3083">
<rect width="233" height="244" fill="white" transform="matrix(-1 0 0 1 233 0)"/>
</clipPath>
</defs>
</svg>
