<svg width="96" height="96" viewBox="0 0 96 96" fill="none" xmlns="http://www.w3.org/2000/svg">
<path d="M90.7934 58.2834L83.9934 45.0854C83.6693 44.4566 83.0157 44.0606 82.3015 44.0606H48.0002H13.6986C12.9844 44.0606 12.3307 44.4566 12.0067 45.0854L5.20661 58.2834C4.90703 58.8651 4.93475 59.5586 5.27989 60.115C5.62503 60.6714 6.23804 61.0104 6.89832 61.0104H9.26797V94.1239C9.26797 95.1597 10.1179 95.9998 11.1664 95.9998H84.8277C85.8762 95.9998 86.7262 95.1597 86.7262 94.1239V61.0106H89.1013C89.7618 61.0106 90.3748 60.6714 90.7198 60.1152C91.0653 59.5586 91.093 58.8651 90.7934 58.2834ZM81.1377 47.8125L86.0048 57.2586H55.964L51.097 47.8125H81.1377ZM14.8625 47.8125H44.9033L40.0362 57.2586H9.99546L14.8625 47.8125ZM82.9296 92.2479H49.8987V81.8509C49.8987 80.815 49.0487 79.975 48.0002 79.975C46.9517 79.975 46.1018 80.815 46.1018 81.8509V92.2479H13.0653V61.0106H41.2001C41.9143 61.0106 42.568 60.6148 42.892 59.9858L46.1018 53.756V65.0052C46.1018 66.0411 46.9517 66.8812 48.0002 66.8812C49.0487 66.8812 49.8987 66.0411 49.8987 65.0052V53.756L53.1084 59.9858C53.4324 60.6148 54.0861 61.0106 54.8003 61.0106H82.9296V92.2479Z" fill="#1B1F20"/>
<path d="M31.766 81.9745H20.9558C19.9073 81.9745 19.0574 82.8146 19.0574 83.8505C19.0574 84.8864 19.9073 85.7264 20.9558 85.7264H31.766C32.8145 85.7264 33.6644 84.8864 33.6644 83.8505C33.6644 82.8146 32.8145 81.9745 31.766 81.9745Z" fill="#1B1F20"/>
<path d="M48.0002 38.5444C58.7424 38.5444 67.4821 29.8977 67.4821 19.2696C67.4819 8.64431 58.7424 0 48.0002 0C37.2549 0 28.5129 8.64431 28.5129 19.2696C28.5129 29.8977 37.2547 38.5444 48.0002 38.5444ZM48.0002 3.75187C56.6489 3.75187 63.6852 10.7131 63.6852 19.2696C63.6852 27.8291 56.6489 34.7926 48.0002 34.7926C39.3485 34.7926 32.3098 27.8291 32.3098 19.2696C32.3098 10.7131 39.3484 3.75187 48.0002 3.75187Z" fill="#00B6DA"/>
<path d="M39.4887 22.0833L44.5418 26.3158C44.886 26.6041 45.3215 26.7607 45.7694 26.7607C45.8233 26.7607 45.8774 26.7585 45.9315 26.754C46.4354 26.7112 46.901 26.4718 47.2255 26.0886L56.7348 14.8581C57.4077 14.0637 57.3012 12.8805 56.4972 12.2155C55.693 11.551 54.4958 11.6559 53.823 12.4505L45.5397 22.233L41.9442 19.2212C41.1444 18.5513 39.9462 18.6484 39.2685 19.4391C38.5902 20.2297 38.6889 21.4132 39.4887 22.0833Z" fill="#00B6DA"/>
<path d="M10.7046 21.1457H18.9185C19.967 21.1457 20.8169 20.3056 20.8169 19.2697C20.8169 18.2338 19.967 17.3938 18.9185 17.3938H10.7046C9.65609 17.3938 8.80615 18.2338 8.80615 19.2697C8.80615 20.3056 9.65609 21.1457 10.7046 21.1457Z" fill="#1B1F20"/>
<path d="M9.81905 8.09225L18.0329 12.3729C18.3154 12.5202 18.6182 12.59 18.917 12.59C19.5985 12.59 20.2577 12.2262 20.5979 11.5888C21.0869 10.6724 20.7317 9.53765 19.8043 9.05441L11.5903 4.77372C10.6633 4.29048 9.51454 4.64128 9.02549 5.55786C8.53645 6.47425 8.89165 7.60901 9.81905 8.09225Z" fill="#1B1F20"/>
<path d="M9.02474 32.9805C9.36475 33.6183 10.0239 33.9826 10.706 33.9826C11.0043 33.9826 11.3071 33.913 11.5892 33.7661L19.803 29.4908C20.7306 29.008 21.0866 27.8734 20.5979 26.9568C20.1092 26.0401 18.9611 25.6885 18.0335 26.1712L9.81962 30.4464C8.89204 30.9293 8.53627 32.0639 9.02474 32.9805Z" fill="#1B1F20"/>
<path d="M77.0767 21.1457H85.2905C86.339 21.1457 87.189 20.3056 87.189 19.2697C87.189 18.2338 86.339 17.3938 85.2905 17.3938H77.0767C76.0282 17.3938 75.1782 18.2338 75.1782 19.2697C75.1782 20.3056 76.0282 21.1457 77.0767 21.1457Z" fill="#1B1F20"/>
<path d="M77.0783 12.5897C77.3769 12.5897 77.6799 12.5199 77.9624 12.3726L86.1762 8.09195C87.1036 7.60871 87.4588 6.47395 86.9698 5.55756C86.4805 4.64117 85.3323 4.28981 84.4049 4.77342L76.1911 9.05411C75.2637 9.53735 74.9085 10.6721 75.3976 11.5885C75.7378 12.2259 76.3965 12.5897 77.0783 12.5897Z" fill="#1B1F20"/>
<path d="M76.1918 29.4905L84.4056 33.7657C84.6879 33.9126 84.9905 33.9822 85.2888 33.9822C85.9709 33.9822 86.63 33.6181 86.97 32.9801C87.4587 32.0635 87.1027 30.9289 86.1752 30.4461L77.9613 26.1708C77.0335 25.6879 75.8856 26.0395 75.3969 26.9565C74.9082 27.873 75.2642 29.0076 76.1918 29.4905Z" fill="#1B1F20"/>
<path d="M48.0003 71.5522C46.9517 71.5522 46.1018 72.3922 46.1018 73.4281V73.4388C46.1018 74.4747 46.9517 75.3095 48.0003 75.3095C49.0488 75.3095 49.8987 74.4642 49.8987 73.4283C49.8987 72.3924 49.0488 71.5522 48.0003 71.5522Z" fill="#1B1F20"/>
</svg>
