<svg width="96" height="96" viewBox="0 0 96 96" fill="none" xmlns="http://www.w3.org/2000/svg">
<path d="M22.4386 91.4915C23.2175 91.4915 23.8484 90.8609 23.8484 90.0823V72.0472C23.8484 71.2693 23.2175 70.638 22.4386 70.638C21.6597 70.638 21.0288 71.2693 21.0288 72.0472V90.0823C21.0288 90.8609 21.6597 91.4915 22.4386 91.4915Z" fill="#1B1F20"/>
<path d="M28.453 91.4915C29.2319 91.4915 29.8628 90.8609 29.8628 90.0823V72.0472C29.8628 71.2693 29.2319 70.638 28.453 70.638C27.6741 70.638 27.0432 71.2693 27.0432 72.0472V90.0823C27.0432 90.8609 27.6741 91.4915 28.453 91.4915Z" fill="#1B1F20"/>
<path d="M34.4674 91.4915C35.2463 91.4915 35.8772 90.8609 35.8772 90.0823V72.0472C35.8772 71.2693 35.2463 70.638 34.4674 70.638C33.6885 70.638 33.0576 71.2693 33.0576 72.0472V90.0823C33.0576 90.8609 33.6885 91.4915 34.4674 91.4915Z" fill="#1B1F20"/>
<path d="M40.4821 91.4915C41.261 91.4915 41.8919 90.8609 41.8919 90.0823V72.0472C41.8919 71.2693 41.261 70.638 40.4821 70.638C39.7032 70.638 39.0723 71.2693 39.0723 72.0472V90.0823C39.0723 90.8609 39.7032 91.4915 40.4821 91.4915Z" fill="#1B1F20"/>
<path d="M46.4965 91.4915C47.2754 91.4915 47.9063 90.8609 47.9063 90.0823V72.0472C47.9063 71.2693 47.2754 70.638 46.4965 70.638C45.7176 70.638 45.0867 71.2693 45.0867 72.0472V90.0823C45.0867 90.8609 45.7176 91.4915 46.4965 91.4915Z" fill="#1B1F20"/>
<path d="M52.5106 91.4915C53.2896 91.4915 53.9205 90.8609 53.9205 90.0823V72.0472C53.9205 71.2693 53.2896 70.638 52.5106 70.638C51.7317 70.638 51.1008 71.2693 51.1008 72.0472V90.0823C51.1008 90.8609 51.7317 91.4915 52.5106 91.4915Z" fill="#1B1F20"/>
<path d="M58.5253 91.4915C59.3042 91.4915 59.9351 90.8609 59.9351 90.0823V72.0472C59.9351 71.2693 59.3042 70.638 58.5253 70.638C57.7464 70.638 57.1155 71.2693 57.1155 72.0472V90.0823C57.1155 90.8609 57.7464 91.4915 58.5253 91.4915Z" fill="#1B1F20"/>
<path d="M64.5397 91.4915C65.3186 91.4915 65.9495 90.8609 65.9495 90.0823V72.0472C65.9495 71.2693 65.3186 70.638 64.5397 70.638C63.7608 70.638 63.1299 71.2693 63.1299 72.0472V90.0823C63.1299 90.8609 63.7608 91.4915 64.5397 91.4915Z" fill="#1B1F20"/>
<path d="M70.5541 73.4564H70.6479V75.053C70.6479 75.8316 71.2788 76.4622 72.0577 76.4622C72.8366 76.4622 73.4675 75.8316 73.4675 75.053V72.0472C73.4675 71.2693 72.8366 70.638 72.0577 70.638H70.5541C69.7752 70.638 69.1443 71.2693 69.1443 72.0472C69.1443 72.8257 69.7752 73.4564 70.5541 73.4564Z" fill="#1B1F20"/>
<path d="M16.4244 70.638H14.9208C14.1419 70.638 13.511 71.2693 13.511 72.0472V75.053C13.511 75.8316 14.1419 76.4622 14.9208 76.4622C15.699 76.4622 16.3306 75.8316 16.3306 75.053V73.4564H16.4244C17.2026 73.4564 17.8342 72.8257 17.8342 72.0472C17.8342 71.2693 17.2026 70.638 16.4244 70.638Z" fill="#1B1F20"/>
<path d="M70.5541 91.4912H72.0577C72.8366 91.4912 73.4675 90.8606 73.4675 90.082V87.0762C73.4675 86.2983 72.8366 85.667 72.0577 85.667C71.2788 85.667 70.6479 86.2983 70.6479 87.0762V88.6729H70.5541C69.7752 88.6729 69.1443 89.3042 69.1443 90.082C69.1443 90.8606 69.7752 91.4912 70.5541 91.4912Z" fill="#1B1F20"/>
<path d="M16.4244 88.6729H16.3306V87.0762C16.3306 86.2983 15.699 85.667 14.9208 85.667C14.1419 85.667 13.511 86.2983 13.511 87.0762V90.082C13.511 90.8606 14.1419 91.4912 14.9208 91.4912H16.4244C17.2026 91.4912 17.8342 90.8606 17.8342 90.082C17.8342 89.3042 17.2026 88.6729 16.4244 88.6729Z" fill="#1B1F20"/>
<path d="M85.5902 39.0762H77.9784V24.2974C77.9784 23.5195 77.3475 22.8889 76.5685 22.8889C75.7896 22.8889 75.1587 23.5195 75.1587 24.2974V39.0762H11.8196V14.8418H75.1587V17.5964C75.1587 18.375 75.7896 19.0056 76.5685 19.0056C77.3475 19.0056 77.9784 18.375 77.9784 17.5964V13.4326C77.9784 12.6541 77.3475 12.0234 76.5685 12.0234H69.2139L47.1771 6.84082C47.6373 6.14429 47.9062 5.31079 47.9062 4.41504C47.9062 1.98047 45.9248 0 43.4892 0C41.0535 0 39.0721 1.98047 39.0721 4.41504C39.0721 5.31079 39.3411 6.14429 39.8012 6.84082L17.7637 12.0234H10.4098C9.6309 12.0234 9 12.6541 9 13.4326V40.4854C9 41.2632 9.6309 41.8945 10.4098 41.8945H18.0216V66.1289H10.4098C9.6309 66.1289 9 66.7603 9 67.5381V94.5908C9 95.3694 9.6309 96 10.4098 96H76.5685C77.3475 96 77.9784 95.3694 77.9784 94.5908V68.9473H85.5902C86.3691 68.9473 87 68.3167 87 67.5381V40.4854C87 39.7075 86.3691 39.0762 85.5902 39.0762ZM43.4892 2.81836C44.3699 2.81836 45.0866 3.53467 45.0866 4.41504C45.0866 5.29541 44.3699 6.01172 43.4892 6.01172C42.6084 6.01172 41.8918 5.29541 41.8918 4.41504C41.8918 3.53467 42.6084 2.81836 43.4892 2.81836ZM43.4892 8.86816L56.9051 12.0234H30.0732L43.4892 8.86816ZM75.1587 93.1816H11.8196V68.9473H75.1587V93.1816ZM84.1804 66.1289H20.8413V41.8945H84.1804V66.1289Z" fill="#1B1F20"/>
<path d="M31.4601 43.5851C30.6812 43.5851 30.0503 44.2164 30.0503 44.9943V63.0294C30.0503 63.808 30.6812 64.4386 31.4601 64.4386C32.239 64.4386 32.8699 63.808 32.8699 63.0294V44.9943C32.8699 44.2164 32.239 43.5851 31.4601 43.5851Z" fill="#1B1F20"/>
<path d="M37.4748 43.5851C36.6958 43.5851 36.0649 44.2164 36.0649 44.9943V63.0294C36.0649 63.808 36.6958 64.4386 37.4748 64.4386C38.2537 64.4386 38.8846 63.808 38.8846 63.0294V44.9943C38.8846 44.2164 38.2537 43.5851 37.4748 43.5851Z" fill="#1B1F20"/>
<path d="M43.4889 43.5851C42.71 43.5851 42.0791 44.2164 42.0791 44.9943V63.0294C42.0791 63.808 42.71 64.4386 43.4889 64.4386C44.2678 64.4386 44.8987 63.808 44.8987 63.0294V44.9943C44.8987 44.2164 44.2678 43.5851 43.4889 43.5851Z" fill="#1B1F20"/>
<path d="M49.5036 43.5851C48.7246 43.5851 48.0938 44.2164 48.0938 44.9943V63.0294C48.0938 63.808 48.7246 64.4386 49.5036 64.4386C50.2825 64.4386 50.9134 63.808 50.9134 63.0294V44.9943C50.9134 44.2164 50.2825 43.5851 49.5036 43.5851Z" fill="#1B1F20"/>
<path d="M55.518 43.5851C54.7391 43.5851 54.1082 44.2164 54.1082 44.9943V63.0294C54.1082 63.808 54.7391 64.4386 55.518 64.4386C56.2969 64.4386 56.9278 63.808 56.9278 63.0294V44.9943C56.9278 44.2164 56.2969 43.5851 55.518 43.5851Z" fill="#1B1F20"/>
<path d="M61.5324 43.5851C60.7535 43.5851 60.1226 44.2164 60.1226 44.9943V63.0294C60.1226 63.808 60.7535 64.4386 61.5324 64.4386C62.3113 64.4386 62.9422 63.808 62.9422 63.0294V44.9943C62.9422 44.2164 62.3113 43.5851 61.5324 43.5851Z" fill="#1B1F20"/>
<path d="M67.5468 43.5851C66.7679 43.5851 66.137 44.2164 66.137 44.9943V63.0294C66.137 63.808 66.7679 64.4386 67.5468 64.4386C68.3257 64.4386 68.9566 63.808 68.9566 63.0294V44.9943C68.9566 44.2164 68.3257 43.5851 67.5468 43.5851Z" fill="#1B1F20"/>
<path d="M73.5612 43.5851C72.7823 43.5851 72.1514 44.2164 72.1514 44.9943V63.0294C72.1514 63.808 72.7823 64.4386 73.5612 64.4386C74.3401 64.4386 74.971 63.808 74.971 63.0294V44.9943C74.971 44.2164 74.3401 43.5851 73.5612 43.5851Z" fill="#1B1F20"/>
<path d="M79.5756 46.4034H79.6694V48.0001C79.6694 48.778 80.3003 49.4093 81.0792 49.4093C81.8581 49.4093 82.489 48.778 82.489 48.0001V44.9943C82.489 44.2164 81.8581 43.5851 81.0792 43.5851H79.5756C78.7967 43.5851 78.1658 44.2164 78.1658 44.9943C78.1658 45.7721 78.7967 46.4034 79.5756 46.4034Z" fill="#00B6DA"/>
<path d="M25.4459 43.5851H23.9423C23.1634 43.5851 22.5325 44.2164 22.5325 44.9943V48.0001C22.5325 48.778 23.1634 49.4093 23.9423 49.4093C24.7212 49.4093 25.3521 48.778 25.3521 48.0001V46.4034H25.4459C26.2248 46.4034 26.8557 45.7721 26.8557 44.9943C26.8557 44.2164 26.2248 43.5851 25.4459 43.5851Z" fill="#00B6DA"/>
<path d="M79.5756 64.4384H81.0792C81.8581 64.4384 82.489 63.8077 82.489 63.0292V60.0233C82.489 59.2455 81.8581 58.6141 81.0792 58.6141C80.3003 58.6141 79.6694 59.2455 79.6694 60.0233V61.62H79.5756C78.7967 61.62 78.1658 62.2513 78.1658 63.0292C78.1658 63.8077 78.7967 64.4384 79.5756 64.4384Z" fill="#00B6DA"/>
<path d="M25.4459 61.62H25.3521V60.0233C25.3521 59.2455 24.7212 58.6141 23.9423 58.6141C23.1634 58.6141 22.5325 59.2455 22.5325 60.0233V63.0292C22.5325 63.8077 23.1634 64.4384 23.9423 64.4384H25.4459C26.2248 64.4384 26.8557 63.8077 26.8557 63.0292C26.8557 62.2513 26.2248 61.62 25.4459 61.62Z" fill="#00B6DA"/>
<path d="M21.0288 17.9415V35.9766C21.0288 36.7545 21.6597 37.3858 22.4386 37.3858C23.2175 37.3858 23.8484 36.7545 23.8484 35.9766V17.9415C23.8484 17.1629 23.2175 16.5323 22.4386 16.5323C21.6597 16.5323 21.0288 17.1629 21.0288 17.9415Z" fill="#1B1F20"/>
<path d="M27.0432 17.9415V35.9766C27.0432 36.7545 27.6741 37.3858 28.453 37.3858C29.2319 37.3858 29.8628 36.7545 29.8628 35.9766V17.9415C29.8628 17.1629 29.2319 16.5323 28.453 16.5323C27.6741 16.5323 27.0432 17.1629 27.0432 17.9415Z" fill="#1B1F20"/>
<path d="M33.0576 17.9415V35.9766C33.0576 36.7545 33.6885 37.3858 34.4674 37.3858C35.2463 37.3858 35.8772 36.7545 35.8772 35.9766V17.9415C35.8772 17.1629 35.2463 16.5323 34.4674 16.5323C33.6885 16.5323 33.0576 17.1629 33.0576 17.9415Z" fill="#1B1F20"/>
<path d="M39.0723 17.9415V35.9766C39.0723 36.7545 39.7032 37.3858 40.4821 37.3858C41.261 37.3858 41.8919 36.7545 41.8919 35.9766V17.9415C41.8919 17.1629 41.261 16.5323 40.4821 16.5323C39.7032 16.5323 39.0723 17.1629 39.0723 17.9415Z" fill="#1B1F20"/>
<path d="M45.0867 17.9415V35.9766C45.0867 36.7545 45.7176 37.3858 46.4965 37.3858C47.2754 37.3858 47.9063 36.7545 47.9063 35.9766V17.9415C47.9063 17.1629 47.2754 16.5323 46.4965 16.5323C45.7176 16.5323 45.0867 17.1629 45.0867 17.9415Z" fill="#1B1F20"/>
<path d="M51.1008 17.9415V35.9766C51.1008 36.7545 51.7317 37.3858 52.5106 37.3858C53.2896 37.3858 53.9205 36.7545 53.9205 35.9766V17.9415C53.9205 17.1629 53.2896 16.5323 52.5106 16.5323C51.7317 16.5323 51.1008 17.1629 51.1008 17.9415Z" fill="#1B1F20"/>
<path d="M57.1155 17.9415V35.9766C57.1155 36.7545 57.7464 37.3858 58.5253 37.3858C59.3042 37.3858 59.9351 36.7545 59.9351 35.9766V17.9415C59.9351 17.1629 59.3042 16.5323 58.5253 16.5323C57.7464 16.5323 57.1155 17.1629 57.1155 17.9415Z" fill="#1B1F20"/>
<path d="M63.1299 17.9415V35.9766C63.1299 36.7545 63.7608 37.3858 64.5397 37.3858C65.3186 37.3858 65.9495 36.7545 65.9495 35.9766V17.9415C65.9495 17.1629 65.3186 16.5323 64.5397 16.5323C63.7608 16.5323 63.1299 17.1629 63.1299 17.9415Z" fill="#1B1F20"/>
<path d="M73.4675 17.9415C73.4675 17.1629 72.8366 16.5323 72.0577 16.5323H70.5541C69.7752 16.5323 69.1443 17.1629 69.1443 17.9415C69.1443 18.7193 69.7752 19.3506 70.5541 19.3506H70.6479V20.9473C70.6479 21.7252 71.2788 22.3565 72.0577 22.3565C72.8366 22.3565 73.4675 21.7252 73.4675 20.9473V17.9415Z" fill="#1B1F20"/>
<path d="M16.4244 16.5323H14.9208C14.1419 16.5323 13.511 17.1629 13.511 17.9415V20.9473C13.511 21.7252 14.1419 22.3565 14.9208 22.3565C15.699 22.3565 16.3306 21.7252 16.3306 20.9473V19.3506H16.4244C17.2026 19.3506 17.8342 18.7193 17.8342 17.9415C17.8342 17.1629 17.2026 16.5323 16.4244 16.5323Z" fill="#1B1F20"/>
<path d="M72.0577 31.5613C71.2788 31.5613 70.6479 32.1919 70.6479 32.9705V34.5671H70.5541C69.7752 34.5671 69.1443 35.1985 69.1443 35.9763C69.1443 36.7542 69.7752 37.3855 70.5541 37.3855H72.0577C72.8366 37.3855 73.4675 36.7542 73.4675 35.9763V32.9705C73.4675 32.1919 72.8366 31.5613 72.0577 31.5613Z" fill="#1B1F20"/>
<path d="M14.9208 31.5613C14.1419 31.5613 13.511 32.1919 13.511 32.9705V35.9763C13.511 36.7542 14.1419 37.3855 14.9208 37.3855H16.4244C17.2026 37.3855 17.8342 36.7542 17.8342 35.9763C17.8342 35.1985 17.2026 34.5671 16.4244 34.5671H16.3306V32.9705C16.3306 32.1919 15.699 31.5613 14.9208 31.5613Z" fill="#1B1F20"/>
</svg>
