<svg width="96" height="96" viewBox="0 0 96 96" fill="none" xmlns="http://www.w3.org/2000/svg">
<path d="M9.60121 60.1918L8.66866 59.2551C8.04195 58.6256 7.02288 58.6256 6.39618 59.2551C5.77341 59.8807 5.77341 60.8919 6.39618 61.5175L8.47001 63.6006C9.09481 64.228 10.1076 64.228 10.7324 63.6006L17.6062 56.696C18.229 56.0705 18.229 55.0592 17.6062 54.4337C16.9795 53.8042 15.9605 53.8042 15.3338 54.4337L9.60121 60.1918Z" fill="#00B6DA"/>
<path d="M40 52.8215H20.8V56.0358H40V52.8215Z" fill="#1B1F20"/>
<path d="M38.4 57.6429H20.8V60.8572H38.4V57.6429Z" fill="#1B1F20"/>
<path d="M40 65.6787H20.8V68.893H40V65.6787Z" fill="#1B1F20"/>
<path d="M38.4 70.5001H20.8V73.7144H38.4V70.5001Z" fill="#1B1F20"/>
<path d="M40 78.5359H20.8V81.7502H40V78.5359Z" fill="#1B1F20"/>
<path d="M38.4 83.3567H20.8V86.571H38.4V83.3567Z" fill="#1B1F20"/>
<path d="M95.5296 16.3264L82.7296 3.46929C82.4298 3.16895 82.0236 3 81.6 3L1.6002 3V3.01446C0.740806 2.99036 0.024608 3.67058 0.000608102 4.53402C8.10366e-06 4.55833 -0.000191896 4.58263 0.000208103 4.60714L0.000208103 91.3929C0.000208103 92.2804 0.716606 93 1.6002 93H43.2001C44.0837 93 44.8001 92.2804 44.8001 91.3929V76.9286H94.4C95.2836 76.9286 96 76.209 96 75.3214V17.4643C96 17.0372 95.8308 16.6278 95.5296 16.3264ZM80.9376 6.21429L90.5376 15.8571H61.4625L51.8625 6.21429H80.9376ZM47.3377 6.21429L56.9377 15.8571H48.6625L39.0625 6.21429H47.3377ZM59.2001 19.0714V31.9286H49.6001V19.0714H59.2001ZM34.5377 6.21429L44.1377 15.8571H15.0626L5.4626 6.21429H34.5377ZM16.0002 41.5714C16.8838 41.5714 17.6002 40.8518 17.6002 39.9643C17.6002 37.3015 19.7492 35.1429 22.4002 35.1429C25.0512 35.1429 27.2002 37.3015 27.2002 39.9643C27.2002 40.8518 27.9165 41.5714 28.8001 41.5714H35.2001V46.3929H9.60019V41.5714H16.0002ZM3.2002 8.48679L12.8002 18.1296V38.3571H8.00019C7.11659 38.3571 6.40019 39.0767 6.40019 39.9643H3.2002L3.2002 8.48679ZM41.6001 89.7857H3.2002V43.1786H6.40019V48C6.40019 48.8875 7.11659 49.6071 8.00019 49.6071H36.8001C37.6837 49.6071 38.4001 48.8875 38.4001 48V43.1786H41.6001V89.7857ZM92.8 73.7143H44.8001V41.5714C44.8001 40.6839 44.0837 39.9643 43.2001 39.9643H38.4001C38.4001 39.0767 37.6837 38.3571 36.8001 38.3571H30.2401C29.3733 34.0217 25.1718 31.2128 20.8556 32.0835C18.9078 32.4764 17.1762 33.5857 16.0002 35.1943V19.0714H46.4001V33.5357C46.4001 34.4233 47.1165 35.1429 48.0001 35.1429H60.8001C61.6837 35.1429 62.4001 34.4233 62.4001 33.5357V19.0714H92.8V73.7143Z" fill="#1B1F20"/>
</svg>
