<svg width="96" height="96" viewBox="0 0 96 96" fill="none" xmlns="http://www.w3.org/2000/svg">
<path d="M94.4 79.8182V48C94.4 47.1214 93.6836 46.4091 92.8 46.4091H72V14.5909C72 13.7123 71.2836 13 70.4 13H25.6C24.7164 13 24 13.7123 24 14.5909V46.4091H3.2C2.3164 46.4091 1.6 47.1214 1.6 48L1.6 79.8182H0L0 83H96V79.8182H94.4ZM76.8 49.5909V55.9545H64V49.5909H76.8ZM41.6 16.1818H54.4V22.5455H41.6V16.1818ZM27.2 16.1818H38.4V24.1364C38.4 25.0149 39.1164 25.7273 40 25.7273H56C56.8836 25.7273 57.6 25.0149 57.6 24.1364V16.1818H68.8V46.4091H27.2V16.1818ZM19.2 49.5909H25.6H32V55.9545H19.2V49.5909ZM46.4 79.8182H4.8L4.8 49.5909H16V57.5455C16 58.424 16.7164 59.1364 17.6 59.1364H33.6C34.4836 59.1364 35.2 58.424 35.2 57.5455V49.5909H46.4V79.8182ZM91.2 79.8182H49.6V49.5909H60.8V57.5455C60.8 58.424 61.5164 59.1364 62.4 59.1364H78.4C79.2836 59.1364 80 58.424 80 57.5455V49.5909H91.2V79.8182Z" fill="white"/>
<path d="M11.2 73.4546H8V76.6364H11.2V73.4546Z" fill="white"/>
<path d="M17.5999 73.4546H14.3999V76.6364H17.5999V73.4546Z" fill="white"/>
<path d="M24 73.4546H20.8V76.6364H24V73.4546Z" fill="white"/>
<path d="M56 73.4546H52.8V76.6364H56V73.4546Z" fill="white"/>
<path d="M62.4 73.4546H59.2V76.6364H62.4V73.4546Z" fill="white"/>
<path d="M68.8001 73.4546H65.6001V76.6364H68.8001V73.4546Z" fill="white"/>
<path d="M33.5999 40.0454H30.3999V43.2272H33.5999V40.0454Z" fill="#CCF7FF"/>
<path d="M40 40.0454H36.8V43.2272H40V40.0454Z" fill="#CCF7FF"/>
<path d="M46.4 40.0454H43.2V43.2272H46.4V40.0454Z" fill="#CCF7FF"/>
</svg>
