<svg width="40" height="40" viewBox="0 0 40 40" fill="none" xmlns="http://www.w3.org/2000/svg">
<path d="M40 16.8714C40 21.291 38.347 31.0371 34.0719 29.9589C31.1234 29.2222 28.9492 27.041 28.7641 24.6949C28.7333 25.0953 28.8059 28.0418 27.6484 30.9988C26.3555 34.3027 24.475 34.9964 23.125 34.9964C22.1086 34.9964 21.2313 34.9964 20.5156 34.7917C19.5796 34.5231 20.4216 34.5228 19.4844 34.7917C18.7687 34.9964 17.8914 34.9964 16.875 34.9964C12.8418 34.9964 11.25 28.9403 11.25 24.9964C11.25 24.8972 11.2438 24.7964 11.2359 24.6949C11.0508 27.041 8.87656 29.2222 5.92812 29.9589C1.66305 31.0347 0 21.3049 0 16.8714C0 11.2886 3.56406 8.74642 6.875 8.74642C8.42758 8.74642 10.2493 4.48916 14.3734 5.56752C17.162 4.81549 22.8342 4.81447 25.6266 5.56752C29.7511 4.48869 31.5681 8.74642 33.125 8.74642C36.4359 8.74642 40 11.2886 40 16.8714Z" fill="#B4B6BD"/>
<path d="M19.9999 32.4964C15.7997 32.4964 15.1697 27.4331 16.6163 25.9878C17.5679 25.0363 19.0202 25.523 20.0007 26.0425C20.9812 25.523 22.4327 25.037 23.3835 25.9878C24.8218 27.4248 24.2158 32.4964 19.9999 32.4964Z" fill="#EB5E28"/>
<path d="M20 31.2464V34.5901C20.8595 35.0261 22.0509 34.9964 23.125 34.9964C27.0641 34.9964 28.6255 29.279 28.7438 25.4089C28.2852 23.9206 27.5156 22.4964 26.25 22.4964C23.75 22.4964 25 31.2464 20 31.2464Z" fill="#A6A9B6"/>
<path d="M20 9.29326C20 9.29326 20.3949 11.6499 21.5798 12.1212C22.7647 12.5926 20 13.5353 20 16.3633C20 19.1912 20 9.29326 20 9.29326Z" fill="#EB5E28"/>
<path d="M23.7499 13.1214C22.4999 13.1214 21.2499 14.9964 22.4999 15.6214C23.7499 16.2464 24.9999 13.1214 23.7499 13.1214Z" fill="#A6A9B6"/>
<path d="M20 31.2464V34.5901C19.1405 35.0261 17.949 34.9964 16.875 34.9964C12.9358 34.9964 11.3745 29.279 11.2562 25.4089C11.7148 23.9206 12.4844 22.4964 13.75 22.4964C16.25 22.4964 15 31.2464 20 31.2464Z" fill="#A6A9B6"/>
<path d="M13.75 17.4965C14.7855 17.4965 15.625 16.657 15.625 15.6215C15.625 14.586 14.7855 13.7465 13.75 13.7465C12.7145 13.7465 11.875 14.586 11.875 15.6215C11.875 16.657 12.7145 17.4965 13.75 17.4965Z" fill="#3A405F"/>
<path d="M33.125 8.74645C31.5656 8.74645 29.7545 4.48833 25.6263 5.56755C22.8401 4.81567 17.1652 4.81427 14.3738 5.56755C10.2481 4.48911 8.43227 8.74645 6.875 8.74645C3.56383 8.74645 0 11.289 0 16.8715C0 21.3034 1.65977 31.0255 5.92812 29.9591C8.87664 29.2219 11.0506 27.0411 11.2356 24.6949C11.2441 24.7963 11.2499 24.897 11.2499 24.9965C11.2499 28.94 12.8411 34.9965 16.8749 34.9965C17.933 34.9965 19.1383 35.0263 19.9999 34.59C20.8635 35.0272 22.0505 34.9965 23.1249 34.9965C27.1691 34.9965 28.7499 28.9141 28.7499 24.9965C28.7499 24.8971 28.7558 24.7963 28.7642 24.6949C28.9493 27.0411 31.1232 29.222 34.0717 29.9591C38.3373 31.0255 40 21.3172 40 16.8715C40 11.289 36.4363 8.74645 33.125 8.74645ZM19.3084 28.5378C19.6237 28.7471 20.0065 28.7969 20.3526 28.6953C20.6828 28.5985 20.8891 28.3513 21.5763 28.0695C21.5852 28.46 21.5091 28.9965 21.2423 29.4072C21.0779 29.6601 20.7702 29.9965 20 29.9965C19.2298 29.9965 18.9221 29.6601 18.7577 29.4072C18.4909 28.9965 18.4148 28.46 18.4236 28.0695C18.6977 28.1818 19.0359 28.3575 19.3084 28.5378ZM36.4749 23.9968C35.6874 26.7104 34.8688 27.4615 34.6666 27.5309C32.5277 26.9919 31.25 25.5025 31.25 24.3715C31.25 22.7774 34.5733 14.5201 28.875 10.2465C28.3228 9.83216 27.5391 9.94411 27.1251 10.4965C26.7109 11.0487 26.8228 11.8322 27.3751 12.2465C28.4224 13.032 29.0386 14.0405 29.373 15.1418C29.2839 18.4718 26.25 21.535 26.25 24.9965C26.25 26.2492 26.0066 28.3342 25.3204 30.0878C24.9684 30.9873 24.2152 32.4965 23.125 32.4965C21.1038 32.4965 21.2484 32.4111 21.2373 32.3271C24.3527 31.425 24.6473 27.251 23.3839 25.9875C22.4329 25.0365 20.9812 25.5232 20.0001 26.0425C19.0191 25.5232 17.5673 25.0364 16.6162 25.9875C15.3544 27.2493 15.6407 31.423 18.7627 32.3271C18.7595 32.3511 18.7571 32.369 18.7556 32.3857C18.7452 32.5043 16.9849 32.4965 16.875 32.4965C15.7849 32.4965 15.0316 30.9874 14.6797 30.0878C13.9935 28.3342 13.75 26.2491 13.75 24.9965C13.75 21.5303 10.7162 18.4768 10.6271 15.1418C10.9614 14.0405 11.5777 13.032 12.625 12.2465C13.1773 11.8322 13.2892 11.0487 12.875 10.4965C12.4608 9.94411 11.6773 9.83216 11.125 10.2465C5.42625 14.5205 8.75 22.7837 8.75 24.3715C8.75 25.5025 7.47273 26.9916 5.33344 27.5308C5.13125 27.4613 4.31258 26.7101 3.52516 23.9968C2.89281 21.8179 2.5 19.0877 2.5 16.8715C2.5 13.0361 4.62508 11.2465 6.875 11.2465C8.38461 11.2465 9.46805 10.2653 10.4241 9.39966C11.727 8.21973 12.5344 7.57567 13.9798 8.05731C14.2363 8.14286 14.5138 8.14286 14.7703 8.05731C16.9623 7.32669 23.0287 7.32364 25.2298 8.05731C25.4863 8.14286 25.7638 8.14286 26.0203 8.05731C27.4653 7.57575 28.273 8.21966 29.576 9.39966C30.532 10.2654 31.6154 11.2465 33.1251 11.2465C35.3784 11.2465 37.5001 13.0399 37.5001 16.8715C37.5 19.0877 37.1072 21.8179 36.4749 23.9968Z" fill="#3A405F"/>
<path d="M26.25 17.4965C27.2855 17.4965 28.125 16.657 28.125 15.6215C28.125 14.586 27.2855 13.7465 26.25 13.7465C25.2145 13.7465 24.375 14.586 24.375 15.6215C24.375 16.657 25.2145 17.4965 26.25 17.4965Z" fill="#3A405F"/>
<path d="M19.9999 9.29326C19.9999 9.29326 19.605 11.6499 18.4201 12.1212C17.2352 12.5926 19.9999 13.5353 19.9999 16.3633C19.9999 19.1912 19.9999 9.29326 19.9999 9.29326Z" fill="#EB5E28"/>
<path d="M16.2499 13.1214C17.4999 13.1214 18.7499 14.9964 17.4999 15.6214C16.2499 16.2464 14.9999 13.1214 16.2499 13.1214Z" fill="#A6A9B6"/>
</svg>
