<svg width="377" height="374" viewBox="0 0 377 374" fill="none" xmlns="http://www.w3.org/2000/svg">
<path d="M76.1674 142.72C77.0256 143.29 77.0256 144.145 76.1674 144.715C75.3092 145.285 73.5927 145.285 72.7345 144.715C71.8763 144.145 71.8763 143.29 72.7345 142.72C73.5927 142.149 75.0231 142.149 76.1674 142.72Z" fill="#1B1F20"/>
<path d="M85.036 137.588C85.8943 138.158 85.8943 139.013 85.036 139.583C84.1778 140.154 82.4614 140.154 81.6031 139.583C80.7449 139.013 80.7449 138.158 81.6031 137.588C82.4614 137.018 84.1778 137.018 85.036 137.588Z" fill="#1B1F20"/>
<path d="M92.4741 134.737C93.8961 134.737 95.0488 134.099 95.0488 133.311C95.0488 132.524 93.8961 131.886 92.4741 131.886C91.0521 131.886 89.8994 132.524 89.8994 133.311C89.8994 134.099 91.0521 134.737 92.4741 134.737Z" fill="#1B1F20"/>
<path d="M101.342 129.605C102.764 129.605 103.917 128.967 103.917 128.18C103.917 127.392 102.764 126.754 101.342 126.754C99.9203 126.754 98.7676 127.392 98.7676 128.18C98.7676 128.967 99.9203 129.605 101.342 129.605Z" fill="#1B1F20"/>
<path d="M110.497 124.474C111.919 124.474 113.072 123.836 113.072 123.048C113.072 122.261 111.919 121.623 110.497 121.623C109.075 121.623 107.922 122.261 107.922 123.048C107.922 123.836 109.075 124.474 110.497 124.474Z" fill="#1B1F20"/>
<path d="M56.4282 145C57.8502 145 59.0029 144.362 59.0029 143.575C59.0029 142.787 57.8502 142.149 56.4282 142.149C55.0062 142.149 53.8535 142.787 53.8535 143.575C53.8535 144.362 55.0062 145 56.4282 145Z" fill="#1B1F20"/>
<path d="M65.2969 139.868C66.7188 139.868 67.8715 139.23 67.8715 138.443C67.8715 137.656 66.7188 137.018 65.2969 137.018C63.8749 137.018 62.7222 137.656 62.7222 138.443C62.7222 139.23 63.8749 139.868 65.2969 139.868Z" fill="#1B1F20"/>
<path d="M74.4511 134.737C75.8731 134.737 77.0258 134.099 77.0258 133.311C77.0258 132.524 75.8731 131.886 74.4511 131.886C73.0292 131.886 71.8765 132.524 71.8765 133.311C71.8765 134.099 73.0292 134.737 74.4511 134.737Z" fill="#1B1F20"/>
<path d="M85.036 127.04C85.8943 127.61 85.8943 128.465 85.036 129.035C84.1778 129.605 82.4614 129.605 81.6031 129.035C80.7449 128.465 80.7449 127.61 81.6031 127.04C82.4614 126.469 84.1778 126.469 85.036 127.04Z" fill="#1B1F20"/>
<path d="M94.1903 121.908C95.0486 122.478 95.0486 123.333 94.1903 123.904C93.3321 124.474 91.6157 124.474 90.7574 123.904C89.8992 123.333 89.8992 122.478 90.7574 121.908C91.6157 121.338 93.046 121.338 94.1903 121.908Z" fill="#1B1F20"/>
<path d="M103.059 116.776C103.917 117.346 103.917 118.202 103.059 118.772C102.201 119.342 100.484 119.342 99.6261 118.772C98.7679 118.202 98.7679 117.346 99.6261 116.776C100.484 116.206 102.201 116.206 103.059 116.776Z" fill="#1B1F20"/>
<path d="M112.213 111.645C113.072 112.215 113.072 113.07 112.213 113.64C111.355 114.21 109.639 114.21 108.78 113.64C107.922 113.07 107.922 112.215 108.78 111.645C109.639 111.074 111.069 111.074 112.213 111.645Z" fill="#1B1F20"/>
<path d="M40.122 142.72C40.9802 143.29 40.9802 144.145 40.122 144.715C39.2638 145.285 37.5473 145.285 36.6891 144.715C35.8309 144.145 35.8309 143.29 36.6891 142.72C37.5473 142.149 38.9777 142.149 40.122 142.72Z" fill="#1B1F20"/>
<path d="M48.9906 137.588C49.8489 138.158 49.8489 139.013 48.9906 139.583C48.1324 140.154 46.416 140.154 45.5577 139.583C44.6995 139.013 44.6995 138.158 45.5577 137.588C46.416 137.018 48.1324 137.018 48.9906 137.588Z" fill="#1B1F20"/>
<path d="M58.1444 132.171C59.0027 132.741 59.0027 133.596 58.1444 134.167C57.2862 134.737 55.5698 134.737 54.7115 134.167C53.8533 133.596 53.8533 132.741 54.7115 132.171C55.5698 131.601 57.0001 131.601 58.1444 132.171Z" fill="#1B1F20"/>
<path d="M65.2969 129.605C66.7188 129.605 67.8715 128.967 67.8715 128.18C67.8715 127.392 66.7188 126.754 65.2969 126.754C63.8749 126.754 62.7222 127.392 62.7222 128.18C62.7222 128.967 63.8749 129.605 65.2969 129.605Z" fill="#1B1F20"/>
<path d="M76.1674 121.908C77.0256 122.478 77.0256 123.333 76.1674 123.904C75.3092 124.474 73.5927 124.474 72.7345 123.904C71.8763 123.333 71.8763 122.478 72.7345 121.908C73.5927 121.338 75.0231 121.338 76.1674 121.908Z" fill="#1B1F20"/>
<path d="M83.3198 119.057C84.7418 119.057 85.8945 118.419 85.8945 117.632C85.8945 116.844 84.7418 116.206 83.3198 116.206C81.8978 116.206 80.7451 116.844 80.7451 117.632C80.7451 118.419 81.8978 119.057 83.3198 119.057Z" fill="#1B1F20"/>
<path d="M92.4741 113.925C93.8961 113.925 95.0488 113.287 95.0488 112.5C95.0488 111.713 93.8961 111.074 92.4741 111.074C91.0521 111.074 89.8994 111.713 89.8994 112.5C89.8994 113.287 91.0521 113.925 92.4741 113.925Z" fill="#1B1F20"/>
<path d="M101.342 108.794C102.764 108.794 103.917 108.156 103.917 107.369C103.917 106.581 102.764 105.943 101.342 105.943C99.9203 105.943 98.7676 106.581 98.7676 107.369C98.7676 108.156 99.9203 108.794 101.342 108.794Z" fill="#1B1F20"/>
<path d="M112.213 101.097C113.072 101.667 113.072 102.522 112.213 103.092C111.355 103.662 109.639 103.662 108.78 103.092C107.922 102.522 107.922 101.667 108.78 101.097C109.639 100.526 111.069 100.526 112.213 101.097Z" fill="#1B1F20"/>
<path d="M30.9677 137.588C31.8259 138.158 31.8259 139.013 30.9677 139.583C30.1095 140.154 28.393 140.154 27.5348 139.583C26.6766 139.013 26.6766 138.158 27.5348 137.588C28.6791 137.018 30.1095 137.018 30.9677 137.588Z" fill="#1B1F20"/>
<path d="M40.122 132.171C40.9802 132.741 40.9802 133.596 40.122 134.167C39.2638 134.737 37.5473 134.737 36.6891 134.167C35.8309 133.596 35.8309 132.741 36.6891 132.171C37.5473 131.601 38.9777 131.601 40.122 132.171Z" fill="#1B1F20"/>
<path d="M47.2739 129.605C48.6959 129.605 49.8486 128.967 49.8486 128.18C49.8486 127.392 48.6959 126.754 47.2739 126.754C45.8519 126.754 44.6992 127.392 44.6992 128.18C44.6992 128.967 45.8519 129.605 47.2739 129.605Z" fill="#1B1F20"/>
<path d="M56.4282 124.474C57.8502 124.474 59.0029 123.836 59.0029 123.048C59.0029 122.261 57.8502 121.623 56.4282 121.623C55.0062 121.623 53.8535 122.261 53.8535 123.048C53.8535 123.836 55.0062 124.474 56.4282 124.474Z" fill="#1B1F20"/>
<path d="M65.2969 119.057C66.7188 119.057 67.8715 118.419 67.8715 117.632C67.8715 116.844 66.7188 116.206 65.2969 116.206C63.8749 116.206 62.7222 116.844 62.7222 117.632C62.7222 118.419 63.8749 119.057 65.2969 119.057Z" fill="#1B1F20"/>
<path d="M76.1674 111.645C77.0256 112.215 77.0256 113.07 76.1674 113.64C75.3092 114.21 73.5927 114.21 72.7345 113.64C71.8763 113.07 71.8763 112.215 72.7345 111.645C73.5927 111.074 75.0231 111.074 76.1674 111.645Z" fill="#1B1F20"/>
<path d="M85.036 106.513C85.8943 107.083 85.8943 107.938 85.036 108.509C84.1778 109.079 82.4614 109.079 81.6031 108.509C80.7449 107.938 80.7449 107.083 81.6031 106.513C82.4614 105.943 84.1778 105.943 85.036 106.513Z" fill="#1B1F20"/>
<path d="M94.1903 101.097C95.0486 101.667 95.0486 102.522 94.1903 103.092C93.3321 103.662 91.6157 103.662 90.7574 103.092C89.8992 102.522 89.8992 101.667 90.7574 101.097C91.6157 100.526 93.046 100.526 94.1903 101.097Z" fill="#1B1F20"/>
<path d="M101.342 98.5307C102.764 98.5307 103.917 97.8925 103.917 97.1053C103.917 96.318 102.764 95.6798 101.342 95.6798C99.9203 95.6798 98.7676 96.318 98.7676 97.1053C98.7676 97.8925 99.9203 98.5307 101.342 98.5307Z" fill="#1B1F20"/>
<path d="M22.0995 132.171C22.9577 132.741 22.9577 133.596 22.0995 134.167C21.2413 134.737 19.5248 134.737 18.6666 134.167C17.8084 133.596 17.8084 132.741 18.6666 132.171C19.5248 131.601 20.9552 131.601 22.0995 132.171Z" fill="#1B1F20"/>
<path d="M30.9677 127.04C31.8259 127.61 31.8259 128.465 30.9677 129.035C30.1095 129.605 28.393 129.605 27.5348 129.035C26.6766 128.465 26.6766 127.61 27.5348 127.04C28.6791 126.469 30.1095 126.469 30.9677 127.04Z" fill="#1B1F20"/>
<path d="M40.122 121.908C40.9802 122.478 40.9802 123.333 40.122 123.904C39.2638 124.474 37.5473 124.474 36.6891 123.904C35.8309 123.333 35.8309 122.478 36.6891 121.908C37.5473 121.338 38.9777 121.338 40.122 121.908Z" fill="#1B1F20"/>
<path d="M48.9906 116.776C49.8489 117.346 49.8489 118.202 48.9906 118.772C48.1324 119.342 46.416 119.342 45.5577 118.772C44.6995 118.202 44.6995 117.346 45.5577 116.776C46.416 116.206 48.1324 116.206 48.9906 116.776Z" fill="#1B1F20"/>
<path d="M56.4282 113.925C57.8502 113.925 59.0029 113.287 59.0029 112.5C59.0029 111.713 57.8502 111.074 56.4282 111.074C55.0062 111.074 53.8535 111.713 53.8535 112.5C53.8535 113.287 55.0062 113.925 56.4282 113.925Z" fill="#1B1F20"/>
<path d="M65.2969 108.794C66.7188 108.794 67.8715 108.156 67.8715 107.369C67.8715 106.581 66.7188 105.943 65.2969 105.943C63.8749 105.943 62.7222 106.581 62.7222 107.369C62.7222 108.156 63.8749 108.794 65.2969 108.794Z" fill="#1B1F20"/>
<path d="M74.4511 103.662C75.8731 103.662 77.0258 103.024 77.0258 102.237C77.0258 101.45 75.8731 100.812 74.4511 100.812C73.0292 100.812 71.8765 101.45 71.8765 102.237C71.8765 103.024 73.0292 103.662 74.4511 103.662Z" fill="#1B1F20"/>
<path d="M85.036 95.9648C85.8943 96.535 85.8943 97.3903 85.036 97.9605C84.1778 98.5306 82.4614 98.5306 81.6031 97.9605C80.7449 97.3903 80.7449 96.535 81.6031 95.9648C82.4614 95.3947 84.1778 95.3947 85.036 95.9648Z" fill="#1B1F20"/>
<path d="M94.1903 90.8332C95.0486 91.4034 95.0486 92.2586 94.1903 92.8288C93.3321 93.399 91.6157 93.399 90.7574 92.8288C89.8992 92.2586 89.8992 91.4034 90.7574 90.8332C91.6157 90.263 93.046 90.263 94.1903 90.8332Z" fill="#1B1F20"/>
<path d="M12.9452 127.04C13.8035 127.61 13.8035 128.465 12.9452 129.035C12.087 129.605 10.3706 129.605 9.51232 129.035C8.6541 128.465 8.6541 127.61 9.51232 127.04C10.3706 126.469 12.087 126.469 12.9452 127.04Z" fill="#1B1F20"/>
<path d="M21.8134 121.908C22.6716 122.478 22.6716 123.333 21.8134 123.904C20.9552 124.474 19.2387 124.474 18.3805 123.904C17.5223 123.333 17.5223 122.478 18.3805 121.908C19.5248 121.338 20.9552 121.338 21.8134 121.908Z" fill="#1B1F20"/>
<path d="M30.9677 116.776C31.8259 117.346 31.8259 118.202 30.9677 118.772C30.1095 119.342 28.393 119.342 27.5348 118.772C26.6766 118.202 26.6766 117.346 27.5348 116.776C28.393 116.206 30.1095 116.206 30.9677 116.776Z" fill="#1B1F20"/>
<path d="M38.1196 113.925C39.5416 113.925 40.6943 113.287 40.6943 112.5C40.6943 111.713 39.5416 111.074 38.1196 111.074C36.6976 111.074 35.5449 111.713 35.5449 112.5C35.5449 113.287 36.6976 113.925 38.1196 113.925Z" fill="#1B1F20"/>
<path d="M47.2739 108.794C48.6959 108.794 49.8486 108.156 49.8486 107.369C49.8486 106.581 48.6959 105.943 47.2739 105.943C45.8519 105.943 44.6992 106.581 44.6992 107.369C44.6992 108.156 45.8519 108.794 47.2739 108.794Z" fill="#1B1F20"/>
<path d="M57.8588 101.097C58.717 101.667 58.717 102.522 57.8588 103.092C57.0006 103.662 55.2841 103.662 54.4259 103.092C53.5677 102.522 53.5677 101.667 54.4259 101.097C55.5702 100.526 57.0006 100.526 57.8588 101.097Z" fill="#1B1F20"/>
<path d="M65.2969 98.2456C66.7188 98.2456 67.8715 97.6074 67.8715 96.8201C67.8715 96.0329 66.7188 95.3947 65.2969 95.3947C63.8749 95.3947 62.7222 96.0329 62.7222 96.8201C62.7222 97.6074 63.8749 98.2456 65.2969 98.2456Z" fill="#1B1F20"/>
<path d="M74.165 93.1141C75.587 93.1141 76.7397 92.4759 76.7397 91.6887C76.7397 90.9014 75.587 90.2633 74.165 90.2633C72.7431 90.2633 71.5903 90.9014 71.5903 91.6887C71.5903 92.4759 72.7431 93.1141 74.165 93.1141Z" fill="#1B1F20"/>
<path d="M85.036 85.702C85.8943 86.2721 85.8943 87.1274 85.036 87.6976C84.1778 88.2677 82.4614 88.2677 81.6031 87.6976C80.7449 87.1274 80.7449 86.2721 81.6031 85.702C82.4614 85.1318 84.1778 85.1318 85.036 85.702Z" fill="#1B1F20"/>
<path d="M4.07658 121.908C4.93481 122.478 4.93481 123.333 4.07658 123.904C3.21835 124.474 1.5019 124.474 0.643671 123.904C-0.214557 123.333 -0.214557 122.478 0.643671 121.908C1.5019 121.338 2.93228 121.338 4.07658 121.908Z" fill="#1B1F20"/>
<path d="M11.2285 119.057C12.6505 119.057 13.8032 118.419 13.8032 117.632C13.8032 116.844 12.6505 116.206 11.2285 116.206C9.80653 116.206 8.65381 116.844 8.65381 117.632C8.65381 118.419 9.80653 119.057 11.2285 119.057Z" fill="#1B1F20"/>
<path d="M20.0967 113.925C21.5186 113.925 22.6713 113.287 22.6713 112.5C22.6713 111.713 21.5186 111.074 20.0967 111.074C18.6747 111.074 17.522 111.713 17.522 112.5C17.522 113.287 18.6747 113.925 20.0967 113.925Z" fill="#1B1F20"/>
<path d="M30.9677 106.228C31.8259 106.798 31.8259 107.654 30.9677 108.224C30.1095 108.794 28.393 108.794 27.5348 108.224C26.6766 107.654 26.6766 106.798 27.5348 106.228C28.393 105.658 30.1095 105.658 30.9677 106.228Z" fill="#1B1F20"/>
<path d="M39.8359 101.097C40.6941 101.667 40.6941 102.522 39.8359 103.092C38.9776 103.662 37.2612 103.662 36.4029 103.092C35.5447 102.522 35.5447 101.667 36.4029 101.097C37.5473 100.526 38.9776 100.526 39.8359 101.097Z" fill="#1B1F20"/>
<path d="M48.9906 95.9648C49.8489 96.535 49.8489 97.3903 48.9906 97.9605C48.1324 98.5306 46.416 98.5306 45.5577 97.9605C44.6995 97.3903 44.6995 96.535 45.5577 95.9648C46.416 95.3947 48.1324 95.3947 48.9906 95.9648Z" fill="#1B1F20"/>
<path d="M57.8588 90.8332C58.717 91.4034 58.717 92.2586 57.8588 92.8288C57.0006 93.399 55.2841 93.399 54.4259 92.8288C53.5677 92.2586 53.5677 91.4034 54.4259 90.8332C55.5702 90.263 57.0006 90.263 57.8588 90.8332Z" fill="#1B1F20"/>
<path d="M67.0131 85.702C67.8713 86.2721 67.8713 87.1274 67.0131 87.6976C66.1549 88.2677 64.4384 88.2677 63.5802 87.6976C62.722 87.1274 62.722 86.2721 63.5802 85.702C64.4384 85.1318 66.1549 85.1318 67.0131 85.702Z" fill="#1B1F20"/>
<path d="M75.8818 80.2849C76.74 80.8551 76.74 81.7104 75.8818 82.2805C75.0235 82.8507 73.3071 82.8507 72.4488 82.2805C71.5906 81.7104 71.5906 80.8551 72.4488 80.2849C73.5931 79.9998 75.0235 79.9998 75.8818 80.2849Z" fill="#1B1F20"/>
<path d="M4.07658 111.36C4.93481 111.93 4.93481 112.785 4.07658 113.355C3.21835 113.926 1.5019 113.926 0.643671 113.355C-0.214557 112.785 -0.214557 111.93 0.643671 111.36C1.5019 111.075 2.93228 111.075 4.07658 111.36Z" fill="#1B1F20"/>
<path d="M12.9452 106.228C13.8035 106.798 13.8035 107.654 12.9452 108.224C12.087 108.794 10.3706 108.794 9.51232 108.224C8.6541 107.654 8.6541 106.798 9.51232 106.228C10.3706 105.658 12.087 105.658 12.9452 106.228Z" fill="#1B1F20"/>
<path d="M21.8134 101.097C22.6716 101.667 22.6716 102.522 21.8134 103.092C20.9552 103.662 19.2387 103.662 18.3805 103.092C17.5223 102.522 17.5223 101.667 18.3805 101.097C19.5248 100.526 20.9552 100.526 21.8134 101.097Z" fill="#1B1F20"/>
<path d="M29.2514 98.2456C30.6734 98.2456 31.8261 97.6074 31.8261 96.8201C31.8261 96.0329 30.6734 95.3947 29.2514 95.3947C27.8295 95.3947 26.6768 96.0329 26.6768 96.8201C26.6768 97.6074 27.8295 98.2456 29.2514 98.2456Z" fill="#1B1F20"/>
<path d="M38.1196 93.1141C39.5416 93.1141 40.6943 92.4759 40.6943 91.6887C40.6943 90.9014 39.5416 90.2633 38.1196 90.2633C36.6976 90.2633 35.5449 90.9014 35.5449 91.6887C35.5449 92.4759 36.6976 93.1141 38.1196 93.1141Z" fill="#1B1F20"/>
<path d="M48.9906 85.702C49.8489 86.2721 49.8489 87.1274 48.9906 87.6976C48.1324 88.2677 46.416 88.2677 45.5577 87.6976C44.6995 87.1274 44.6995 86.2721 45.5577 85.702C46.416 85.1318 48.1324 85.1318 48.9906 85.702Z" fill="#1B1F20"/>
<path d="M56.1426 82.8509C57.5645 82.8509 58.7172 82.2127 58.7172 81.4254C58.7172 80.6382 57.5645 80 56.1426 80C54.7206 80 53.5679 80.6382 53.5679 81.4254C53.5679 82.2127 54.7206 82.8509 56.1426 82.8509Z" fill="#1B1F20"/>
<path d="M4.07658 101.097C4.93481 101.667 4.93481 102.522 4.07658 103.092C3.21835 103.662 1.5019 103.662 0.643671 103.092C-0.214557 102.522 -0.214557 101.667 0.643671 101.097C1.5019 100.526 2.93228 100.526 4.07658 101.097Z" fill="#1B1F20"/>
<path d="M11.2285 98.2456C12.6505 98.2456 13.8032 97.6074 13.8032 96.8201C13.8032 96.0329 12.6505 95.3947 11.2285 95.3947C9.80653 95.3947 8.65381 96.0329 8.65381 96.8201C8.65381 97.6074 9.80653 98.2456 11.2285 98.2456Z" fill="#1B1F20"/>
<path d="M21.8134 90.8332C22.6716 91.4034 22.6716 92.2586 21.8134 92.8288C20.9552 93.399 19.2387 93.399 18.3805 92.8288C17.5223 92.2586 17.5223 91.4034 18.3805 90.8332C19.5248 90.263 20.9552 90.263 21.8134 90.8332Z" fill="#1B1F20"/>
<path d="M30.9677 85.702C31.8259 86.2721 31.8259 87.1274 30.9677 87.6976C30.1095 88.2677 28.393 88.2677 27.5348 87.6976C26.6766 87.1274 26.6766 86.2721 27.5348 85.702C28.393 85.1318 30.1095 85.1318 30.9677 85.702Z" fill="#1B1F20"/>
<path d="M39.8359 80.2849C40.6941 80.8551 40.6941 81.7104 39.8359 82.2805C38.9776 82.8507 37.2612 82.8507 36.4029 82.2805C35.5447 81.7104 35.5447 80.8551 36.4029 80.2849C37.5473 79.9998 38.9776 79.9998 39.8359 80.2849Z" fill="#1B1F20"/>
<path d="M350.89 44.3751C351.497 44.7785 351.497 45.3836 350.89 45.787C350.282 46.1905 349.068 46.1905 348.461 45.787C347.854 45.3836 347.854 44.7785 348.461 44.3751C349.068 43.9717 350.08 43.9717 350.89 44.3751Z" fill="#1B1F20"/>
<path d="M357.165 40.7442C357.772 41.1477 357.772 41.7528 357.165 42.1562C356.557 42.5596 355.343 42.5596 354.736 42.1562C354.128 41.7528 354.128 41.1477 354.736 40.7442C355.343 40.3408 356.557 40.3408 357.165 40.7442Z" fill="#1B1F20"/>
<path d="M362.427 38.7271C363.433 38.7271 364.248 38.2756 364.248 37.7186C364.248 37.1616 363.433 36.7101 362.427 36.7101C361.421 36.7101 360.605 37.1616 360.605 37.7186C360.605 38.2756 361.421 38.7271 362.427 38.7271Z" fill="#1B1F20"/>
<path d="M368.701 35.0963C369.707 35.0963 370.523 34.6448 370.523 34.0878C370.523 33.5308 369.707 33.0792 368.701 33.0792C367.695 33.0792 366.879 33.5308 366.879 34.0878C366.879 34.6448 367.695 35.0963 368.701 35.0963Z" fill="#1B1F20"/>
<path d="M375.178 31.466C376.184 31.466 377 31.0145 377 30.4575C377 29.9005 376.184 29.4489 375.178 29.4489C374.172 29.4489 373.356 29.9005 373.356 30.4575C373.356 31.0145 374.172 31.466 375.178 31.466Z" fill="#1B1F20"/>
<path d="M336.924 45.9886C337.93 45.9886 338.746 45.5371 338.746 44.9801C338.746 44.4231 337.93 43.9715 336.924 43.9715C335.918 43.9715 335.103 44.4231 335.103 44.9801C335.103 45.5371 335.918 45.9886 336.924 45.9886Z" fill="#1B1F20"/>
<path d="M343.199 42.358C344.205 42.358 345.02 41.9065 345.02 41.3495C345.02 40.7925 344.205 40.341 343.199 40.341C342.193 40.341 341.377 40.7925 341.377 41.3495C341.377 41.9065 342.193 42.358 343.199 42.358Z" fill="#1B1F20"/>
<path d="M349.676 38.7271C350.682 38.7271 351.497 38.2756 351.497 37.7186C351.497 37.1616 350.682 36.7101 349.676 36.7101C348.67 36.7101 347.854 37.1616 347.854 37.7186C347.854 38.2756 348.67 38.7271 349.676 38.7271Z" fill="#1B1F20"/>
<path d="M357.165 33.2811C357.772 33.6845 357.772 34.2896 357.165 34.693C356.557 35.0964 355.343 35.0964 354.736 34.693C354.128 34.2896 354.128 33.6845 354.736 33.2811C355.343 32.8777 356.557 32.8777 357.165 33.2811Z" fill="#1B1F20"/>
<path d="M363.641 29.6505C364.248 30.0539 364.248 30.659 363.641 31.0624C363.034 31.4658 361.819 31.4658 361.212 31.0624C360.605 30.659 360.605 30.0539 361.212 29.6505C361.819 29.2471 362.831 29.2471 363.641 29.6505Z" fill="#1B1F20"/>
<path d="M369.916 26.0199C370.523 26.4233 370.523 27.0284 369.916 27.4318C369.309 27.8352 368.094 27.8352 367.487 27.4318C366.88 27.0284 366.88 26.4233 367.487 26.0199C368.094 25.6165 369.309 25.6165 369.916 26.0199Z" fill="#1B1F20"/>
<path d="M376.393 22.3891C377 22.7925 377 23.3976 376.393 23.801C375.785 24.2044 374.571 24.2044 373.964 23.801C373.356 23.3976 373.356 22.7925 373.964 22.3891C374.571 21.9856 375.583 21.9856 376.393 22.3891Z" fill="#1B1F20"/>
<path d="M325.387 44.3751C325.994 44.7785 325.994 45.3836 325.387 45.787C324.78 46.1905 323.566 46.1905 322.958 45.787C322.351 45.3836 322.351 44.7785 322.958 44.3751C323.566 43.9717 324.578 43.9717 325.387 44.3751Z" fill="#1B1F20"/>
<path d="M331.662 40.7442C332.269 41.1477 332.269 41.7528 331.662 42.1562C331.054 42.5596 329.84 42.5596 329.233 42.1562C328.626 41.7528 328.626 41.1477 329.233 40.7442C329.84 40.3408 331.054 40.3408 331.662 40.7442Z" fill="#1B1F20"/>
<path d="M338.138 36.9119C338.745 37.3153 338.745 37.9205 338.138 38.3239C337.531 38.7273 336.317 38.7273 335.709 38.3239C335.102 37.9205 335.102 37.3153 335.709 36.9119C336.317 36.5085 337.329 36.5085 338.138 36.9119Z" fill="#1B1F20"/>
<path d="M343.199 35.0963C344.205 35.0963 345.02 34.6448 345.02 34.0878C345.02 33.5308 344.205 33.0792 343.199 33.0792C342.193 33.0792 341.377 33.5308 341.377 34.0878C341.377 34.6448 342.193 35.0963 343.199 35.0963Z" fill="#1B1F20"/>
<path d="M350.89 29.6505C351.497 30.0539 351.497 30.659 350.89 31.0624C350.282 31.4658 349.068 31.4658 348.461 31.0624C347.854 30.659 347.854 30.0539 348.461 29.6505C349.068 29.2471 350.08 29.2471 350.89 29.6505Z" fill="#1B1F20"/>
<path d="M355.95 27.6334C356.956 27.6334 357.772 27.1819 357.772 26.6249C357.772 26.0679 356.956 25.6164 355.95 25.6164C354.944 25.6164 354.128 26.0679 354.128 26.6249C354.128 27.1819 354.944 27.6334 355.95 27.6334Z" fill="#1B1F20"/>
<path d="M362.427 24.0028C363.433 24.0028 364.248 23.5513 364.248 22.9943C364.248 22.4373 363.433 21.9858 362.427 21.9858C361.421 21.9858 360.605 22.4373 360.605 22.9943C360.605 23.5513 361.421 24.0028 362.427 24.0028Z" fill="#1B1F20"/>
<path d="M368.701 20.3722C369.707 20.3722 370.523 19.9207 370.523 19.3637C370.523 18.8067 369.707 18.3552 368.701 18.3552C367.695 18.3552 366.879 18.8067 366.879 19.3637C366.879 19.9207 367.695 20.3722 368.701 20.3722Z" fill="#1B1F20"/>
<path d="M376.393 14.9262C377 15.3296 377 15.9347 376.393 16.3381C375.785 16.7415 374.571 16.7415 373.964 16.3381C373.356 15.9347 373.356 15.3296 373.964 14.9262C374.571 14.5228 375.583 14.5228 376.393 14.9262Z" fill="#1B1F20"/>
<path d="M318.91 40.7442C319.517 41.1477 319.517 41.7528 318.91 42.1562C318.303 42.5596 317.088 42.5596 316.481 42.1562C315.874 41.7528 315.874 41.1477 316.481 40.7442C317.291 40.3408 318.303 40.3408 318.91 40.7442Z" fill="#1B1F20"/>
<path d="M325.387 36.9119C325.994 37.3153 325.994 37.9205 325.387 38.3239C324.78 38.7273 323.566 38.7273 322.958 38.3239C322.351 37.9205 322.351 37.3153 322.958 36.9119C323.566 36.5085 324.578 36.5085 325.387 36.9119Z" fill="#1B1F20"/>
<path d="M330.447 35.0963C331.453 35.0963 332.269 34.6448 332.269 34.0878C332.269 33.5308 331.453 33.0792 330.447 33.0792C329.441 33.0792 328.625 33.5308 328.625 34.0878C328.625 34.6448 329.441 35.0963 330.447 35.0963Z" fill="#1B1F20"/>
<path d="M336.924 31.466C337.93 31.466 338.746 31.0145 338.746 30.4575C338.746 29.9005 337.93 29.4489 336.924 29.4489C335.918 29.4489 335.103 29.9005 335.103 30.4575C335.103 31.0145 335.918 31.466 336.924 31.466Z" fill="#1B1F20"/>
<path d="M343.199 27.6334C344.205 27.6334 345.02 27.1819 345.02 26.6249C345.02 26.0679 344.205 25.6164 343.199 25.6164C342.193 25.6164 341.377 26.0679 341.377 26.6249C341.377 27.1819 342.193 27.6334 343.199 27.6334Z" fill="#1B1F20"/>
<path d="M350.89 22.3891C351.497 22.7925 351.497 23.3976 350.89 23.801C350.282 24.2044 349.068 24.2044 348.461 23.801C347.854 23.3976 347.854 22.7925 348.461 22.3891C349.068 21.9856 350.08 21.9856 350.89 22.3891Z" fill="#1B1F20"/>
<path d="M357.165 18.7585C357.772 19.1619 357.772 19.767 357.165 20.1704C356.557 20.5738 355.343 20.5738 354.736 20.1704C354.128 19.767 354.128 19.1619 354.736 18.7585C355.343 18.3551 356.557 18.3551 357.165 18.7585Z" fill="#1B1F20"/>
<path d="M363.641 14.9262C364.248 15.3296 364.248 15.9347 363.641 16.3381C363.034 16.7415 361.819 16.7415 361.212 16.3381C360.605 15.9347 360.605 15.3296 361.212 14.9262C361.819 14.5228 362.831 14.5228 363.641 14.9262Z" fill="#1B1F20"/>
<path d="M368.701 13.1108C369.707 13.1108 370.523 12.6593 370.523 12.1023C370.523 11.5453 369.707 11.0938 368.701 11.0938C367.695 11.0938 366.879 11.5453 366.879 12.1023C366.879 12.6593 367.695 13.1108 368.701 13.1108Z" fill="#1B1F20"/>
<path d="M312.636 36.9119C313.243 37.3153 313.243 37.9205 312.636 38.3239C312.028 38.7273 310.814 38.7273 310.207 38.3239C309.6 37.9205 309.6 37.3153 310.207 36.9119C310.814 36.5085 311.826 36.5085 312.636 36.9119Z" fill="#1B1F20"/>
<path d="M318.91 33.2811C319.517 33.6845 319.517 34.2896 318.91 34.693C318.303 35.0964 317.088 35.0964 316.481 34.693C315.874 34.2896 315.874 33.6845 316.481 33.2811C317.291 32.8777 318.303 32.8777 318.91 33.2811Z" fill="#1B1F20"/>
<path d="M325.387 29.6505C325.994 30.0539 325.994 30.659 325.387 31.0624C324.78 31.4658 323.566 31.4658 322.958 31.0624C322.351 30.659 322.351 30.0539 322.958 29.6505C323.566 29.2471 324.578 29.2471 325.387 29.6505Z" fill="#1B1F20"/>
<path d="M331.662 26.0199C332.269 26.4233 332.269 27.0284 331.662 27.4318C331.054 27.8352 329.84 27.8352 329.233 27.4318C328.626 27.0284 328.626 26.4233 329.233 26.0199C329.84 25.6165 331.054 25.6165 331.662 26.0199Z" fill="#1B1F20"/>
<path d="M336.924 24.0028C337.93 24.0028 338.746 23.5513 338.746 22.9943C338.746 22.4373 337.93 21.9858 336.924 21.9858C335.918 21.9858 335.103 22.4373 335.103 22.9943C335.103 23.5513 335.918 24.0028 336.924 24.0028Z" fill="#1B1F20"/>
<path d="M343.199 20.3722C344.205 20.3722 345.02 19.9207 345.02 19.3637C345.02 18.8067 344.205 18.3552 343.199 18.3552C342.193 18.3552 341.377 18.8067 341.377 19.3637C341.377 19.9207 342.193 20.3722 343.199 20.3722Z" fill="#1B1F20"/>
<path d="M349.676 16.7417C350.682 16.7417 351.497 16.2901 351.497 15.7331C351.497 15.1761 350.682 14.7246 349.676 14.7246C348.67 14.7246 347.854 15.1761 347.854 15.7331C347.854 16.2901 348.67 16.7417 349.676 16.7417Z" fill="#1B1F20"/>
<path d="M357.165 11.2953C357.772 11.6987 357.772 12.3038 357.165 12.7072C356.557 13.1106 355.343 13.1106 354.736 12.7072C354.128 12.3038 354.128 11.6987 354.736 11.2953C355.343 10.8919 356.557 10.8919 357.165 11.2953Z" fill="#1B1F20"/>
<path d="M363.641 7.66472C364.248 8.06813 364.248 8.67324 363.641 9.07665C363.034 9.48006 361.819 9.48006 361.212 9.07665C360.605 8.67324 360.605 8.06813 361.212 7.66472C361.819 7.26132 362.831 7.26132 363.641 7.66472Z" fill="#1B1F20"/>
<path d="M306.159 33.2811C306.766 33.6845 306.766 34.2896 306.159 34.693C305.551 35.0964 304.337 35.0964 303.73 34.693C303.123 34.2896 303.123 33.6845 303.73 33.2811C304.337 32.8777 305.551 32.8777 306.159 33.2811Z" fill="#1B1F20"/>
<path d="M312.433 29.6505C313.04 30.0539 313.04 30.659 312.433 31.0624C311.826 31.4658 310.611 31.4658 310.004 31.0624C309.397 30.659 309.397 30.0539 310.004 29.6505C310.814 29.2471 311.826 29.2471 312.433 29.6505Z" fill="#1B1F20"/>
<path d="M318.91 26.0199C319.517 26.4233 319.517 27.0284 318.91 27.4318C318.303 27.8352 317.088 27.8352 316.481 27.4318C315.874 27.0284 315.874 26.4233 316.481 26.0199C317.088 25.6165 318.303 25.6165 318.91 26.0199Z" fill="#1B1F20"/>
<path d="M323.97 24.0028C324.976 24.0028 325.792 23.5513 325.792 22.9943C325.792 22.4373 324.976 21.9858 323.97 21.9858C322.964 21.9858 322.148 22.4373 322.148 22.9943C322.148 23.5513 322.964 24.0028 323.97 24.0028Z" fill="#1B1F20"/>
<path d="M330.447 20.3722C331.453 20.3722 332.269 19.9207 332.269 19.3637C332.269 18.8067 331.453 18.3552 330.447 18.3552C329.441 18.3552 328.625 18.8067 328.625 19.3637C328.625 19.9207 329.441 20.3722 330.447 20.3722Z" fill="#1B1F20"/>
<path d="M337.936 14.9262C338.543 15.3296 338.543 15.9347 337.936 16.3381C337.329 16.7415 336.114 16.7415 335.507 16.3381C334.9 15.9347 334.9 15.3296 335.507 14.9262C336.317 14.5228 337.329 14.5228 337.936 14.9262Z" fill="#1B1F20"/>
<path d="M343.199 12.9091C344.205 12.9091 345.02 12.4575 345.02 11.9005C345.02 11.3436 344.205 10.892 343.199 10.892C342.193 10.892 341.377 11.3436 341.377 11.9005C341.377 12.4575 342.193 12.9091 343.199 12.9091Z" fill="#1B1F20"/>
<path d="M349.473 9.27848C350.479 9.27848 351.295 8.82695 351.295 8.26996C351.295 7.71297 350.479 7.26144 349.473 7.26144C348.467 7.26144 347.651 7.71297 347.651 8.26996C347.651 8.82695 348.467 9.27848 349.473 9.27848Z" fill="#1B1F20"/>
<path d="M357.165 4.03442C357.772 4.43783 357.772 5.04294 357.165 5.44635C356.557 5.84976 355.343 5.84976 354.736 5.44635C354.128 5.04294 354.128 4.43783 354.736 4.03442C355.343 3.63101 356.557 3.63101 357.165 4.03442Z" fill="#1B1F20"/>
<path d="M299.884 29.6505C300.491 30.0539 300.491 30.659 299.884 31.0624C299.277 31.4658 298.063 31.4658 297.455 31.0624C296.848 30.659 296.848 30.0539 297.455 29.6505C298.063 29.2471 299.075 29.2471 299.884 29.6505Z" fill="#1B1F20"/>
<path d="M304.944 27.6334C305.95 27.6334 306.766 27.1819 306.766 26.6249C306.766 26.0679 305.95 25.6164 304.944 25.6164C303.938 25.6164 303.123 26.0679 303.123 26.6249C303.123 27.1819 303.938 27.6334 304.944 27.6334Z" fill="#1B1F20"/>
<path d="M311.219 24.0028C312.225 24.0028 313.04 23.5513 313.04 22.9943C313.04 22.4373 312.225 21.9858 311.219 21.9858C310.213 21.9858 309.397 22.4373 309.397 22.9943C309.397 23.5513 310.213 24.0028 311.219 24.0028Z" fill="#1B1F20"/>
<path d="M318.91 18.5567C319.517 18.9602 319.517 19.5653 318.91 19.9687C318.303 20.3721 317.088 20.3721 316.481 19.9687C315.874 19.5653 315.874 18.9602 316.481 18.5567C317.088 18.1533 318.303 18.1533 318.91 18.5567Z" fill="#1B1F20"/>
<path d="M325.185 14.9262C325.792 15.3296 325.792 15.9347 325.185 16.3381C324.577 16.7415 323.363 16.7415 322.756 16.3381C322.148 15.9347 322.148 15.3296 322.756 14.9262C323.565 14.5228 324.577 14.5228 325.185 14.9262Z" fill="#1B1F20"/>
<path d="M331.662 11.2953C332.269 11.6987 332.269 12.3038 331.662 12.7072C331.054 13.1106 329.84 13.1106 329.233 12.7072C328.626 12.3038 328.626 11.6987 329.233 11.2953C329.84 10.8919 331.054 10.8919 331.662 11.2953Z" fill="#1B1F20"/>
<path d="M337.936 7.66472C338.543 8.06813 338.543 8.67324 337.936 9.07665C337.329 9.48006 336.114 9.48006 335.507 9.07665C334.9 8.67324 334.9 8.06813 335.507 7.66472C336.317 7.26132 337.329 7.26132 337.936 7.66472Z" fill="#1B1F20"/>
<path d="M344.413 4.03442C345.02 4.43783 345.02 5.04294 344.413 5.44635C343.806 5.84976 342.591 5.84976 341.984 5.44635C341.377 5.04294 341.377 4.43783 341.984 4.03442C342.591 3.63101 343.806 3.63101 344.413 4.03442Z" fill="#1B1F20"/>
<path d="M350.687 0.201502C351.295 0.60491 351.295 1.21002 350.687 1.61343C350.08 2.01684 348.866 2.01684 348.259 1.61343C347.651 1.21002 347.651 0.60491 348.259 0.201502C349.068 -0.00020171 350.08 -0.00020171 350.687 0.201502Z" fill="#1B1F20"/>
<path d="M299.884 22.1876C300.491 22.591 300.491 23.1961 299.884 23.5995C299.277 24.0029 298.063 24.0029 297.455 23.5995C296.848 23.1961 296.848 22.591 297.455 22.1876C298.063 21.9858 299.075 21.9858 299.884 22.1876Z" fill="#1B1F20"/>
<path d="M306.159 18.5567C306.766 18.9602 306.766 19.5653 306.159 19.9687C305.551 20.3721 304.337 20.3721 303.73 19.9687C303.123 19.5653 303.123 18.9602 303.73 18.5567C304.337 18.1533 305.551 18.1533 306.159 18.5567Z" fill="#1B1F20"/>
<path d="M312.433 14.9262C313.04 15.3296 313.04 15.9347 312.433 16.3381C311.826 16.7415 310.611 16.7415 310.004 16.3381C309.397 15.9347 309.397 15.3296 310.004 14.9262C310.814 14.5228 311.826 14.5228 312.433 14.9262Z" fill="#1B1F20"/>
<path d="M317.696 12.9091C318.702 12.9091 319.517 12.4575 319.517 11.9005C319.517 11.3436 318.702 10.892 317.696 10.892C316.69 10.892 315.874 11.3436 315.874 11.9005C315.874 12.4575 316.69 12.9091 317.696 12.9091Z" fill="#1B1F20"/>
<path d="M323.97 9.27848C324.976 9.27848 325.792 8.82695 325.792 8.26996C325.792 7.71297 324.976 7.26144 323.97 7.26144C322.964 7.26144 322.148 7.71297 322.148 8.26996C322.148 8.82695 322.964 9.27848 323.97 9.27848Z" fill="#1B1F20"/>
<path d="M331.662 4.03442C332.269 4.43783 332.269 5.04294 331.662 5.44635C331.054 5.84976 329.84 5.84976 329.233 5.44635C328.626 5.04294 328.626 4.43783 329.233 4.03442C329.84 3.63101 331.054 3.63101 331.662 4.03442Z" fill="#1B1F20"/>
<path d="M336.722 2.01704C337.728 2.01704 338.544 1.56551 338.544 1.00852C338.544 0.45153 337.728 0 336.722 0C335.716 0 334.9 0.45153 334.9 1.00852C334.9 1.56551 335.716 2.01704 336.722 2.01704Z" fill="#1B1F20"/>
<path d="M299.884 14.9262C300.491 15.3296 300.491 15.9347 299.884 16.3381C299.277 16.7415 298.063 16.7415 297.455 16.3381C296.848 15.9347 296.848 15.3296 297.455 14.9262C298.063 14.5228 299.075 14.5228 299.884 14.9262Z" fill="#1B1F20"/>
<path d="M304.944 12.9091C305.95 12.9091 306.766 12.4575 306.766 11.9005C306.766 11.3436 305.95 10.892 304.944 10.892C303.938 10.892 303.123 11.3436 303.123 11.9005C303.123 12.4575 303.938 12.9091 304.944 12.9091Z" fill="#1B1F20"/>
<path d="M312.433 7.66472C313.04 8.06813 313.04 8.67324 312.433 9.07665C311.826 9.48006 310.611 9.48006 310.004 9.07665C309.397 8.67324 309.397 8.06813 310.004 7.66472C310.814 7.26132 311.826 7.26132 312.433 7.66472Z" fill="#1B1F20"/>
<path d="M318.91 4.03442C319.517 4.43783 319.517 5.04294 318.91 5.44635C318.303 5.84976 317.088 5.84976 316.481 5.44635C315.874 5.04294 315.874 4.43783 316.481 4.03442C317.088 3.63101 318.303 3.63101 318.91 4.03442Z" fill="#1B1F20"/>
<path d="M325.185 0.201502C325.792 0.60491 325.792 1.21002 325.185 1.61343C324.577 2.01684 323.363 2.01684 322.756 1.61343C322.148 1.21002 322.148 0.60491 322.756 0.201502C323.565 -0.00020171 324.577 -0.00020171 325.185 0.201502Z" fill="#1B1F20"/>
<g clip-path="url(#clip0_14_12562)">
<path d="M209.643 360.378C208.924 360.738 208.924 361.46 209.643 361.82C210.363 362.181 211.443 362.181 212.162 361.82C212.882 361.46 212.882 360.738 212.162 360.378C211.443 360.017 210.363 360.017 209.643 360.378Z" fill="#1B1F20"/>
<path d="M216.3 364.345C215.581 364.705 215.581 365.427 216.3 365.787C217.02 366.148 218.099 366.148 218.819 365.787C219.539 365.427 219.539 364.705 218.819 364.345C218.099 363.804 217.02 363.804 216.3 364.345Z" fill="#1B1F20"/>
<path d="M222.778 368.131C222.058 368.492 222.058 369.213 222.778 369.574C223.497 369.935 224.577 369.935 225.297 369.574C226.016 369.213 226.016 368.492 225.297 368.131C224.757 367.771 223.497 367.771 222.778 368.131Z" fill="#1B1F20"/>
<path d="M229.435 371.197C228.715 371.557 228.715 372.279 229.435 372.639C230.155 373 231.234 373 231.954 372.639C232.674 372.279 232.674 371.557 231.954 371.197C231.234 370.836 230.155 370.836 229.435 371.197Z" fill="#1B1F20"/>
<path d="M231.954 365.787C232.674 365.427 232.674 364.705 231.954 364.345C231.234 363.984 230.155 363.984 229.435 364.345C228.715 364.705 228.715 365.427 229.435 365.787C229.975 366.148 231.234 366.148 231.954 365.787Z" fill="#1B1F20"/>
<path d="M222.778 360.378C222.058 360.738 222.058 361.46 222.778 361.82C223.497 362.181 224.577 362.181 225.297 361.82C226.016 361.46 226.016 360.738 225.297 360.378C224.577 360.017 223.497 360.017 222.778 360.378Z" fill="#1B1F20"/>
<path d="M217.56 358.394C216.566 358.394 215.76 357.91 215.76 357.312C215.76 356.715 216.566 356.23 217.56 356.23C218.553 356.23 219.359 356.715 219.359 357.312C219.359 357.91 218.553 358.394 217.56 358.394Z" fill="#1B1F20"/>
<path d="M244.908 365.787C245.628 365.427 245.628 364.705 244.908 364.345C244.188 363.984 243.109 363.984 242.389 364.345C241.669 364.705 241.669 365.427 242.389 365.787C243.109 366.148 244.368 366.148 244.908 365.787Z" fill="#1B1F20"/>
<path d="M238.431 369.574C239.151 369.213 239.151 368.492 238.431 368.131C237.711 367.771 236.632 367.771 235.912 368.131C235.192 368.492 235.192 369.213 235.912 369.574C236.632 369.935 237.711 369.935 238.431 369.574Z" fill="#1B1F20"/>
<path d="M235.912 360.378C235.192 360.738 235.192 361.46 235.912 361.82C236.632 362.181 237.711 362.181 238.431 361.82C239.151 361.46 239.151 360.738 238.431 360.378C237.711 360.017 236.632 360.017 235.912 360.378Z" fill="#1B1F20"/>
<path d="M230.694 358.394C229.701 358.394 228.895 357.91 228.895 357.312C228.895 356.715 229.701 356.23 230.694 356.23C231.688 356.23 232.494 356.715 232.494 357.312C232.494 357.91 231.688 358.394 230.694 358.394Z" fill="#1B1F20"/>
<path d="M224.037 354.608C223.044 354.608 222.238 354.123 222.238 353.526C222.238 352.928 223.044 352.444 224.037 352.444C225.031 352.444 225.836 352.928 225.836 353.526C225.836 354.123 225.031 354.608 224.037 354.608Z" fill="#1B1F20"/>
<path d="M249.046 360.378C248.327 360.738 248.327 361.46 249.046 361.82C249.766 362.181 250.846 362.181 251.565 361.82C252.285 361.46 252.285 360.738 251.565 360.378C250.846 360.017 249.766 360.017 249.046 360.378Z" fill="#1B1F20"/>
<path d="M242.569 356.591C241.85 356.952 241.85 357.673 242.569 358.034C243.289 358.394 244.368 358.394 245.088 358.034C245.808 357.673 245.808 356.952 245.088 356.591C244.368 356.231 243.289 356.231 242.569 356.591Z" fill="#1B1F20"/>
<path d="M237.171 354.608C236.178 354.608 235.372 354.123 235.372 353.526C235.372 352.928 236.178 352.444 237.171 352.444C238.165 352.444 238.971 352.928 238.971 353.526C238.971 354.123 238.165 354.608 237.171 354.608Z" fill="#1B1F20"/>
<path d="M229.435 349.018C228.715 349.379 228.715 350.1 229.435 350.46C230.155 350.821 231.234 350.821 231.954 350.46C232.674 350.1 232.674 349.379 231.954 349.018C231.234 348.657 230.155 348.657 229.435 349.018Z" fill="#1B1F20"/>
<path d="M258.222 356.591C257.502 356.231 256.423 356.231 255.703 356.591C254.984 356.952 254.984 357.673 255.703 358.034C256.423 358.394 257.502 358.394 258.222 358.034C258.762 357.673 258.762 356.952 258.222 356.591Z" fill="#1B1F20"/>
<path d="M249.046 352.805C248.327 353.165 248.327 353.887 249.046 354.247C249.766 354.608 250.846 354.608 251.565 354.247C252.285 353.887 252.285 353.165 251.565 352.805C250.846 352.444 249.766 352.444 249.046 352.805Z" fill="#1B1F20"/>
<path d="M242.569 349.018C241.85 349.379 241.85 350.1 242.569 350.46C243.289 350.821 244.368 350.821 245.088 350.46C245.808 350.1 245.808 349.379 245.088 349.018C244.368 348.657 243.289 348.657 242.569 349.018Z" fill="#1B1F20"/>
<path d="M235.912 345.231C235.192 345.592 235.192 346.313 235.912 346.674C236.632 347.034 237.711 347.034 238.431 346.674C239.151 346.313 239.151 345.592 238.431 345.231C237.711 344.871 236.632 344.871 235.912 345.231Z" fill="#1B1F20"/>
<path d="M262.181 352.805C261.461 353.165 261.461 353.887 262.181 354.247C262.9 354.608 263.98 354.608 264.699 354.247C265.419 353.887 265.419 353.165 264.699 352.805C263.98 352.444 262.9 352.444 262.181 352.805Z" fill="#1B1F20"/>
<path d="M255.704 349.018C254.984 349.379 254.984 350.1 255.704 350.46C256.423 350.821 257.503 350.821 258.222 350.46C258.942 350.1 258.942 349.379 258.222 349.018C257.503 348.657 256.243 348.657 255.704 349.018Z" fill="#1B1F20"/>
<path d="M249.046 345.231C248.327 345.592 248.327 346.313 249.046 346.674C249.766 347.034 250.846 347.034 251.565 346.674C252.285 346.313 252.285 345.592 251.565 345.231C250.846 344.871 249.766 344.871 249.046 345.231Z" fill="#1B1F20"/>
<path d="M242.569 341.445C241.85 341.805 241.85 342.527 242.569 342.887C243.289 343.248 244.368 343.248 245.088 342.887C245.808 342.527 245.808 341.805 245.088 341.445C244.368 341.084 243.289 341.084 242.569 341.445Z" fill="#1B1F20"/>
<path d="M268.658 349.018C267.938 349.379 267.938 350.1 268.658 350.46C269.377 350.821 270.457 350.821 271.177 350.46C271.896 350.1 271.896 349.379 271.177 349.018C270.637 348.657 269.377 348.657 268.658 349.018Z" fill="#1B1F20"/>
<path d="M262.181 345.231C261.461 345.592 261.461 346.313 262.181 346.674C262.9 347.034 263.98 347.034 264.699 346.674C265.419 346.313 265.419 345.592 264.699 345.231C263.98 344.871 262.9 344.871 262.181 345.231Z" fill="#1B1F20"/>
<path d="M255.704 341.445C254.984 341.805 254.984 342.527 255.704 342.887C256.423 343.248 257.503 343.248 258.222 342.887C258.942 342.527 258.942 341.805 258.222 341.445C257.503 341.084 256.243 341.084 255.704 341.445Z" fill="#1B1F20"/>
<path d="M249.046 337.658C248.327 338.019 248.327 338.74 249.046 339.101C249.766 339.461 250.846 339.461 251.565 339.101C252.285 338.74 252.285 338.019 251.565 337.658C250.846 337.297 249.766 337.297 249.046 337.658Z" fill="#1B1F20"/>
<path d="M275.315 345.231C274.595 345.592 274.595 346.313 275.315 346.674C276.035 347.034 277.114 347.034 277.834 346.674C278.553 346.313 278.553 345.592 277.834 345.231C277.114 344.871 276.035 344.871 275.315 345.231Z" fill="#1B1F20"/>
<path d="M268.658 341.445C267.938 341.805 267.938 342.527 268.658 342.887C269.377 343.248 270.457 343.248 271.177 342.887C271.896 342.527 271.896 341.805 271.177 341.445C270.637 341.084 269.377 341.084 268.658 341.445Z" fill="#1B1F20"/>
<path d="M262.181 337.658C261.461 338.019 261.461 338.74 262.181 339.101C262.9 339.461 263.98 339.461 264.699 339.101C265.419 338.74 265.419 338.019 264.699 337.658C263.98 337.297 262.9 337.297 262.181 337.658Z" fill="#1B1F20"/>
<path d="M255.704 333.871C254.984 334.232 254.984 334.953 255.704 335.314C256.423 335.675 257.503 335.675 258.222 335.314C258.942 334.953 258.942 334.232 258.222 333.871C257.503 333.511 256.243 333.511 255.704 333.871Z" fill="#1B1F20"/>
<path d="M281.792 341.445C281.073 341.805 281.073 342.527 281.792 342.887C282.512 343.248 283.592 343.248 284.311 342.887C285.031 342.527 285.031 341.805 284.311 341.445C283.592 341.084 282.512 341.084 281.792 341.445Z" fill="#1B1F20"/>
<path d="M275.315 337.658C274.595 338.019 274.595 338.74 275.315 339.101C276.035 339.461 277.114 339.461 277.834 339.101C278.553 338.74 278.553 338.019 277.834 337.658C277.114 337.297 276.035 337.297 275.315 337.658Z" fill="#1B1F20"/>
<path d="M268.658 333.871C267.938 334.232 267.938 334.953 268.658 335.314C269.377 335.675 270.457 335.675 271.177 335.314C271.896 334.953 271.896 334.232 271.177 333.871C270.637 333.511 269.377 333.511 268.658 333.871Z" fill="#1B1F20"/>
<path d="M262.181 330.085C261.461 330.445 261.461 331.167 262.181 331.527C262.9 331.888 263.98 331.888 264.699 331.527C265.419 331.167 265.419 330.445 264.699 330.085C263.98 329.724 262.9 329.724 262.181 330.085Z" fill="#1B1F20"/>
<path d="M288.449 337.658C287.729 338.019 287.729 338.74 288.449 339.101C289.169 339.461 290.248 339.461 290.968 339.101C291.688 338.74 291.688 338.019 290.968 337.658C290.248 337.297 289.169 337.297 288.449 337.658Z" fill="#1B1F20"/>
<path d="M281.792 333.871C281.073 334.232 281.073 334.953 281.792 335.314C282.512 335.675 283.592 335.675 284.311 335.314C285.031 334.953 285.031 334.232 284.311 333.871C283.592 333.511 282.512 333.511 281.792 333.871Z" fill="#1B1F20"/>
<path d="M275.315 330.085C274.595 330.445 274.595 331.167 275.315 331.527C276.035 331.888 277.114 331.888 277.834 331.527C278.553 331.167 278.553 330.445 277.834 330.085C277.114 329.724 276.035 329.724 275.315 330.085Z" fill="#1B1F20"/>
<path d="M268.658 326.298C267.938 326.659 267.938 327.38 268.658 327.741C269.377 328.101 270.457 328.101 271.177 327.741C271.896 327.38 271.896 326.659 271.177 326.298C270.637 325.937 269.377 325.937 268.658 326.298Z" fill="#1B1F20"/>
<path d="M294.927 333.871C294.207 334.232 294.207 334.953 294.927 335.314C295.646 335.675 296.726 335.675 297.446 335.314C298.165 334.953 298.165 334.232 297.446 333.871C296.726 333.511 295.646 333.511 294.927 333.871Z" fill="#1B1F20"/>
<path d="M288.449 330.085C287.729 330.445 287.729 331.167 288.449 331.527C289.169 331.888 290.248 331.888 290.968 331.527C291.688 331.167 291.688 330.445 290.968 330.085C290.248 329.724 289.169 329.724 288.449 330.085Z" fill="#1B1F20"/>
<path d="M281.792 326.298C281.073 326.659 281.073 327.38 281.792 327.741C282.512 328.101 283.592 328.101 284.311 327.741C285.031 327.38 285.031 326.659 284.311 326.298C283.592 325.937 282.512 325.937 281.792 326.298Z" fill="#1B1F20"/>
<path d="M275.315 322.512C274.595 322.872 274.595 323.593 275.315 323.954C276.035 324.315 277.114 324.315 277.834 323.954C278.553 323.593 278.553 322.872 277.834 322.512C277.114 322.151 276.035 322.151 275.315 322.512Z" fill="#1B1F20"/>
<path d="M301.584 330.085C300.864 330.445 300.864 331.167 301.584 331.527C302.304 331.888 303.383 331.888 304.103 331.527C304.823 331.167 304.823 330.445 304.103 330.085C303.383 329.724 302.304 329.724 301.584 330.085Z" fill="#1B1F20"/>
<path d="M294.927 326.298C294.207 326.659 294.207 327.38 294.927 327.741C295.646 328.101 296.726 328.101 297.446 327.741C298.165 327.38 298.165 326.659 297.446 326.298C296.726 325.937 295.646 325.937 294.927 326.298Z" fill="#1B1F20"/>
<path d="M288.449 322.512C287.729 322.872 287.729 323.593 288.449 323.954C289.169 324.315 290.248 324.315 290.968 323.954C291.688 323.593 291.688 322.872 290.968 322.512C290.248 322.151 289.169 322.151 288.449 322.512Z" fill="#1B1F20"/>
<path d="M281.972 318.725C281.252 319.086 281.252 319.807 281.972 320.167C282.692 320.528 283.771 320.528 284.491 320.167C285.211 319.807 285.211 319.086 284.491 318.725C283.771 318.364 282.512 318.364 281.972 318.725Z" fill="#1B1F20"/>
<path d="M308.061 326.298C307.341 326.659 307.341 327.38 308.061 327.741C308.781 328.101 309.86 328.101 310.58 327.741C311.3 327.38 311.3 326.659 310.58 326.298C309.86 325.937 308.781 325.937 308.061 326.298Z" fill="#1B1F20"/>
<path d="M301.584 322.512C300.864 322.872 300.864 323.593 301.584 323.954C302.304 324.315 303.383 324.315 304.103 323.954C304.823 323.593 304.823 322.872 304.103 322.512C303.383 322.151 302.304 322.151 301.584 322.512Z" fill="#1B1F20"/>
<path d="M294.927 318.725C294.207 319.086 294.207 319.807 294.927 320.167C295.646 320.528 296.726 320.528 297.446 320.167C298.165 319.807 298.165 319.086 297.446 318.725C296.726 318.364 295.646 318.364 294.927 318.725Z" fill="#1B1F20"/>
<path d="M309.32 320.528C308.327 320.528 307.521 320.044 307.521 319.446C307.521 318.849 308.327 318.364 309.32 318.364C310.314 318.364 311.12 318.849 311.12 319.446C311.12 320.044 310.314 320.528 309.32 320.528Z" fill="#1B1F20"/>
<path d="M301.584 314.938C300.864 315.299 300.864 316.02 301.584 316.381C302.304 316.742 303.383 316.742 304.103 316.381C304.823 316.02 304.823 315.299 304.103 314.938C303.383 314.578 302.304 314.578 301.584 314.938Z" fill="#1B1F20"/>
<path d="M308.061 311.152C307.341 311.512 307.341 312.234 308.061 312.594C308.781 312.955 309.86 312.955 310.58 312.594C311.3 312.234 311.3 311.512 310.58 311.152C309.86 310.791 308.781 310.791 308.061 311.152Z" fill="#1B1F20"/>
<path d="M199.028 360.558C198.308 360.197 197.229 360.197 196.509 360.558C195.789 360.919 195.789 361.64 196.509 362.001C197.229 362.361 198.308 362.361 199.028 362.001C199.748 361.64 199.748 360.919 199.028 360.558Z" fill="#1B1F20"/>
<path d="M206.845 365.23C206.125 364.869 205.045 364.869 204.326 365.23C203.606 365.591 203.606 366.312 204.326 366.673C205.045 367.033 206.125 367.033 206.845 366.673C207.564 366.312 207.564 365.591 206.845 365.23Z" fill="#1B1F20"/>
<path d="M215.043 368.967C214.323 368.607 213.243 368.607 212.524 368.967C211.804 369.328 211.804 370.049 212.524 370.41C213.243 370.771 214.323 370.771 215.043 370.41C215.762 370.049 215.762 369.328 215.043 368.967Z" fill="#1B1F20"/>
<path d="M221.013 372.137C220.294 371.776 219.214 371.776 218.495 372.137C217.775 372.497 217.775 373.218 218.495 373.579C219.214 373.94 220.294 373.94 221.013 373.579C221.733 373.218 221.733 372.497 221.013 372.137Z" fill="#1B1F20"/>
<path d="M190.032 356.772C189.312 357.132 189.312 357.853 190.032 358.214C190.751 358.575 191.831 358.575 192.551 358.214C193.27 357.853 193.27 357.132 192.551 356.772C191.831 356.411 190.751 356.411 190.032 356.772Z" fill="#1B1F20"/>
<path d="M183.555 352.985C182.835 353.346 182.835 354.067 183.555 354.427C184.274 354.788 185.354 354.788 186.074 354.427C186.793 354.067 186.793 353.346 186.074 352.985C185.354 352.444 184.094 352.444 183.555 352.985Z" fill="#1B1F20"/>
<path d="M176.897 349.198C176.178 349.559 176.178 350.28 176.897 350.641C177.617 351.001 178.697 351.001 179.416 350.641C180.136 350.28 180.136 349.559 179.416 349.198C178.697 348.657 177.617 348.657 176.897 349.198Z" fill="#1B1F20"/>
<path d="M170.42 345.412C169.7 345.772 169.7 346.494 170.42 346.854C171.14 347.215 172.219 347.215 172.939 346.854C173.658 346.494 173.658 345.772 172.939 345.412C172.219 344.871 171.14 344.871 170.42 345.412Z" fill="#1B1F20"/>
<path d="M163.763 341.625C163.043 341.986 163.043 342.707 163.763 343.068C164.483 343.428 165.562 343.428 166.282 343.068C167.002 342.707 167.002 341.986 166.282 341.625C165.562 341.084 164.483 341.084 163.763 341.625Z" fill="#1B1F20"/>
<path d="M157.286 337.838C156.566 338.199 156.566 338.92 157.286 339.281C158.005 339.642 159.085 339.642 159.804 339.281C160.524 338.92 160.524 338.199 159.804 337.838C159.085 337.298 158.005 337.298 157.286 337.838Z" fill="#1B1F20"/>
<path d="M151.888 335.855C150.894 335.855 150.089 335.37 150.089 334.773C150.089 334.175 150.894 333.691 151.888 333.691C152.881 333.691 153.687 334.175 153.687 334.773C153.687 335.37 152.881 335.855 151.888 335.855Z" fill="#1B1F20"/>
<path d="M144.151 330.265C143.432 330.626 143.432 331.347 144.151 331.708C144.871 332.068 145.95 332.068 146.67 331.708C147.39 331.347 147.39 330.626 146.67 330.265C145.95 329.724 144.871 329.724 144.151 330.265Z" fill="#1B1F20"/>
<path d="M137.674 326.479C136.955 326.839 136.955 327.56 137.674 327.921C138.394 328.282 139.473 328.282 140.193 327.921C140.913 327.56 140.913 326.839 140.193 326.479C139.473 325.938 138.394 325.938 137.674 326.479Z" fill="#1B1F20"/>
<path d="M131.017 322.692C130.297 323.052 130.297 323.774 131.017 324.134C131.737 324.495 132.816 324.495 133.536 324.134C134.256 323.774 134.256 323.052 133.536 322.692C132.816 322.151 131.737 322.151 131.017 322.692Z" fill="#1B1F20"/>
<path d="M124.539 318.725C123.82 319.086 123.82 319.807 124.539 320.167C125.259 320.528 126.339 320.528 127.058 320.167C127.778 319.807 127.778 319.086 127.058 318.725C126.339 318.364 125.259 318.364 124.539 318.725Z" fill="#1B1F20"/>
<path d="M205.685 356.772C204.965 356.411 203.886 356.411 203.166 356.772C202.446 357.132 202.446 357.853 203.166 358.214C203.886 358.575 204.965 358.575 205.685 358.214C206.405 357.853 206.405 357.132 205.685 356.772Z" fill="#1B1F20"/>
<path d="M196.509 352.985C195.789 353.346 195.789 354.067 196.509 354.427C197.228 354.788 198.308 354.788 199.028 354.427C199.747 354.067 199.747 353.346 199.028 352.985C198.488 352.444 197.228 352.444 196.509 352.985Z" fill="#1B1F20"/>
<path d="M191.291 351.001C190.297 351.001 189.492 350.517 189.492 349.92C189.492 349.322 190.297 348.838 191.291 348.838C192.285 348.838 193.09 349.322 193.09 349.92C193.09 350.517 192.285 351.001 191.291 351.001Z" fill="#1B1F20"/>
<path d="M183.555 345.412C182.835 345.772 182.835 346.494 183.555 346.854C184.274 347.215 185.354 347.215 186.074 346.854C186.793 346.494 186.793 345.772 186.074 345.412C185.354 344.871 184.094 344.871 183.555 345.412Z" fill="#1B1F20"/>
<path d="M176.897 341.625C176.178 341.986 176.178 342.707 176.897 343.068C177.617 343.428 178.697 343.428 179.416 343.068C180.136 342.707 180.136 341.986 179.416 341.625C178.697 341.084 177.617 341.084 176.897 341.625Z" fill="#1B1F20"/>
<path d="M170.42 337.838C169.7 338.199 169.7 338.92 170.42 339.281C171.14 339.642 172.219 339.642 172.939 339.281C173.658 338.92 173.658 338.199 172.939 337.838C172.219 337.298 171.14 337.298 170.42 337.838Z" fill="#1B1F20"/>
<path d="M163.763 334.052C163.043 334.412 163.043 335.134 163.763 335.494C164.483 335.855 165.562 335.855 166.282 335.494C167.002 335.134 167.002 334.412 166.282 334.052C165.562 333.511 164.483 333.511 163.763 334.052Z" fill="#1B1F20"/>
<path d="M157.286 330.265C156.566 330.626 156.566 331.347 157.286 331.708C158.005 332.068 159.085 332.068 159.804 331.708C160.524 331.347 160.524 330.626 159.804 330.265C159.085 329.724 158.005 329.724 157.286 330.265Z" fill="#1B1F20"/>
<path d="M150.809 326.479C150.089 326.839 150.089 327.56 150.809 327.921C151.528 328.282 152.608 328.282 153.327 327.921C154.047 327.56 154.047 326.839 153.327 326.479C152.608 325.938 151.348 325.938 150.809 326.479Z" fill="#1B1F20"/>
<path d="M144.151 322.692C143.432 323.052 143.432 323.774 144.151 324.134C144.871 324.495 145.95 324.495 146.67 324.134C147.39 323.774 147.39 323.052 146.67 322.692C145.95 322.151 144.871 322.151 144.151 322.692Z" fill="#1B1F20"/>
<path d="M137.674 318.725C136.955 319.086 136.955 319.807 137.674 320.167C138.394 320.528 139.473 320.528 140.193 320.167C140.913 319.807 140.913 319.086 140.193 318.725C139.473 318.364 138.394 318.364 137.674 318.725Z" fill="#1B1F20"/>
<path d="M131.017 314.938C130.297 315.299 130.297 316.02 131.017 316.381C131.737 316.742 132.816 316.742 133.536 316.381C134.256 316.02 134.256 315.299 133.536 314.938C132.816 314.578 131.737 314.578 131.017 314.938Z" fill="#1B1F20"/>
<path d="M125.799 312.955C124.805 312.955 124 312.47 124 311.873C124 311.275 124.805 310.791 125.799 310.791C126.793 310.791 127.598 311.275 127.598 311.873C127.598 312.47 126.793 312.955 125.799 312.955Z" fill="#1B1F20"/>
<path d="M212.162 352.985C211.443 352.624 210.363 352.624 209.643 352.985C208.924 353.345 208.924 354.067 209.643 354.427C210.363 354.788 211.443 354.788 212.162 354.427C212.882 354.067 212.882 353.345 212.162 352.985Z" fill="#1B1F20"/>
<path d="M203.166 349.198C202.446 349.559 202.446 350.28 203.166 350.641C203.886 351.001 204.965 351.001 205.685 350.641C206.405 350.28 206.405 349.559 205.685 349.198C204.965 348.657 203.886 348.657 203.166 349.198Z" fill="#1B1F20"/>
<path d="M196.509 345.412C195.789 345.772 195.789 346.494 196.509 346.854C197.228 347.215 198.308 347.215 199.028 346.854C199.747 346.494 199.747 345.772 199.028 345.412C198.488 344.871 197.228 344.871 196.509 345.412Z" fill="#1B1F20"/>
<path d="M190.032 341.625C189.312 341.986 189.312 342.707 190.032 343.068C190.751 343.428 191.831 343.428 192.551 343.068C193.27 342.707 193.27 341.986 192.551 341.625C191.831 341.084 190.751 341.084 190.032 341.625Z" fill="#1B1F20"/>
<path d="M183.555 337.838C182.835 338.199 182.835 338.92 183.555 339.281C184.274 339.642 185.354 339.642 186.074 339.281C186.793 338.92 186.793 338.199 186.074 337.838C185.354 337.298 184.094 337.298 183.555 337.838Z" fill="#1B1F20"/>
<path d="M176.897 334.052C176.178 334.412 176.178 335.134 176.897 335.494C177.617 335.855 178.697 335.855 179.416 335.494C180.136 335.134 180.136 334.412 179.416 334.052C178.697 333.511 177.617 333.511 176.897 334.052Z" fill="#1B1F20"/>
<path d="M170.42 330.265C169.7 330.626 169.7 331.347 170.42 331.708C171.14 332.068 172.219 332.068 172.939 331.708C173.658 331.347 173.658 330.626 172.939 330.265C172.219 329.724 171.14 329.724 170.42 330.265Z" fill="#1B1F20"/>
<path d="M163.763 326.479C163.043 326.839 163.043 327.56 163.763 327.921C164.483 328.282 165.562 328.282 166.282 327.921C167.002 327.56 167.002 326.839 166.282 326.479C165.562 325.938 164.483 325.938 163.763 326.479Z" fill="#1B1F20"/>
<path d="M157.286 322.692C156.566 323.052 156.566 323.774 157.286 324.134C158.005 324.495 159.085 324.495 159.804 324.134C160.524 323.774 160.524 323.052 159.804 322.692C159.085 322.151 158.005 322.151 157.286 322.692Z" fill="#1B1F20"/>
<path d="M150.809 318.725C150.089 319.086 150.089 319.807 150.809 320.167C151.528 320.528 152.608 320.528 153.327 320.167C154.047 319.807 154.047 319.086 153.327 318.725C152.608 318.364 151.348 318.364 150.809 318.725Z" fill="#1B1F20"/>
<path d="M144.151 314.938C143.432 315.299 143.432 316.02 144.151 316.381C144.871 316.742 145.95 316.742 146.67 316.381C147.39 316.02 147.39 315.299 146.67 314.938C145.95 314.578 144.871 314.578 144.151 314.938Z" fill="#1B1F20"/>
<path d="M137.674 311.152C136.955 311.512 136.955 312.234 137.674 312.594C138.394 312.955 139.473 312.955 140.193 312.594C140.913 312.234 140.913 311.512 140.193 311.152C139.473 310.791 138.394 310.791 137.674 311.152Z" fill="#1B1F20"/>
<path d="M131.017 307.365C130.297 307.726 130.297 308.447 131.017 308.807C131.737 309.168 132.816 309.168 133.536 308.807C134.256 308.447 134.256 307.726 133.536 307.365C132.816 307.004 131.737 307.004 131.017 307.365Z" fill="#1B1F20"/>
<path d="M218.819 349.198C218.1 348.838 217.02 348.838 216.3 349.198C215.581 349.559 215.581 350.28 216.3 350.641C217.02 351.001 218.1 351.001 218.819 350.641C219.359 350.28 219.359 349.559 218.819 349.198Z" fill="#1B1F20"/>
<path d="M209.643 345.412C208.924 345.772 208.924 346.494 209.643 346.854C210.363 347.215 211.443 347.215 212.162 346.854C212.882 346.494 212.882 345.772 212.162 345.412C211.443 344.871 210.363 344.871 209.643 345.412Z" fill="#1B1F20"/>
<path d="M203.166 341.625C202.446 341.986 202.446 342.707 203.166 343.068C203.886 343.428 204.965 343.428 205.685 343.068C206.405 342.707 206.405 341.986 205.685 341.625C204.965 341.084 203.886 341.084 203.166 341.625Z" fill="#1B1F20"/>
<path d="M196.509 337.838C195.789 338.199 195.789 338.92 196.509 339.281C197.228 339.642 198.308 339.642 199.028 339.281C199.747 338.92 199.747 338.199 199.028 337.838C198.488 337.298 197.228 337.298 196.509 337.838Z" fill="#1B1F20"/>
<path d="M190.032 334.052C189.312 334.412 189.312 335.134 190.032 335.494C190.751 335.855 191.831 335.855 192.551 335.494C193.27 335.134 193.27 334.412 192.551 334.052C191.831 333.511 190.751 333.511 190.032 334.052Z" fill="#1B1F20"/>
<path d="M183.555 330.265C182.835 330.626 182.835 331.347 183.555 331.708C184.274 332.068 185.354 332.068 186.074 331.708C186.793 331.347 186.793 330.626 186.074 330.265C185.354 329.724 184.094 329.724 183.555 330.265Z" fill="#1B1F20"/>
<path d="M176.897 326.479C176.178 326.839 176.178 327.56 176.897 327.921C177.617 328.282 178.697 328.282 179.416 327.921C180.136 327.56 180.136 326.839 179.416 326.479C178.697 325.938 177.617 325.938 176.897 326.479Z" fill="#1B1F20"/>
<path d="M170.42 322.692C169.7 323.052 169.7 323.774 170.42 324.134C171.14 324.495 172.219 324.495 172.939 324.134C173.658 323.774 173.658 323.052 172.939 322.692C172.219 322.151 171.14 322.151 170.42 322.692Z" fill="#1B1F20"/>
<path d="M163.763 318.725C163.043 319.086 163.043 319.807 163.763 320.167C164.483 320.528 165.562 320.528 166.282 320.167C167.002 319.807 167.002 319.086 166.282 318.725C165.562 318.364 164.483 318.364 163.763 318.725Z" fill="#1B1F20"/>
<path d="M157.286 314.938C156.566 315.299 156.566 316.02 157.286 316.381C158.005 316.742 159.085 316.742 159.804 316.381C160.524 316.02 160.524 315.299 159.804 314.938C159.085 314.578 158.005 314.578 157.286 314.938Z" fill="#1B1F20"/>
<path d="M150.809 311.152C150.089 311.512 150.089 312.234 150.809 312.594C151.528 312.955 152.608 312.955 153.327 312.594C154.047 312.234 154.047 311.512 153.327 311.152C152.608 310.791 151.348 310.791 150.809 311.152Z" fill="#1B1F20"/>
<path d="M144.151 307.365C143.432 307.726 143.432 308.447 144.151 308.807C144.871 309.168 145.95 309.168 146.67 308.807C147.39 308.447 147.39 307.726 146.67 307.365C145.95 307.004 144.871 307.004 144.151 307.365Z" fill="#1B1F20"/>
<path d="M144.151 300.27C143.432 300.631 143.432 301.352 144.151 301.713C144.871 302.074 145.95 302.074 146.67 301.713C147.39 301.352 147.39 300.631 146.67 300.27C145.95 299.91 144.871 299.91 144.151 300.27Z" fill="#1B1F20"/>
<path d="M150.54 297.27C149.82 297.631 149.82 298.352 150.54 298.713C151.26 299.074 152.339 299.074 153.059 298.713C153.779 298.352 153.779 297.631 153.059 297.27C152.339 296.91 151.26 296.91 150.54 297.27Z" fill="#1B1F20"/>
<path d="M138.934 305.382C137.94 305.382 137.134 304.897 137.134 304.3C137.134 303.702 137.94 303.218 138.934 303.218C139.927 303.218 140.733 303.702 140.733 304.3C140.733 304.897 139.927 305.382 138.934 305.382Z" fill="#1B1F20"/>
<path d="M225.297 345.231C224.577 344.871 223.497 344.871 222.778 345.231C222.058 345.592 222.058 346.313 222.778 346.674C223.497 347.034 224.577 347.034 225.297 346.674C226.016 346.313 226.016 345.772 225.297 345.231Z" fill="#1B1F20"/>
<path d="M216.3 341.445C215.581 341.805 215.581 342.527 216.3 342.887C217.02 343.248 218.099 343.248 218.819 342.887C219.539 342.527 219.539 341.805 218.819 341.445C218.099 341.084 217.02 341.084 216.3 341.445Z" fill="#1B1F20"/>
<path d="M211.083 339.461C210.089 339.461 209.283 338.977 209.283 338.379C209.283 337.782 210.089 337.297 211.083 337.297C212.076 337.297 212.882 337.782 212.882 338.379C212.882 338.977 212.076 339.461 211.083 339.461Z" fill="#1B1F20"/>
<path d="M203.166 333.871C202.446 334.232 202.446 334.953 203.166 335.314C203.886 335.675 204.965 335.675 205.685 335.314C206.405 334.953 206.405 334.232 205.685 333.871C204.965 333.511 203.886 333.511 203.166 333.871Z" fill="#1B1F20"/>
<path d="M196.689 330.085C195.969 330.445 195.969 331.167 196.689 331.527C197.409 331.888 198.488 331.888 199.208 331.527C199.927 331.167 199.927 330.445 199.208 330.085C198.488 329.724 197.409 329.724 196.689 330.085Z" fill="#1B1F20"/>
<path d="M190.032 326.298C189.312 326.659 189.312 327.38 190.032 327.741C190.751 328.101 191.831 328.101 192.551 327.741C193.27 327.38 193.27 326.659 192.551 326.298C191.831 325.937 190.751 325.937 190.032 326.298Z" fill="#1B1F20"/>
<path d="M183.555 322.512C182.835 322.872 182.835 323.593 183.555 323.954C184.274 324.315 185.354 324.315 186.074 323.954C186.793 323.593 186.793 322.872 186.074 322.512C185.354 322.151 184.274 322.151 183.555 322.512Z" fill="#1B1F20"/>
<path d="M177.077 318.725C176.357 319.086 176.357 319.807 177.077 320.167C177.797 320.528 178.876 320.528 179.596 320.167C180.316 319.807 180.316 319.086 179.596 318.725C178.876 318.364 177.617 318.364 177.077 318.725Z" fill="#1B1F20"/>
<path d="M170.42 314.938C169.7 315.299 169.7 316.02 170.42 316.381C171.14 316.742 172.219 316.742 172.939 316.381C173.658 316.02 173.658 315.299 172.939 314.938C172.219 314.578 171.14 314.578 170.42 314.938Z" fill="#1B1F20"/>
<path d="M165.202 312.955C164.209 312.955 163.403 312.47 163.403 311.873C163.403 311.275 164.209 310.791 165.202 310.791C166.196 310.791 167.001 311.275 167.001 311.873C167.001 312.47 166.196 312.955 165.202 312.955Z" fill="#1B1F20"/>
<path d="M159.804 307.365C159.085 307.004 158.005 307.004 157.286 307.365C156.566 307.726 156.566 308.447 157.286 308.807C158.005 309.168 159.085 309.168 159.804 308.807C160.524 308.447 160.524 307.726 159.804 307.365C159.085 307.004 160.524 307.726 159.804 307.365Z" fill="#1B1F20"/>
<path d="M153.059 303.27C152.339 302.91 151.26 302.91 150.54 303.27C149.82 303.631 149.82 304.352 150.54 304.713C151.26 305.074 152.339 305.074 153.059 304.713C153.779 304.352 153.779 303.631 153.059 303.27C152.339 302.91 153.779 303.631 153.059 303.27Z" fill="#1B1F20"/>
<path d="M231.954 341.445C231.234 341.084 230.155 341.084 229.435 341.445C228.715 341.805 228.715 342.527 229.435 342.887C230.155 343.248 231.234 343.248 231.954 342.887C232.674 342.527 232.674 341.986 231.954 341.445Z" fill="#1B1F20"/>
<path d="M222.778 337.658C222.058 338.019 222.058 338.74 222.778 339.101C223.497 339.461 224.577 339.461 225.297 339.101C226.016 338.74 226.016 338.019 225.297 337.658C224.577 337.297 223.497 337.297 222.778 337.658Z" fill="#1B1F20"/>
<path d="M216.3 333.871C215.581 334.232 215.581 334.953 216.3 335.314C217.02 335.675 218.099 335.675 218.819 335.314C219.539 334.953 219.539 334.232 218.819 333.871C218.099 333.511 217.02 333.511 216.3 333.871Z" fill="#1B1F20"/>
<path d="M209.823 330.085C209.103 330.445 209.103 331.167 209.823 331.527C210.543 331.888 211.622 331.888 212.342 331.527C213.062 331.167 213.062 330.445 212.342 330.085C211.622 329.724 210.363 329.724 209.823 330.085Z" fill="#1B1F20"/>
<path d="M203.166 326.298C202.446 326.659 202.446 327.38 203.166 327.741C203.886 328.101 204.965 328.101 205.685 327.741C206.405 327.38 206.405 326.659 205.685 326.298C204.965 325.937 203.886 325.937 203.166 326.298Z" fill="#1B1F20"/>
<path d="M196.689 322.512C195.969 322.872 195.969 323.593 196.689 323.954C197.409 324.315 198.488 324.315 199.208 323.954C199.927 323.593 199.927 322.872 199.208 322.512C198.488 322.151 197.409 322.151 196.689 322.512Z" fill="#1B1F20"/>
<path d="M190.032 318.725C189.312 319.085 189.312 319.807 190.032 320.167C190.752 320.528 191.831 320.528 192.551 320.167C193.27 319.807 190.752 318.364 190.032 318.725Z" fill="#1B1F20"/>
<path d="M183.554 314.938C182.835 315.299 182.835 316.02 183.554 316.381C184.274 316.742 185.354 316.742 186.073 316.381C186.793 316.02 184.274 314.578 183.554 314.938Z" fill="#1B1F20"/>
<path d="M238.431 337.658C237.711 337.297 236.632 337.297 235.912 337.658C235.192 338.019 235.192 338.74 235.912 339.101C236.632 339.461 237.711 339.461 238.431 339.101C239.151 338.74 239.151 338.199 238.431 337.658Z" fill="#1B1F20"/>
<path d="M229.435 333.871C228.715 334.232 228.715 334.953 229.435 335.314C230.155 335.675 231.234 335.675 231.954 335.314C232.674 334.953 232.674 334.232 231.954 333.871C231.234 333.511 230.155 333.511 229.435 333.871Z" fill="#1B1F20"/>
<path d="M222.778 330.085C222.058 330.445 222.058 331.167 222.778 331.527C223.497 331.888 224.577 331.888 225.297 331.527C226.016 331.167 226.016 330.445 225.297 330.085C224.577 329.724 223.497 329.724 222.778 330.085Z" fill="#1B1F20"/>
<path d="M216.3 326.298C215.581 326.659 215.581 327.38 216.3 327.741C217.02 328.101 218.099 328.101 218.819 327.741C219.539 327.38 219.539 326.659 218.819 326.298C218.099 325.937 217.02 325.937 216.3 326.298Z" fill="#1B1F20"/>
<path d="M245.088 333.871C244.368 333.511 243.289 333.511 242.569 333.871C241.849 334.232 241.849 334.953 242.569 335.314C243.289 335.675 244.368 335.675 245.088 335.314C245.628 334.953 245.628 334.412 245.088 333.871Z" fill="#1B1F20"/>
<path d="M235.912 330.085C235.192 330.445 235.192 331.167 235.912 331.527C236.632 331.888 237.711 331.888 238.431 331.527C239.151 331.167 239.151 330.445 238.431 330.085C237.711 329.724 236.632 329.724 235.912 330.085Z" fill="#1B1F20"/>
<path d="M229.435 326.298C228.715 326.659 228.715 327.38 229.435 327.741C230.155 328.101 231.234 328.101 231.954 327.741C232.674 327.38 232.674 326.659 231.954 326.298C231.234 325.937 230.155 325.937 229.435 326.298Z" fill="#1B1F20"/>
<path d="M251.565 330.085C250.846 329.724 249.766 329.724 249.046 330.085C248.327 330.445 248.327 331.167 249.046 331.527C249.766 331.888 250.846 331.888 251.565 331.527C252.285 331.167 252.285 330.626 251.565 330.085Z" fill="#1B1F20"/>
<path d="M242.569 326.298C241.85 326.659 241.85 327.38 242.569 327.741C243.289 328.101 244.368 328.101 245.088 327.741C245.808 327.38 245.808 326.659 245.088 326.298C244.368 325.937 243.109 325.937 242.569 326.298Z" fill="#1B1F20"/>
<path d="M258.042 326.298C257.323 325.937 256.243 325.937 255.523 326.298C254.804 326.659 254.804 327.38 255.523 327.741C256.243 328.101 257.323 328.101 258.042 327.741C258.762 327.38 258.762 326.839 258.042 326.298Z" fill="#1B1F20"/>
<path d="M230.154 258.565L355.92 185.718L261.641 131.082L135.875 203.929L230.154 258.565Z" fill="#00B6DA"/>
<path d="M355.92 185.717V282.907L230.154 355.575V258.565L355.92 185.717Z" fill="#00B6DA"/>
<path d="M230.154 270.466L355.92 197.799L261.641 143.163L135.875 216.011L230.154 270.466Z" fill="#CCF7FF"/>
<path d="M261.281 130.361L261.641 130L357 185.177V283.449L230.154 356.837L135.335 302.021L134.795 301.66V203.388L261.281 130.361ZM231.234 353.952L355.021 282.367V187.521L294.207 222.682L231.234 259.106V353.952ZM353.941 185.718L261.641 132.344L138.034 203.929L230.154 257.303L353.941 185.718Z" fill="#1B1F20"/>
<path d="M328.212 291.743L340.447 284.53C342.966 283.088 345.125 279.121 345.125 275.695V263.073C345.125 259.647 343.146 258.204 340.447 259.647L328.212 266.859C325.693 268.302 323.534 272.269 323.534 275.695V288.317C323.714 291.563 325.693 293.185 328.212 291.743Z" fill="#CCF7FF"/>
<path d="M330.731 288.678L342.426 282.006C345.485 280.203 348.004 275.875 348.004 272.269V258.745C348.004 255.139 345.485 253.696 342.426 255.5L330.731 262.171C327.673 263.974 325.154 268.302 325.154 271.908V285.432C325.154 289.038 327.673 290.481 330.731 288.678ZM342.426 257.122C344.765 255.68 346.744 256.942 346.744 259.647V273.171C346.744 275.875 344.765 279.301 342.426 280.563L330.731 287.235C328.392 288.678 326.413 287.415 326.413 284.711V271.187C326.413 268.482 328.392 265.056 330.731 263.794L342.426 257.122Z" fill="#1B1F20"/>
<path d="M330.371 275.154C330.012 275.334 329.652 275.154 329.832 274.613C330.551 271.367 332.89 267.941 335.589 266.318C338.288 264.696 340.627 265.597 341.347 267.941C341.527 268.302 341.167 268.843 340.807 269.023L330.371 275.154Z" fill="#00B6DA"/>
<path d="M331.451 273.892L341.886 267.941C342.246 267.761 342.606 267.22 342.786 266.859C342.966 266.318 343.146 265.958 342.966 265.597C342.066 262.892 339.547 262.171 336.669 263.794C333.79 265.417 331.091 269.203 330.371 272.99C330.191 273.531 330.371 273.892 330.551 274.072C330.731 274.072 331.091 274.072 331.451 273.892ZM341.707 266.499L331.451 272.449C332.171 269.564 334.33 266.499 336.669 265.237C339.008 263.794 340.987 264.335 341.707 266.499Z" fill="#1B1F20"/>
<path d="M337.928 279.842C339.008 279.121 339.907 277.678 339.907 276.236V275.334L338.648 276.056V276.957C338.648 277.498 338.288 278.039 337.928 278.219C337.568 278.4 337.208 278.219 337.208 277.859V269.745L335.949 270.466V278.58C335.949 280.023 336.849 280.563 337.928 279.842Z" fill="#1B1F20"/>
<path d="M301.044 307.43L313.279 300.218C315.797 298.775 317.957 294.808 317.957 291.382V278.76C317.957 275.334 315.977 273.892 313.279 275.334L301.044 282.547C298.525 283.989 296.366 287.956 296.366 291.382V304.004C296.366 307.43 298.525 308.873 301.044 307.43Z" fill="#CCF7FF"/>
<path d="M303.563 304.545L315.258 297.693C318.317 295.89 320.835 291.563 320.835 287.956V274.433C320.835 270.826 318.317 269.384 315.258 271.187L303.563 277.859C300.504 279.662 297.985 283.989 297.985 287.596V301.3C297.985 304.726 300.504 306.348 303.563 304.545ZM315.258 272.81C317.597 271.367 319.576 272.63 319.576 275.334V288.858C319.576 291.563 317.597 294.989 315.258 296.251L303.563 302.923C301.224 304.365 299.245 303.103 299.245 300.398V286.874C299.245 284.17 301.224 280.744 303.563 279.481L315.258 272.81Z" fill="#1B1F20"/>
<path d="M302.124 292.284L307.521 282.367C307.881 281.645 308.421 281.285 308.781 281.645L314.178 285.252C314.358 285.432 314.178 285.973 313.819 286.153L311.3 287.596C310.94 287.776 310.76 288.317 310.76 288.678V296.251C310.76 296.612 310.4 297.152 310.22 297.333L305.902 299.857C305.542 300.038 305.362 299.857 305.362 299.497V291.923C305.362 291.563 305.002 291.382 304.822 291.563L302.304 293.005C301.944 293.005 301.764 292.645 302.124 292.284Z" fill="#00B6DA"/>
<path d="M307.341 298.415L311.479 295.89C312.199 295.53 312.739 294.448 312.739 293.727V286.153L315.258 284.711C315.618 284.53 315.977 283.99 316.157 283.449C316.337 282.908 316.157 282.547 315.977 282.367L310.58 278.76C310.22 278.58 309.86 278.58 309.5 278.76C309.14 278.941 308.601 279.482 308.421 280.023L303.023 289.94C302.663 290.481 302.663 291.022 302.843 291.382C303.023 291.743 303.383 291.743 303.743 291.563L306.262 290.12V297.693C306.082 298.415 306.621 298.775 307.341 298.415ZM314.538 283.629L312.739 284.711C312.019 285.071 311.479 286.153 311.479 286.875V294.448L307.341 296.792V289.219C307.341 288.497 306.801 288.137 306.082 288.497L304.282 289.579L309.32 280.383C309.32 280.203 309.5 280.203 309.5 280.203H309.68L314.538 283.629Z" fill="#1B1F20"/>
<path d="M168.261 260.729V247.205C168.261 243.599 165.742 239.271 162.683 237.468L150.988 230.796C147.929 228.993 145.411 230.436 145.411 234.042V247.566C145.411 251.172 147.929 255.5 150.988 257.303L162.683 263.974C165.742 265.597 168.261 264.155 168.261 260.729ZM162.683 239.091C165.022 240.533 167.001 243.779 167.001 246.484V260.007C167.001 262.712 165.022 263.794 162.683 262.532L150.988 255.86C148.649 254.418 146.67 251.172 146.67 248.467V234.944C146.67 232.239 148.649 231.157 150.988 232.419L162.683 239.091Z" fill="#CCF7FF"/>
<path d="M160.164 257.122V249.549L162.683 250.811C163.043 250.992 163.403 250.992 163.583 250.631C163.763 250.27 163.583 249.729 163.403 249.188L158.005 239.271C157.645 238.73 157.285 238.37 156.926 238.009C156.566 237.829 156.026 237.648 155.846 238.009L150.448 241.615C150.088 241.796 150.088 242.336 150.268 242.697C150.448 243.238 150.808 243.779 151.168 243.959L153.687 245.402V252.975C153.687 253.696 154.227 254.778 154.946 255.139L159.265 257.663C159.624 258.204 160.164 257.844 160.164 257.122ZM156.566 239.632H156.746C156.746 239.632 156.926 239.632 156.926 239.812L161.963 249.008L160.164 247.926C159.444 247.566 158.905 247.926 158.905 248.648V256.221L154.766 253.877V246.303C154.766 245.582 154.227 244.5 153.507 244.14L151.708 243.058L156.566 239.632Z" fill="#CCF7FF"/>
<path d="M270.817 164.801L289.709 175.62L267.399 188.603L248.507 177.784L270.817 164.801ZM267.578 183.013L280.173 175.8L270.637 170.21L258.043 177.423L267.578 183.013Z" fill="#00B6DA"/>
<path d="M267.579 184.275L282.152 175.8L270.637 169.128L256.064 177.603L267.579 184.275ZM278.194 175.8L267.579 181.931L260.022 177.603L270.637 171.292L278.194 175.8Z" fill="#00B6DA"/>
<path d="M267.219 189.685L291.508 175.62L270.637 163.539L246.348 177.603L267.219 189.685ZM287.73 175.62L267.399 187.34L250.486 177.603L270.817 165.883L287.73 175.62Z" fill="#1B1F20"/>
<path d="M301.584 190.045C306.262 190.045 310.94 188.963 314.358 186.98C317.957 184.816 319.936 182.111 319.936 179.046C319.936 175.981 317.957 173.096 314.358 171.112C307.341 166.965 295.826 166.965 288.629 171.112C285.031 173.276 283.052 175.981 283.052 179.046C283.052 182.111 285.031 184.996 288.629 186.98C292.228 189.144 296.906 190.045 301.584 190.045ZM301.584 169.85C305.902 169.85 310.22 170.751 313.459 172.735C316.518 174.538 318.137 176.702 318.137 179.046C318.137 181.39 316.518 183.554 313.459 185.357C306.982 189.144 296.366 189.144 289.709 185.357C286.65 183.554 285.031 181.39 285.031 179.046C285.031 176.702 286.65 174.538 289.709 172.735C292.948 170.751 297.266 169.85 301.584 169.85Z" fill="#1B1F20"/>
<path d="M301.584 186.98C304.822 186.98 308.241 186.259 310.76 184.816C313.459 183.374 314.898 181.21 314.898 179.046C314.898 176.882 313.459 174.719 310.76 173.276C305.722 170.391 297.625 170.391 292.588 173.276C289.889 174.719 288.449 176.882 288.449 179.046C288.449 181.21 289.889 183.374 292.588 184.816C294.927 186.259 298.345 186.98 301.584 186.98ZM301.584 172.915C304.462 172.915 307.521 173.637 309.68 174.899C311.659 175.981 312.739 177.423 312.739 179.046C312.739 180.489 311.659 182.111 309.68 183.193C305.182 185.718 297.985 185.718 293.487 183.193C291.508 182.111 290.428 180.669 290.428 179.046C290.428 177.604 291.508 175.981 293.487 174.899C295.646 173.637 298.705 172.915 301.584 172.915Z" fill="#1B1F20"/>
<path d="M176.897 181.57L269.197 234.583L295.286 219.437L202.986 166.424L176.897 181.57Z" fill="#00B6DA"/>
<path d="M276.574 232.6L304.822 216.191L208.564 160.834L180.316 177.243L276.574 232.6ZM300.864 216.191L276.754 230.256L184.454 177.243L208.564 163.178L300.864 216.191Z" fill="#1B1F20"/>
<path d="M296.906 221.24V259.827L270.637 275.515V236.386L296.906 221.24Z" fill="#00B6DA"/>
<path d="M275.675 272.449L303.923 255.5V214.568L275.675 230.977V272.449ZM301.764 254.237L277.654 268.843V232.059L301.764 217.994V254.237Z" fill="#1B1F20"/>
<path d="M256.783 312.66L282.692 297.513V257.663L256.783 272.63V312.66Z" fill="#00B6DA"/>
<path d="M256.063 313.922L283.591 298.054V256.221L256.063 272.089V313.922ZM281.972 297.153L257.682 311.217V273.171L281.972 259.106V297.153Z" fill="#1B1F20"/>
<path d="M259.482 307.43L276.574 297.513V268.843L259.482 278.76V307.43Z" fill="#CCF7FF"/>
<path d="M260.561 305.808L279.273 294.989V264.516L260.561 275.334V305.808ZM277.474 294.087L262 303.103V276.236L277.474 267.22V294.087Z" fill="#1B1F20"/>
<path d="M255.523 320.053C262.36 316.086 267.938 306.349 267.938 298.415C267.938 290.481 262.36 287.235 255.523 291.202C248.686 295.169 243.109 304.906 243.109 312.84C243.109 320.774 248.686 324.019 255.523 320.053ZM255.523 293.005C261.641 289.399 266.499 292.284 266.499 299.316C266.499 306.349 261.461 315.004 255.523 318.43C249.406 322.036 244.548 319.151 244.548 312.119C244.548 305.086 249.586 296.431 255.523 293.005Z" fill="#1B1F20"/>
<path d="M255.523 316.446C260.561 313.561 264.699 306.349 264.699 300.579C264.699 294.808 260.561 292.284 255.523 295.349C250.485 298.234 246.347 305.447 246.347 311.217C246.347 316.987 250.485 319.331 255.523 316.446ZM255.523 296.792C259.841 294.268 263.44 296.431 263.44 301.3C263.44 306.349 260.021 312.299 255.703 314.823C251.385 317.348 247.966 315.364 247.966 310.316C247.786 305.447 251.385 299.316 255.523 296.792Z" fill="#1B1F20"/>
<path d="M182.295 230.255L307.701 157.228L306.082 155.785L180.316 228.993L182.295 230.255Z" fill="#1B1F20"/>
<path d="M180.496 327.265L182.655 328.347V230.075L180.496 228.813V327.265Z" fill="#CCF7FF"/>
</g>
<defs>
<clipPath id="clip0_14_12562">
<rect width="233" height="244" fill="white" transform="matrix(-1 0 0 1 357 130)"/>
</clipPath>
</defs>
</svg>
