<svg width="96" height="96" viewBox="0 0 96 96" fill="none" xmlns="http://www.w3.org/2000/svg">
<path d="M94.8679 43.2344L84.9995 41.2232L74.9607 24.0805C74.8359 23.8674 74.6579 23.6907 74.4444 23.568C74.2308 23.4453 73.989 23.3808 73.743 23.3809H68.9247V18.4203C68.9247 18.0436 68.7758 17.6824 68.5108 17.416C68.2457 17.1496 67.8863 17 67.5115 17H62.5858C62.211 17 61.8516 17.1496 61.5866 17.416C61.3216 17.6824 61.1727 18.0436 61.1727 18.4203V23.3809H57.4768V18.4203C57.4769 18.2338 57.4404 18.049 57.3694 17.8767C57.2984 17.7043 57.1944 17.5477 57.0631 17.4158C56.9319 17.2839 56.7761 17.1792 56.6046 17.1079C56.4331 17.0366 56.2493 16.9999 56.0637 17H1.41312C1.22752 16.9999 1.04371 17.0366 0.872216 17.1079C0.70072 17.1792 0.544898 17.2839 0.413656 17.4158C0.282415 17.5477 0.17833 17.7043 0.107351 17.8767C0.0363731 18.049 -0.000105919 18.2338 2.30998e-07 18.4203L2.30998e-07 71.5855C2.30998e-07 71.9622 0.148882 72.3234 0.413893 72.5898C0.678904 72.8562 1.03834 73.0058 1.41312 73.0058H9.89667C10.9884 74.8341 12.5325 76.347 14.3787 77.3975C16.2249 78.4479 18.3102 79 20.4317 79C22.5531 79 24.6385 78.4479 26.4846 77.3975C28.3308 76.347 29.8749 74.8341 30.9667 73.0058H65.0333C66.1251 74.8341 67.6692 76.347 69.5154 77.3975C71.3615 78.4479 73.4469 79 75.5683 79C77.6898 79 79.7751 78.4479 81.6213 77.3975C83.4675 76.347 85.0116 74.8341 86.1033 73.0058H94.5869C94.9617 73.0058 95.3211 72.8562 95.5861 72.5898C95.8511 72.3234 96 71.9622 96 71.5855V44.6271C96 44.2994 95.8873 43.9817 95.681 43.7279C95.4747 43.4741 95.1874 43.2997 94.8679 43.2344ZM93.1721 53.6571H89.2873V51.0267H93.1738L93.1721 53.6571ZM81.625 41.069H63.9989V32.2696H76.4764L81.625 41.069ZM63.9989 19.8374H66.0984V23.3776H63.9989V19.8374ZM72.9347 26.2182L74.8129 29.4257H62.5858C62.211 29.4257 61.8516 29.5754 61.5866 29.8417C61.3216 30.1081 61.1727 30.4693 61.1727 30.846V42.4894C61.1727 42.866 61.3216 43.2273 61.5866 43.4937C61.8516 43.76 62.211 43.9097 62.5858 43.9097H83.9586L93.1738 45.7877V48.186H87.8742C87.4994 48.1862 87.1401 48.336 86.8752 48.6023C86.6102 48.8686 86.4613 49.2297 86.461 49.6063V55.0774C86.461 55.4541 86.6099 55.8153 86.8749 56.0817C87.14 56.3481 87.4994 56.4977 87.8742 56.4977H93.1738V60.2692H86.13C85.0413 58.429 83.4953 56.9048 81.6437 55.8462C79.7921 54.7876 77.6985 54.231 75.5683 54.231C73.4381 54.231 71.3446 54.7876 69.493 55.8462C67.6414 56.9048 66.0954 58.429 65.0067 60.2692H57.4768V26.2215L72.9347 26.2182ZM54.6505 19.8374V60.2692H30.9909C29.9022 58.429 28.3562 56.9048 26.5046 55.8462C24.653 54.7876 22.5594 54.231 20.4293 54.231C18.2991 54.231 16.2055 54.7876 14.3539 55.8462C12.5023 56.9048 10.9563 58.429 9.8676 60.2692H2.82624L2.82624 19.8374H54.6505ZM2.82624 70.1652V63.1099H8.62002C7.93563 65.4119 7.93956 67.8654 8.63133 70.1652H2.82624ZM20.4297 76.1597C18.5515 76.1597 16.7154 75.5999 15.1538 74.5511C13.5921 73.5023 12.375 72.0116 11.6563 70.2675C10.9376 68.5235 10.7495 66.6043 11.116 64.7529C11.4825 62.9014 12.387 61.2007 13.7151 59.8659C15.0433 58.5311 16.7354 57.6222 18.5775 57.254C20.4197 56.8858 22.3291 57.0749 24.0642 57.7975C25.7994 58.52 27.2825 59.7435 28.3258 61.3132C29.3692 62.8828 29.926 64.7283 29.9258 66.616C29.9239 69.1467 28.9231 71.5733 27.143 73.3632C25.363 75.153 22.9492 76.16 20.4313 76.163L20.4297 76.1597ZM32.232 70.1652C32.9238 67.8654 32.9277 65.4119 32.2433 63.1099H63.7567C63.0723 65.4119 63.0762 67.8654 63.768 70.1652H32.232ZM75.5687 76.163C73.6906 76.1631 71.8547 75.6035 70.293 74.555C68.7313 73.5064 67.514 72.016 66.7951 70.2721C66.0761 68.5282 65.8878 66.6092 66.254 64.7578C66.6201 62.9064 67.5242 61.2056 68.852 59.8706C70.1798 58.5356 71.8716 57.6263 73.7135 57.2577C75.5555 56.8891 77.4648 57.0777 79.2001 57.7997C80.9354 58.5217 82.4187 59.7447 83.4625 61.3139C84.5062 62.8832 85.0636 64.7284 85.0641 66.616C85.0622 69.1469 84.0612 71.5736 82.281 73.3634C80.5008 75.1533 78.0868 76.1602 75.5687 76.163ZM93.1721 70.1684H87.3671C88.0588 67.8686 88.0628 65.4152 87.3784 63.1131H93.1721V70.1684Z" fill="#1B1F20"/>
<path d="M20.5701 61.2845C19.5045 61.2846 18.463 61.6022 17.5771 62.197C16.6912 62.7918 16.0008 63.6372 15.5931 64.6262C15.1854 65.6152 15.0788 66.7035 15.2867 67.7533C15.4946 68.8032 16.0077 69.7676 16.7611 70.5245C17.5146 71.2815 18.4745 71.797 19.5196 72.0058C20.5646 72.2147 21.6478 72.1076 22.6323 71.698C23.6167 71.2884 24.4582 70.5948 25.0503 69.7048C25.6424 68.8148 25.9585 67.7684 25.9586 66.698C25.9571 65.2627 25.3889 63.8866 24.3787 62.8717C23.3685 61.8568 21.9987 61.286 20.5701 61.2845ZM20.5701 69.3149C20.0547 69.3147 19.551 69.1611 19.1226 68.8733C18.6942 68.5855 18.3603 68.1766 18.1633 67.6982C17.9662 67.2198 17.9147 66.6935 18.0154 66.1857C18.1161 65.678 18.3644 65.2116 18.729 64.8456C19.0935 64.4796 19.5578 64.2305 20.0633 64.1296C20.5688 64.0288 21.0927 64.0808 21.5687 64.279C22.0448 64.4773 22.4516 64.813 22.7378 65.2435C23.024 65.6741 23.1767 66.1802 23.1765 66.698C23.1757 67.392 22.9007 68.0574 22.4121 68.548C21.9234 69.0387 21.2609 69.3145 20.5701 69.3149Z" fill="#1B1F20"/>
<path d="M75.4286 61.2845C74.363 61.2843 73.3213 61.6016 72.4352 62.1962C71.5491 62.7909 70.8584 63.6361 70.4505 64.6251C70.0425 65.6141 69.9357 66.7024 70.1434 67.7524C70.3511 68.8024 70.8641 69.7669 71.6175 70.524C72.3709 71.2811 73.3308 71.7967 74.3759 72.0057C75.421 72.2147 76.5043 72.1077 77.4889 71.6982C78.4734 71.2886 79.315 70.595 79.9071 69.705C80.4993 68.815 80.8154 67.7685 80.8155 66.698C80.8139 65.263 80.2458 63.8873 79.236 62.8725C78.2261 61.8577 76.8569 61.2866 75.4286 61.2845ZM75.4286 69.3149C74.9132 69.315 74.4093 69.1616 73.9807 68.8741C73.5521 68.5865 73.218 68.1777 73.0206 67.6993C72.8233 67.2209 72.7717 66.6945 72.8722 66.1867C72.9727 65.6788 73.2209 65.2123 73.5853 64.8462C73.9498 64.48 74.4141 64.2307 74.9197 64.1297C75.4252 64.0288 75.9491 64.0807 76.4253 64.2789C76.9015 64.4771 77.3084 64.8128 77.5946 65.2434C77.8809 65.674 78.0336 66.1802 78.0334 66.698C78.0324 67.3917 77.7576 68.0567 77.2693 68.5473C76.7811 69.0378 76.1191 69.3138 75.4286 69.3149Z" fill="#1B1F20"/>
<path d="M62.5947 49.4758H65.7316C66.095 49.4758 66.4436 49.3202 66.7006 49.0434C66.9575 48.7665 67.1019 48.3911 67.1019 47.9996C67.1019 47.6081 66.9575 47.2326 66.7006 46.9557C66.4436 46.6789 66.095 46.5234 65.7316 46.5234H62.5947C62.2313 46.5234 61.8827 46.6789 61.6257 46.9557C61.3687 47.2326 61.2244 47.6081 61.2244 47.9996C61.2244 48.3911 61.3687 48.7665 61.6257 49.0434C61.8827 49.3202 62.2313 49.4758 62.5947 49.4758Z" fill="#1B1F20"/>
<path d="M9.27534 26.8413H23.5394C23.9211 26.8413 24.2873 26.6858 24.5572 26.4089C24.8271 26.1321 24.9788 25.7566 24.9788 25.3651C24.9788 24.9736 24.8271 24.5981 24.5572 24.3213C24.2873 24.0444 23.9211 23.8889 23.5394 23.8889H9.27534C8.89359 23.8889 8.52747 24.0444 8.25753 24.3213C7.98759 24.5981 7.83594 24.9736 7.83594 25.3651C7.83594 25.7566 7.98759 26.1321 8.25753 26.4089C8.52747 26.6858 8.89359 26.8413 9.27534 26.8413Z" fill="#00B6DA"/>
<path d="M28.8796 26.8413H31.8573C32.2419 26.8413 32.6107 26.6858 32.8826 26.4089C33.1545 26.1321 33.3072 25.7566 33.3072 25.3651C33.3072 24.9736 33.1545 24.5981 32.8826 24.3213C32.6107 24.0444 32.2419 23.8889 31.8573 23.8889H28.8796C28.4951 23.8889 28.1263 24.0444 27.8544 24.3213C27.5824 24.5981 27.4297 24.9736 27.4297 25.3651C27.4297 25.7566 27.5824 26.1321 27.8544 26.4089C28.1263 26.6858 28.4951 26.8413 28.8796 26.8413Z" fill="#00B6DA"/>
</svg>
