<svg width="96" height="62" viewBox="0 0 96 62" fill="none" xmlns="http://www.w3.org/2000/svg">
<path d="M94.8679 26.2344L84.9995 24.2232L74.9607 7.08047C74.8359 6.86736 74.6579 6.6907 74.4444 6.56799C74.2308 6.44528 73.989 6.38077 73.743 6.38086H68.9247V1.42031C68.9247 1.04362 68.7758 0.68236 68.5108 0.415999C68.2457 0.149639 67.8863 2.32179e-07 67.5115 2.32179e-07L62.5858 2.32179e-07C62.211 2.32179e-07 61.8516 0.149639 61.5866 0.415999C61.3216 0.68236 61.1727 1.04362 61.1727 1.42031V6.38086H57.4768V1.42031C57.4769 1.23377 57.4404 1.04902 57.3694 0.876656C57.2984 0.704287 57.1944 0.547672 57.0631 0.415763C56.9319 0.283853 56.7761 0.179237 56.6046 0.107897C56.4331 0.0365575 56.2493 -0.000106458 56.0637 2.32179e-07L1.41312 2.32179e-07C1.22752 -0.000106458 1.04371 0.0365575 0.872216 0.107897C0.70072 0.179237 0.544898 0.283853 0.413656 0.415763C0.282415 0.547672 0.17833 0.704287 0.107351 0.876656C0.0363731 1.04902 -0.000105919 1.23377 2.30998e-07 1.42031L2.30998e-07 54.5855C2.30998e-07 54.9622 0.148882 55.3234 0.413893 55.5898C0.678904 55.8562 1.03834 56.0058 1.41312 56.0058H9.89667C10.9884 57.8341 12.5325 59.347 14.3787 60.3975C16.2249 61.4479 18.3102 62 20.4317 62C22.5531 62 24.6385 61.4479 26.4846 60.3975C28.3308 59.347 29.8749 57.8341 30.9667 56.0058H65.0333C66.1251 57.8341 67.6692 59.347 69.5154 60.3975C71.3615 61.4479 73.4469 62 75.5683 62C77.6898 62 79.7751 61.4479 81.6213 60.3975C83.4675 59.347 85.0116 57.8341 86.1033 56.0058H94.5869C94.9617 56.0058 95.3211 55.8562 95.5861 55.5898C95.8511 55.3234 96 54.9622 96 54.5855V27.6271C96 27.2994 95.8873 26.9817 95.681 26.7279C95.4747 26.4741 95.1874 26.2997 94.8679 26.2344ZM93.1721 36.6571H89.2873V34.0267H93.1738L93.1721 36.6571ZM81.625 24.069H63.9989V15.2696H76.4764L81.625 24.069ZM63.9989 2.83738H66.0984V6.37761L63.9989 6.37761V2.83738ZM72.9347 9.21824L74.8129 12.4257H62.5858C62.211 12.4257 61.8516 12.5754 61.5866 12.8417C61.3216 13.1081 61.1727 13.4693 61.1727 13.846V25.4894C61.1727 25.866 61.3216 26.2273 61.5866 26.4937C61.8516 26.76 62.211 26.9097 62.5858 26.9097H83.9586L93.1738 28.7877V31.186H87.8742C87.4994 31.1862 87.1401 31.336 86.8752 31.6023C86.6102 31.8686 86.4613 32.2297 86.461 32.6063V38.0774C86.461 38.4541 86.6099 38.8153 86.8749 39.0817C87.14 39.3481 87.4994 39.4977 87.8742 39.4977H93.1738V43.2692H86.13C85.0413 41.429 83.4953 39.9048 81.6437 38.8462C79.7921 37.7876 77.6985 37.231 75.5683 37.231C73.4381 37.231 71.3446 37.7876 69.493 38.8462C67.6414 39.9048 66.0954 41.429 65.0067 43.2692H57.4768V9.22149L72.9347 9.21824ZM54.6505 2.83738V43.2692H30.9909C29.9022 41.429 28.3562 39.9048 26.5046 38.8462C24.653 37.7876 22.5594 37.231 20.4293 37.231C18.2991 37.231 16.2055 37.7876 14.3539 38.8462C12.5023 39.9048 10.9563 41.429 9.8676 43.2692H2.82624L2.82624 2.83738L54.6505 2.83738ZM2.82624 53.1652V46.1099H8.62002C7.93563 48.4119 7.93956 50.8654 8.63133 53.1652H2.82624ZM20.4297 59.1597C18.5515 59.1597 16.7154 58.5999 15.1538 57.5511C13.5921 56.5023 12.375 55.0116 11.6563 53.2675C10.9376 51.5235 10.7495 49.6043 11.116 47.7529C11.4825 45.9014 12.387 44.2007 13.7151 42.8659C15.0433 41.5311 16.7354 40.6222 18.5775 40.254C20.4197 39.8858 22.3291 40.0749 24.0642 40.7975C25.7994 41.52 27.2825 42.7435 28.3258 44.3132C29.3692 45.8828 29.926 47.7283 29.9258 49.616C29.9239 52.1467 28.9231 54.5733 27.143 56.3632C25.363 58.153 22.9492 59.16 20.4313 59.163L20.4297 59.1597ZM32.232 53.1652C32.9238 50.8654 32.9277 48.4119 32.2433 46.1099H63.7567C63.0723 48.4119 63.0762 50.8654 63.768 53.1652H32.232ZM75.5687 59.163C73.6906 59.1631 71.8547 58.6035 70.293 57.555C68.7313 56.5064 67.514 55.016 66.7951 53.2721C66.0761 51.5282 65.8878 49.6092 66.254 47.7578C66.6201 45.9064 67.5242 44.2056 68.852 42.8706C70.1798 41.5356 71.8716 40.6263 73.7135 40.2577C75.5555 39.8891 77.4648 40.0777 79.2001 40.7997C80.9354 41.5217 82.4187 42.7447 83.4625 44.3139C84.5062 45.8832 85.0636 47.7284 85.0641 49.616C85.0622 52.1469 84.0612 54.5736 82.281 56.3634C80.5008 58.1533 78.0868 59.1602 75.5687 59.163ZM93.1721 53.1684H87.3671C88.0588 50.8686 88.0628 48.4152 87.3784 46.1131H93.1721V53.1684Z" fill="#1B1F20"/>
<path d="M20.5701 44.2847C19.5045 44.2848 18.463 44.6024 17.5771 45.1972C16.6912 45.792 16.0008 46.6374 15.5931 47.6264C15.1854 48.6154 15.0788 49.7036 15.2867 50.7535C15.4946 51.8034 16.0077 52.7678 16.7611 53.5247C17.5146 54.2816 18.4745 54.7971 19.5196 55.006C20.5646 55.2149 21.6478 55.1078 22.6323 54.6982C23.6167 54.2886 24.4582 53.595 25.0503 52.705C25.6424 51.815 25.9585 50.7686 25.9586 49.6982C25.9571 48.2629 25.3889 46.8868 24.3787 45.8719C23.3685 44.857 21.9987 44.2861 20.5701 44.2847ZM20.5701 52.3151C20.0547 52.3149 19.551 52.1612 19.1226 51.8735C18.6942 51.5857 18.3603 51.1768 18.1633 50.6984C17.9662 50.22 17.9147 49.6937 18.0154 49.1859C18.1161 48.6781 18.3644 48.2118 18.729 47.8458C19.0935 47.4798 19.5578 47.2307 20.0633 47.1298C20.5688 47.029 21.0927 47.081 21.5687 47.2792C22.0448 47.4775 22.4516 47.8131 22.7378 48.2437C23.024 48.6743 23.1767 49.1804 23.1765 49.6982C23.1757 50.3922 22.9007 51.0576 22.4121 51.5482C21.9234 52.0389 21.2609 52.3146 20.5701 52.3151Z" fill="#1B1F20"/>
<path d="M75.4286 44.2847C74.363 44.2845 73.3213 44.6018 72.4352 45.1964C71.5491 45.7911 70.8584 46.6363 70.4505 47.6253C70.0425 48.6143 69.9357 49.7026 70.1434 50.7525C70.3511 51.8025 70.8641 52.7671 71.6175 53.5242C72.3709 54.2812 73.3308 54.7969 74.3759 55.0059C75.421 55.2149 76.5043 55.1079 77.4889 54.6984C78.4734 54.2888 79.315 53.5952 79.9071 52.7052C80.4993 51.8151 80.8154 50.7687 80.8155 49.6982C80.8139 48.2632 80.2458 46.8875 79.236 45.8727C78.2261 44.8579 76.8569 44.2868 75.4286 44.2847ZM75.4286 52.3151C74.9132 52.3152 74.4093 52.1618 73.9807 51.8742C73.5521 51.5867 73.218 51.1778 73.0206 50.6995C72.8233 50.2211 72.7717 49.6947 72.8722 49.1869C72.9727 48.679 73.2209 48.2125 73.5853 47.8464C73.9498 47.4802 74.4141 47.2309 74.9197 47.1299C75.4252 47.0289 75.9491 47.0808 76.4253 47.2791C76.9015 47.4773 77.3084 47.8129 77.5946 48.2435C77.8809 48.6741 78.0336 49.1804 78.0334 49.6982C78.0324 50.3919 77.7576 51.0569 77.2693 51.5474C76.7811 52.038 76.1191 52.314 75.4286 52.3151Z" fill="#1B1F20"/>
<path d="M62.5947 32.4758H65.7316C66.095 32.4758 66.4436 32.3203 66.7006 32.0435C66.9575 31.7666 67.1019 31.3911 67.1019 30.9996C67.1019 30.6081 66.9575 30.2326 66.7006 29.9558C66.4436 29.679 66.095 29.5234 65.7316 29.5234H62.5947C62.2313 29.5234 61.8827 29.679 61.6257 29.9558C61.3687 30.2326 61.2244 30.6081 61.2244 30.9996C61.2244 31.3911 61.3687 31.7666 61.6257 32.0435C61.8827 32.3203 62.2313 32.4758 62.5947 32.4758Z" fill="#1B1F20"/>
<path d="M9.27534 9.84154H23.5394C23.9211 9.84154 24.2873 9.68602 24.5572 9.40918C24.8271 9.13234 24.9788 8.75686 24.9788 8.36535C24.9788 7.97384 24.8271 7.59837 24.5572 7.32153C24.2873 7.04469 23.9211 6.88916 23.5394 6.88916H9.27534C8.89359 6.88916 8.52747 7.04469 8.25753 7.32153C7.98759 7.59837 7.83594 7.97384 7.83594 8.36535C7.83594 8.75686 7.98759 9.13234 8.25753 9.40918C8.52747 9.68602 8.89359 9.84154 9.27534 9.84154Z" fill="#00B6DA"/>
<path d="M28.8796 9.84154H31.8573C32.2419 9.84154 32.6107 9.68602 32.8826 9.40918C33.1545 9.13234 33.3072 8.75686 33.3072 8.36535C33.3072 7.97384 33.1545 7.59837 32.8826 7.32153C32.6107 7.04469 32.2419 6.88916 31.8573 6.88916H28.8796C28.4951 6.88916 28.1263 7.04469 27.8544 7.32153C27.5824 7.59837 27.4297 7.97384 27.4297 8.36535C27.4297 8.75686 27.5824 9.13234 27.8544 9.40918C28.1263 9.68602 28.4951 9.84154 28.8796 9.84154Z" fill="#00B6DA"/>
</svg>
